<svg width="18" height="18" viewBox="0 0 18 18" fill="none" xmlns="http://www.w3.org/2000/svg">
<path d="M13.5 13.875C14.1225 13.875 14.625 13.3725 14.625 12.75C14.625 12.1275 14.1225 11.625 13.5 11.625C12.8775 11.625 12.375 12.1275 12.375 12.75C12.375 13.3725 12.8775 13.875 13.5 13.875ZM14.625 7.125H12.75V9H16.095L14.625 7.125ZM4.5 13.875C5.1225 13.875 5.625 13.3725 5.625 12.75C5.625 12.1275 5.1225 11.625 4.5 11.625C3.8775 11.625 3.375 12.1275 3.375 12.75C3.375 13.3725 3.8775 13.875 4.5 13.875ZM15 6L17.25 9V12.75H15.75C15.75 13.995 14.745 15 13.5 15C12.255 15 11.25 13.995 11.25 12.75H6.75C6.75 13.995 5.745 15 4.5 15C3.255 15 2.25 13.995 2.25 12.75H0.75V4.5C0.75 3.6675 1.4175 3 2.25 3H12.75V6H15ZM2.25 4.5V11.25H2.82C3.2325 10.7925 3.8325 10.5 4.5 10.5C5.1675 10.5 5.7675 10.7925 6.18 11.25H11.25V4.5H2.25Z" fill="white"/>
</svg>
