<svg width="16" height="16" viewBox="0 0 16 16" fill="none" xmlns="http://www.w3.org/2000/svg">
<g clip-path="url(#clip0_228_16915)">
<path d="M14.5989 1.02975C14.7619 1.02975 14.8767 1.06004 14.9364 1.08304C15.0082 1.27404 15.1045 1.95852 14.3969 2.66652L10.7877 6.27552L10.8137 6.72327C10.8684 7.66027 10.9699 9.33952 11.0574 10.779C11.1347 12.0603 11.208 13.2703 11.2127 13.3733C11.2152 13.444 11.2162 13.4608 11.1502 13.5403C11.0027 13.7195 10.7275 14.0233 10.4955 14.275C10.1357 13.3058 9.3797 11.2585 8.9622 10.1125L8.4257 8.63802L7.31595 9.74777L5.2752 11.71L4.99095 11.9938L4.9822 12.395C4.97545 12.7153 4.97695 13.29 4.9777 13.7968C4.9787 14.1498 4.97972 14.4705 4.97722 14.6473C4.97272 14.6555 5.04547 14.6653 5.03872 14.677C4.99522 14.6073 4.94847 14.532 4.89897 14.4538C4.48747 13.7975 3.91797 12.8898 3.74422 12.6065L3.61722 12.399L3.40872 12.273C2.65047 11.815 1.81047 11.2863 1.29797 10.956C1.31572 10.9458 1.3302 11 1.34195 10.9938H1.3752C1.53645 10.9938 1.80295 10.9973 2.1017 11.0015C2.49245 11.0068 2.9357 11.0133 3.27495 11.0133C3.40495 11.0133 3.52045 11.0123 3.61345 11.0103L4.0147 11.001L4.29845 10.7173L6.2632 8.6905L7.3692 7.585L5.90147 7.045C4.79847 6.63927 2.68572 5.85025 1.69747 5.479C1.95095 5.2455 2.25645 4.96825 2.4347 4.82074C2.48445 4.77974 2.52322 4.75875 2.54995 4.75875L2.5852 4.75975C2.69545 4.765 4.0647 4.8545 5.38844 4.941C6.79369 5.03275 8.37969 5.13625 9.28142 5.1935L9.73217 5.22175L13.3419 1.61175C13.8489 1.1055 14.3469 1.02975 14.5989 1.02975ZM14.599 0.0298008C14.0082 0.0298008 13.283 0.25677 12.6352 0.904769L9.34448 4.19527C7.49098 4.07802 2.74398 3.76402 2.62623 3.76077C2.60084 3.75948 2.57541 3.75881 2.54998 3.75875C2.38973 3.75875 2.11298 3.7895 1.79798 4.04975C1.42823 4.35552 0.657233 5.08053 0.657233 5.08053C0.471233 5.26702 0.376983 5.49802 0.399483 5.71527C0.413233 5.84652 0.484483 6.08577 0.806733 6.21178C1.00248 6.28853 4.11773 7.45403 5.55625 7.98328L3.5915 10.01C3.50448 10.012 3.39673 10.013 3.27498 10.013C2.67598 10.013 1.74723 9.99353 1.37497 9.99353C1.32572 9.99353 1.28622 9.99354 1.2582 9.99453C1.14495 9.99803 0.910452 9.94228 0.291952 10.4593L0.247952 10.5003C0.0624515 10.6858 0.0189515 10.8708 0.0149515 10.993C0.0109515 11.119 0.0447015 11.3005 0.226952 11.4465C0.336452 11.535 1.7402 12.4338 2.89144 13.129C3.16745 13.5793 4.43745 15.5978 4.5037 15.7073C4.60047 15.8708 4.7587 15.964 4.94797 15.97H4.96372C5.14772 15.97 5.33672 15.8788 5.52172 15.699C6.04522 15.0868 5.97297 14.8333 5.9752 14.7268C5.98345 14.3928 5.96945 12.9778 5.98145 12.4168L8.02195 10.4543C8.54345 11.8868 9.68345 14.97 9.7597 15.1663C9.8867 15.4885 10.126 15.5593 10.2572 15.5725C10.2787 15.575 10.3007 15.576 10.3222 15.576C10.5195 15.576 10.724 15.4833 10.8915 15.3158C10.8915 15.3158 11.6142 14.5488 11.9212 14.1755C12.2287 13.8025 12.2167 13.484 12.2107 13.3338C12.2082 13.2298 11.9187 8.50855 11.8112 6.6648L15.1027 3.37328C16.2692 2.20627 16.0837 0.800035 15.6505 0.367535C15.4592 0.175285 15.072 0.0298164 14.599 0.0298008Z" fill="white"/>
</g>
<defs>
<clipPath id="clip0_228_16915">
<rect width="16" height="16" fill="white"/>
</clipPath>
</defs>
</svg>
