<svg width="20" height="20" viewBox="0 0 20 20" fill="none" xmlns="http://www.w3.org/2000/svg">
<path d="M1.66699 16.6667C1.8563 16.9304 2.10697 17.1441 2.39735 17.2893C2.68772 17.4345 3.00908 17.5068 3.33366 17.5C3.65824 17.5068 3.97959 17.4345 4.26997 17.2893C4.56035 17.1441 4.81102 16.9304 5.00033 16.6667C5.18963 16.4029 5.4403 16.1892 5.73068 16.044C6.02106 15.8989 6.34241 15.8265 6.66699 15.8333C6.99157 15.8265 7.31293 15.8989 7.60331 16.044C7.89368 16.1892 8.14435 16.4029 8.33366 16.6667C8.52297 16.9304 8.77363 17.1441 9.06401 17.2893C9.35439 17.4345 9.67575 17.5068 10.0003 17.5C10.3249 17.5068 10.6463 17.4345 10.9366 17.2893C11.227 17.1441 11.4777 16.9304 11.667 16.6667C11.8563 16.4029 12.107 16.1892 12.3973 16.044C12.6877 15.8989 13.0091 15.8265 13.3337 15.8333C13.6582 15.8265 13.9796 15.8989 14.27 16.044C14.5603 16.1892 14.811 16.4029 15.0003 16.6667C15.1896 16.9304 15.4403 17.1441 15.7307 17.2893C16.0211 17.4345 16.3424 17.5068 16.667 17.5C16.9916 17.5068 17.3129 17.4345 17.6033 17.2893C17.8937 17.1441 18.1443 16.9304 18.3337 16.6667M3.33366 15L2.50033 10.8333H17.5003L15.8337 14.1667M4.16699 10.8333V5.83333H10.8337L14.167 10.8333M5.83366 5.83333V2.5H5.00033" stroke="white" stroke-linecap="round" stroke-linejoin="round"/>
</svg>
