<svg width="50" height="50" viewBox="0 0 50 50" fill="none" xmlns="http://www.w3.org/2000/svg">
<circle cx="25" cy="25" r="24.5" fill="white" stroke="#EEEEEE"/>
<path d="M34.158 14H28.158C27.9598 14.0026 27.7706 14.0824 27.6305 14.2225C27.4904 14.3626 27.4105 14.5519 27.408 14.75V22.51L23.238 28.35C23.2162 28.3811 23.188 28.407 23.1551 28.426C23.1223 28.445 23.0857 28.4566 23.048 28.46C23.0132 28.4622 22.9783 28.4572 22.9455 28.4451C22.9128 28.433 22.883 28.4143 22.858 28.39L21.448 26.98C21.278 26.813 21.0763 26.6818 20.8547 26.5942C20.6331 26.5066 20.3962 26.4643 20.158 26.47C19.917 26.4783 19.6805 26.5368 19.4635 26.6419C19.2465 26.7469 19.0539 26.8961 18.898 27.08L14.298 32.44C14.1434 32.6216 14.0441 32.8437 14.0116 33.08C13.9792 33.3163 14.015 33.5569 14.1149 33.7735C14.2148 33.99 14.3745 34.1735 14.5753 34.3023C14.7761 34.431 15.0095 34.4996 15.248 34.5H33.318C33.5338 34.4994 33.7458 34.4428 33.9333 34.3359C34.1208 34.229 34.2774 34.0754 34.388 33.89C34.4988 33.7022 34.5572 33.4881 34.5572 33.27C34.5572 33.0519 34.4988 32.8378 34.388 32.65L28.908 22.56V19.5H34.158C34.3561 19.4974 34.5453 19.4176 34.6854 19.2775C34.8255 19.1374 34.9054 18.9481 34.908 18.75V14.75C34.9054 14.5519 34.8255 14.3626 34.6854 14.2225C34.5453 14.0824 34.3561 14.0026 34.158 14ZM15.788 33L20.028 28.06C20.0501 28.0333 20.0775 28.0116 20.1085 27.9961C20.1395 27.9806 20.1734 27.9717 20.208 27.97C20.2747 27.9694 20.3392 27.9944 20.388 28.04L21.798 29.45C21.9785 29.6279 22.1952 29.7647 22.4335 29.8511C22.6718 29.9375 22.9259 29.9714 23.1784 29.9505C23.431 29.9296 23.6761 29.8544 23.8969 29.7301C24.1178 29.6057 24.3091 29.4351 24.458 29.23L28.068 24.16L32.898 33H15.788ZM33.408 18H28.908V15.5H33.408V18Z" fill="black"/>
</svg>
