<svg width="50" height="50" viewBox="0 0 50 50" fill="none" xmlns="http://www.w3.org/2000/svg">
<circle cx="25" cy="25" r="24.5" fill="white" stroke="#EEEEEE"/>
<path d="M37.8469 24.9209C36.4457 22.794 34.5383 21.0482 32.296 19.8403C30.0536 18.6323 27.5464 18 24.9994 18C22.4524 18 19.9452 18.6323 17.7029 19.8403C15.4605 21.0482 13.5531 22.794 12.1519 24.9209C12.0528 25.0714 12 25.2477 12 25.4279C12 25.6081 12.0528 25.7843 12.1519 25.9348C13.5531 28.0618 15.4605 29.8075 17.7029 31.0155C19.9452 32.2234 22.4524 32.8558 24.9994 32.8558C27.5464 32.8558 30.0536 32.2234 32.296 31.0155C34.5383 29.8075 36.4457 28.0618 37.8469 25.9348C37.946 25.7843 37.9988 25.6081 37.9988 25.4279C37.9988 25.2477 37.946 25.0714 37.8469 24.9209ZM24.9994 30.9988C22.8635 31.0074 20.7564 30.5064 18.8529 29.5376C16.9494 28.5687 15.3044 27.1598 14.0544 25.4279C15.3104 23.7023 16.9567 22.2981 18.8588 21.3299C20.761 20.3618 22.8651 19.8571 24.9994 19.8571C27.1338 19.8571 29.2379 20.3618 31.14 21.3299C33.0422 22.2981 34.6884 23.7023 35.9445 25.4279C34.6945 27.1598 33.0495 28.5687 31.146 29.5376C29.2424 30.5064 27.1353 31.0074 24.9994 30.9988Z" fill="black"/>
<path d="M24.9999 20.7854C24.0817 20.7854 23.1841 21.0577 22.4207 21.5678C21.6572 22.0779 21.0622 22.803 20.7108 23.6513C20.3594 24.4996 20.2675 25.433 20.4466 26.3336C20.6258 27.2341 21.0679 28.0613 21.7172 28.7106C22.3664 29.3598 23.1936 29.802 24.0942 29.9811C24.9947 30.1602 25.9282 30.0683 26.7765 29.7169C27.6248 29.3655 28.3498 28.7705 28.8599 28.0071C29.3701 27.2436 29.6423 26.346 29.6423 25.4279C29.6409 24.1971 29.1513 23.0171 28.281 22.1468C27.4107 21.2765 26.2307 20.7869 24.9999 20.7854ZM24.9999 28.2133C24.449 28.2133 23.9104 28.05 23.4524 27.7439C22.9943 27.4378 22.6373 27.0028 22.4264 26.4938C22.2156 25.9848 22.1605 25.4248 22.2679 24.8844C22.3754 24.3441 22.6407 23.8478 23.0303 23.4582C23.4198 23.0687 23.9161 22.8034 24.4565 22.6959C24.9968 22.5884 25.5569 22.6436 26.0658 22.8544C26.5748 23.0652 27.0098 23.4223 27.3159 23.8803C27.622 24.3384 27.7854 24.8769 27.7854 25.4279C27.7854 26.1666 27.4919 26.8751 26.9695 27.3975C26.4471 27.9199 25.7386 28.2133 24.9999 28.2133Z" fill="black"/>
</svg>
