<svg width="38" height="38" viewBox="0 0 38 38" fill="none" xmlns="http://www.w3.org/2000/svg">
<path fill-rule="evenodd" clip-rule="evenodd" d="M19.3414 15.2209V17.2833C19.7733 16.6254 20.3686 16.0909 21.069 15.7322C21.7695 15.3735 22.5511 15.2027 23.3373 15.2367C27.5362 15.2367 28.444 17.8618 28.444 21.2767V28.2294H24.555V22.0655C24.555 20.595 24.2585 18.7039 21.9689 18.7039C19.7485 18.7039 19.3694 20.3045 19.3694 21.9561V28.2294H15.4926V15.2209H19.3414ZM12.8882 11.9518C12.8877 12.337 12.7735 12.7136 12.5599 13.0342C12.3463 13.3548 12.0428 13.6052 11.6875 13.754C11.3323 13.9017 10.9412 13.9403 10.564 13.865C10.1868 13.7897 9.84049 13.6038 9.56922 13.3311C9.29744 13.0582 9.11241 12.7111 9.0374 12.3333C8.96239 11.9556 9.00075 11.5641 9.14765 11.208C9.29455 10.852 9.54344 10.5474 9.86302 10.3324C10.1826 10.1175 10.5586 10.0018 10.9437 10C11.1997 10 11.4531 10.0505 11.6895 10.1487C11.9259 10.2469 12.1406 10.3908 12.3213 10.5721C12.5019 10.7534 12.645 10.9687 12.7423 11.2054C12.8396 11.4422 12.8892 11.6958 12.8882 11.9518Z" fill="white"/>
<path d="M12.8889 15.2373H9V28.23H12.8889V15.2373Z" fill="white"/>
</svg>
