<svg width="38" height="38" viewBox="0 0 38 38" fill="none" xmlns="http://www.w3.org/2000/svg">
<mask id="mask0_228_10063" style="mask-type:luminance" maskUnits="userSpaceOnUse" x="8" y="9" width="21" height="21">
<path d="M28.462 9H8.44141V29.0206H28.462V9Z" fill="white"/>
</mask>
<g mask="url(#mask0_228_10063)">
<path d="M19.0308 21.5402C18.8417 21.6584 18.629 21.7056 18.4399 21.7056C18.2508 21.7056 18.038 21.6584 17.8489 21.5402L8.44141 15.7964V23.4311C8.44141 25.0621 9.76508 26.3857 11.396 26.3857H25.5073C27.1383 26.3857 28.4619 25.0621 28.4619 23.4311V15.7964L19.0308 21.5402Z" fill="white"/>
<path d="M25.5055 11.6362H11.3943C9.99968 11.6362 8.81782 12.629 8.53418 13.9527L18.4617 20.0037L28.3657 13.9527C28.082 12.629 26.9001 11.6362 25.5055 11.6362Z" fill="white"/>
</g>
</svg>
