<svg width="38" height="38" viewBox="0 0 38 38" fill="none" xmlns="http://www.w3.org/2000/svg">
<mask id="mask0_344_1558" style="mask-type:luminance" maskUnits="userSpaceOnUse" x="10" y="10" width="18" height="18">
<path d="M28 10H10V28H28V10Z" fill="white"/>
</mask>
<g mask="url(#mask0_344_1558)">
<path d="M19.5206 21.2745C19.3506 21.3807 19.1594 21.4232 18.9894 21.4232C18.8193 21.4232 18.6281 21.3807 18.4581 21.2745L9.99998 16.1104V22.9746C9.99998 24.4409 11.1901 25.631 12.6564 25.631H25.3435C26.8099 25.631 27.9999 24.4409 27.9999 22.9746V16.1104L19.5206 21.2745Z" fill="white"/>
<path d="M25.3418 12.3701H12.6547C11.4009 12.3701 10.3383 13.2627 10.0833 14.4528L19.0089 19.8931L27.9134 14.4528C27.6583 13.2627 26.5957 12.3701 25.3418 12.3701Z" fill="white"/>
</g>
</svg>
