<svg width="18" height="18" viewBox="0 0 18 18" fill="none" xmlns="http://www.w3.org/2000/svg">
<path d="M15.6935 4.76997C13.3423 1.12497 8.52726 0.0449743 4.80351 2.30622C1.16976 4.56747 -0.000236869 9.49498 2.35101 13.1287L2.54226 13.4212L1.75476 16.3687L4.70226 15.5812L4.99476 15.7725C6.26601 16.4587 7.64976 16.8525 9.02226 16.8525C10.496 16.8525 11.9698 16.4587 13.241 15.6712C16.8748 13.3087 17.9548 8.48247 15.6935 4.74747V4.76997ZM13.6348 12.3525C13.241 12.9375 12.746 13.3312 12.0598 13.4325C11.666 13.4325 11.171 13.6237 9.21351 12.8475C7.54851 12.06 6.16476 10.7775 5.18601 9.30373C4.60101 8.61748 4.29726 7.72872 4.20726 6.83997C4.20726 6.05247 4.49976 5.36622 4.99476 4.87122C5.18601 4.67997 5.38851 4.57872 5.57976 4.57872H6.07476C6.26601 4.57872 6.46851 4.57872 6.56976 4.97247C6.76101 5.46747 7.25601 6.64872 7.25601 6.74997C7.35726 6.85122 7.31226 7.60497 6.86226 8.03247C6.61476 8.31372 6.56976 8.32497 6.67101 8.52747C7.06476 9.11247 7.55976 9.70872 8.04351 10.2037C8.62851 10.6987 9.22476 11.0925 9.91101 11.385C10.1023 11.4862 10.3048 11.4862 10.406 11.2837C10.5073 11.0925 10.991 10.5975 11.1935 10.395C11.3848 10.2037 11.486 10.2037 11.6885 10.2937L13.2635 11.0812C13.4548 11.1825 13.6573 11.2725 13.7585 11.3737C13.8598 11.6662 13.8598 12.06 13.6573 12.3525H13.6348Z" fill="white"/>
</svg>
