<svg width="95" height="125" viewBox="0 0 95 125" fill="none" xmlns="http://www.w3.org/2000/svg">
<g opacity="0.05">
<path d="M4.29207 73.0293L10.9707 73.0293L10.9707 64.8372L4.29207 64.8372L4.29207 73.0293Z" fill="#EFEFEF"/>
<path d="M4.29207 47.5566L10.9707 47.5566L10.9707 39.3645L4.29207 39.3645L4.29207 47.5566Z" fill="#EFEFEF"/>
<path d="M4.29207 22.0845L10.9707 22.0845L10.9707 13.8923L4.29207 13.8923L4.29207 22.0845Z" fill="#EFEFEF"/>
<path d="M4.29207 9.34863L10.9707 9.34863L10.9707 1.15645L4.29207 1.15645L4.29207 9.34863Z" fill="#EFEFEF"/>
<path d="M14.6749 60.293L21.3535 60.293L21.3535 52.1008L14.6749 52.1008L14.6749 60.293Z" fill="#EFEFEF"/>
<path d="M14.6749 47.5566L21.3535 47.5566L21.3535 39.3645L14.6749 39.3645L14.6749 47.5566Z" fill="#EFEFEF"/>
<path d="M14.6749 22.0845L21.3535 22.0845L21.3535 13.8923L14.6749 13.8923L14.6749 22.0845Z" fill="#EFEFEF"/>
<path d="M25.1105 22.085L31.7891 22.085L31.7891 13.8928L25.1105 13.8928L25.1105 22.085Z" fill="#EFEFEF"/>
<path d="M25.1105 9.34863L31.7891 9.34863L31.7891 1.15645L25.1105 1.15645L25.1105 9.34863Z" fill="#EFEFEF"/>
<path d="M35.4943 85.7661L42.1729 85.7661L42.1729 77.574L35.4943 77.574L35.4943 85.7661Z" fill="#EFEFEF"/>
<path d="M35.4943 73.0298L42.1729 73.0298L42.1729 64.8376L35.4943 64.8376L35.4943 73.0298Z" fill="#EFEFEF"/>
<path d="M35.4943 47.5571L42.1729 47.5571L42.1729 39.365L35.4943 39.365L35.4943 47.5571Z" fill="#EFEFEF"/>
<path d="M35.4943 34.8208L42.1729 34.8208L42.1729 26.6287L35.4943 26.6287L35.4943 34.8208Z" fill="#EFEFEF"/>
<path d="M45.877 85.7661L52.5557 85.7661L52.5557 77.574L45.877 77.574L45.877 85.7661Z" fill="#EFEFEF"/>
<path d="M45.877 9.34863L52.5557 9.34863L52.5557 1.15645L45.877 1.15645L45.877 9.34863Z" fill="#EFEFEF"/>
<path d="M56.2608 60.293L62.9395 60.293L62.9395 52.1008L56.2608 52.1008L56.2608 60.293Z" fill="#EFEFEF"/>
<path d="M56.2608 22.085L62.9395 22.085L62.9395 13.8928L56.2608 13.8928L56.2608 22.085Z" fill="#EFEFEF"/>
<path d="M66.6436 98.5024L73.3223 98.5024L73.3223 90.3103L66.6436 90.3103L66.6436 98.5024Z" fill="#EFEFEF"/>
<path d="M66.6436 73.0293L73.3223 73.0293L73.3223 64.8372L66.6436 64.8372L66.6436 73.0293Z" fill="#EFEFEF"/>
<path d="M66.6436 34.8208L73.3223 34.8208L73.3223 26.6287L66.6436 26.6287L66.6436 34.8208Z" fill="#EFEFEF"/>
<path d="M66.6436 22.0845L73.3223 22.0845L73.3223 13.8923L66.6436 13.8923L66.6436 22.0845Z" fill="#EFEFEF"/>
<path d="M77.0265 60.293L83.7051 60.293L83.7051 52.1008L77.0265 52.1008L77.0265 60.293Z" fill="#EFEFEF"/>
<path d="M77.0265 47.5566L83.7051 47.5566L83.7051 39.3645L77.0265 39.3645L77.0265 47.5566Z" fill="#EFEFEF"/>
<path d="M77.0265 9.34863L83.7051 9.34863L83.7051 1.15645L77.0265 1.15645L77.0265 9.34863Z" fill="#EFEFEF"/>
<path d="M87.4103 60.293L94.0889 60.293L94.0889 52.1008L87.4103 52.1008L87.4103 60.293Z" fill="#EFEFEF"/>
<path d="M87.4103 34.8208L94.0889 34.8208L94.0889 26.6287L87.4103 26.6287L87.4103 34.8208Z" fill="#EFEFEF"/>
<path d="M87.4103 22.085L94.0889 22.085L94.0889 13.8928L87.4103 13.8928L87.4103 22.085Z" fill="#EFEFEF"/>
<path d="M87.4093 9.34863L94.0879 9.34863L94.0879 1.15645L87.4093 1.15645L87.4093 9.34863Z" fill="#EFEFEF"/>
<path d="M4.29207 22.2124L10.9707 22.2124L10.9707 14.0203L4.29207 14.0203L4.29207 22.2124Z" fill="url(#paint0_linear_228_8754)"/>
<path d="M38.8854 -67.5177C17.763 -67.5176 0.639918 -46.514 0.63992 -20.6048C0.639922 5.30447 17.763 26.3081 38.8854 26.3081C60.0078 26.3081 77.1309 5.30447 77.1309 -20.6048C77.1309 -46.5141 60.0078 -67.5177 38.8854 -67.5177Z" fill="url(#paint1_radial_228_8754)"/>
<path d="M38.8856 -51.9653C24.7656 -51.9653 13.319 -37.9247 13.319 -20.6047C13.319 -3.28474 24.7656 10.7559 38.8856 10.7559C53.0056 10.7559 64.4521 -3.28475 64.4521 -20.6047C64.4521 -37.9247 53.0056 -51.9653 38.8856 -51.9653Z" fill="url(#paint2_radial_228_8754)"/>
</g>
<defs>
<linearGradient id="paint0_linear_228_8754" x1="18.2855" y1="-513.726" x2="0.181646" y2="88.7197" gradientUnits="userSpaceOnUse">
<stop stop-color="#393939"/>
<stop offset="0.0637863" stop-color="#4F4F4F"/>
<stop offset="0.1817" stop-color="#717171"/>
<stop offset="0.3076" stop-color="#8E8E8E"/>
<stop offset="0.4421" stop-color="#A3A3A3"/>
<stop offset="0.5893" stop-color="#B3B3B3"/>
<stop offset="0.7585" stop-color="#BCBCBC"/>
<stop offset="1" stop-color="#BFBFBF"/>
</linearGradient>
<radialGradient id="paint1_radial_228_8754" cx="0" cy="0" r="1" gradientUnits="userSpaceOnUse" gradientTransform="translate(38.8615 -20.623) rotate(180) scale(38.2229 46.8852)">
<stop stop-color="white"/>
<stop offset="1" stop-color="white" stop-opacity="0"/>
</radialGradient>
<radialGradient id="paint2_radial_228_8754" cx="0" cy="0" r="1" gradientUnits="userSpaceOnUse" gradientTransform="translate(38.8617 -20.6229) rotate(180) scale(25.561 31.3537)">
<stop stop-color="white"/>
<stop offset="0.0732435" stop-color="white" stop-opacity="0.8587"/>
<stop offset="0.5182" stop-color="white" stop-opacity="0"/>
</radialGradient>
</defs>
</svg>
