<svg width="60" height="60" viewBox="0 0 60 60" fill="none" xmlns="http://www.w3.org/2000/svg">
<rect width="60" height="60" rx="10" fill="#F9F9F9"/>
<path d="M31.3123 11.0002C24.4923 11.0002 18.2171 15.2871 15.7634 21.6399C15.6082 22.0296 15.803 22.4589 16.1928 22.5746C16.5825 22.7299 17.0118 22.535 17.1274 22.1453C17.8292 20.3916 18.8035 18.7931 20.0503 17.4289L21.3367 18.7153C21.492 18.8706 21.6868 18.9497 21.8436 18.9497C22.0385 18.9497 22.2333 18.8721 22.3506 18.7153C22.6231 18.4428 22.6231 17.9755 22.3506 17.6634L21.1038 16.4166C23.6765 14.0783 27.0271 12.6366 30.5743 12.4796L30.5712 14.3125C30.5712 14.7022 30.8833 15.0524 31.3111 15.0524C31.7008 15.0524 32.0509 14.7403 32.0509 14.3125L32.0524 12.5192C35.7151 12.7141 38.9898 14.1557 41.5229 16.4561L40.2761 17.7029C40.0036 17.9754 40.0036 18.4428 40.2761 18.7549C40.4314 18.9101 40.5882 18.9893 40.7831 18.9893C40.978 18.9893 41.1728 18.9117 41.29 18.7944L42.5368 17.5476C44.8355 20.0808 46.2787 23.3934 46.4737 27.0182H44.7185C44.3288 27.0182 43.9786 27.3303 43.9786 27.758C43.9786 28.1873 44.2907 28.4979 44.7185 28.4979H46.5118C46.3565 32.1226 44.9133 35.4353 42.6146 38.0062L41.3283 36.7198C41.0558 36.4473 40.5884 36.4473 40.2763 36.7198C40.0038 36.9923 40.0038 37.4597 40.2763 37.7718L41.5627 39.0582C40.1987 40.2669 38.6002 41.2792 36.8464 41.981C36.4567 42.1363 36.2618 42.5656 36.4171 42.9157C36.5343 43.1882 36.8068 43.3831 37.1189 43.3831C37.1965 43.3831 37.3137 43.3831 37.3914 43.3435C43.8614 40.8499 48.031 34.73 48.031 27.7945C48.031 18.4822 40.5488 11 31.313 11L31.3123 11.0002Z" fill="black"/>
<path d="M33.376 39.9566L28.9734 37.6959C27.8819 37.1113 26.5178 37.4234 25.7384 38.3977L24.7245 39.6841C23.7106 39.0995 22.776 38.3977 21.6844 37.3062C20.5549 36.1766 19.8911 35.2404 19.2685 34.1884L20.5549 33.1746C21.5292 32.3951 21.8413 31.0311 21.2567 29.9396L19.0356 25.6145C18.6855 24.9523 18.1009 24.4849 17.3991 24.2901C16.6973 24.0952 15.9179 24.2505 15.2953 24.6402L12.4896 26.5112C11.5138 27.1734 10.9292 28.3425 11.0069 29.5117C11.0465 30.2911 11.1622 31.4207 11.357 32.2397C12.2141 35.5523 14.2799 38.9822 17.163 41.8654C20.0463 44.7487 23.476 46.8144 26.7886 47.6714C27.6076 47.8663 28.6976 47.9835 29.5166 48.0215H29.7115C30.841 48.0215 31.8945 47.437 32.5171 46.5023L34.3485 43.657C34.7382 43.0328 34.8554 42.293 34.6605 41.5912C34.5068 40.8909 34.0394 40.3063 33.3757 39.9562L33.376 39.9566ZM33.1431 42.8795L31.3117 45.7247C30.9616 46.2697 30.377 46.5818 29.6356 46.5818C28.5837 46.5042 27.7266 46.3869 27.1801 46.2697C24.102 45.4507 20.9447 43.5417 18.2166 40.8534C15.5282 38.0858 13.6176 34.9285 12.8004 31.8501C12.6451 31.3052 12.5279 30.4465 12.4883 29.3946C12.4487 28.7324 12.7608 28.1082 13.3073 27.7185L16.113 25.8475C16.3078 25.7303 16.5027 25.6527 16.7371 25.6527C16.8148 25.6527 16.932 25.6527 17.0096 25.6923C17.3217 25.7699 17.5942 25.9648 17.7114 26.2768L19.9706 30.6811C20.205 31.1484 20.0878 31.733 19.6585 32.0847L17.9048 33.4487C17.6323 33.6831 17.5546 34.0729 17.7099 34.3834C18.4498 35.7474 19.2292 36.9165 20.6724 38.3581C22.076 39.7617 23.2451 40.5412 24.5695 41.281C24.8816 41.4363 25.2713 41.3586 25.5042 41.0861L26.9078 39.2928C27.258 38.8635 27.8425 38.7478 28.3114 38.9807L32.7156 41.2414C32.9881 41.3967 33.2226 41.6311 33.3002 41.9432C33.3382 42.2949 33.2983 42.607 33.1431 42.8795Z" fill="black"/>
<path d="M31.312 17.47C30.9223 17.47 30.5721 17.782 30.5721 18.2098V24.9126C29.3254 25.2246 28.4287 26.3542 28.4287 27.6802C28.4287 29.2787 29.7151 30.5635 31.312 30.5635C32.6364 30.5635 33.7675 29.6288 34.0796 28.42H37.8215C38.2112 28.42 38.5613 28.0699 38.5613 27.6802C38.5613 27.2905 38.2112 26.9404 37.8215 26.9404H34.0796C33.8071 25.9265 33.0277 25.147 32.0138 24.8745L32.0123 18.2096C32.0518 17.7803 31.7398 17.47 31.312 17.47ZM32.7536 27.6802C32.7536 28.4596 32.1295 29.0838 31.35 29.0838C30.5706 29.0838 29.9464 28.4596 29.9464 27.6802C29.9464 26.9008 30.5706 26.2766 31.35 26.2766C32.1295 26.2766 32.7536 26.9008 32.7536 27.6802Z" fill="black"/>
</svg>
