<svg width="39" height="35" viewBox="0 0 39 35" fill="none" xmlns="http://www.w3.org/2000/svg">
<rect x="4" y="3" width="31" height="29" fill="white"/>
<path d="M0.374023 2.57516C0.374023 1.19682 1.60533 0.0791016 3.12424 0.0791016H35.0722C36.5912 0.0791016 37.8225 1.19682 37.8225 2.57516V32.4247C37.8225 33.8037 36.5912 34.9207 35.0722 34.9207H3.12424C1.60533 34.9207 0.374023 33.8037 0.374023 32.4247V2.57516ZM11.9441 29.245V13.5119H6.32383V29.245H11.9441ZM9.13396 11.3643C11.094 11.3643 12.3141 10.156 12.3141 8.64666C12.2766 7.10248 11.0933 5.92762 9.17066 5.92762C7.24806 5.92762 5.99129 7.10317 5.99129 8.64596C5.99129 10.156 7.21061 11.3636 9.09726 11.3636L9.13396 11.3643ZM20.6231 29.245V20.4594C20.6231 19.989 20.6591 19.5186 20.8074 19.1835C21.2141 18.2434 22.1391 17.2707 23.6917 17.2707C25.7259 17.2707 26.5392 18.7131 26.5392 20.8287V29.245H32.1588V20.2245C32.1588 15.3927 29.3861 13.144 25.6877 13.144C22.7068 13.144 21.3699 14.6687 20.6231 15.7404V15.7948H20.5857L20.6231 15.7404V13.5126H15.0014C15.0755 14.9892 15.0014 29.2457 15.0014 29.2457H20.6224L20.6231 29.245Z" fill="#0A66C2"/>
</svg>
