<svg width="60" height="60" viewBox="0 0 60 60" fill="none" xmlns="http://www.w3.org/2000/svg">
<rect width="60" height="60" rx="10" fill="#F9F9F9"/>
<path d="M34.2501 46.0177C33.6585 46.0185 33.0772 45.8635 32.5646 45.5683L28.1892 43.0435C27.8397 42.8418 27.7198 42.3949 27.9215 42.0454C28.1232 41.6958 28.57 41.5759 28.9196 41.7776L33.295 44.3024C33.8862 44.6429 34.614 44.6429 35.2052 44.3024L46.5842 37.7323C47.1744 37.3904 47.5381 36.7605 47.5394 36.0784V22.9401C47.5381 22.2581 47.1744 21.6282 46.5842 21.2862L35.2052 14.7144C34.6139 14.3743 33.8863 14.3743 33.295 14.7144L21.9159 21.2845C21.3258 21.6264 20.962 22.2563 20.9608 22.9384V27.4436C20.9608 27.847 20.6338 28.174 20.2304 28.174C19.827 28.174 19.5 27.847 19.5 27.4436V22.9401C19.502 21.7362 20.144 20.6241 21.1855 20.0203L32.5646 13.4503C33.608 12.8499 34.8921 12.8499 35.9356 13.4503L47.3146 20.0203C48.3562 20.6241 48.9981 21.7362 49.0002 22.9401V36.0784C48.9985 37.2824 48.3564 38.3947 47.3146 38.9982L35.9374 45.5683C35.4242 45.8638 34.8422 46.0188 34.2501 46.0177Z" fill="black"/>
<path d="M34.2502 30.2405C34.122 30.2403 33.9961 30.2064 33.885 30.1422L20.5922 22.4678C20.2427 22.2661 20.1228 21.8192 20.3245 21.4697C20.5262 21.1201 20.9731 21.0002 21.3226 21.2019L34.2502 28.6656L47.0936 21.2511C47.3197 21.1206 47.5983 21.1207 47.8243 21.2513C48.0504 21.3819 48.1896 21.6232 48.1895 21.8842C48.1894 22.1453 48.0501 22.3865 47.824 22.517L34.6154 30.1422C34.5044 30.2064 34.3785 30.2403 34.2502 30.2405Z" fill="black"/>
<path d="M34.2499 45.5836C33.8465 45.5836 33.5195 45.2566 33.5195 44.8532V29.5097C33.5195 29.1063 33.8465 28.7793 34.2499 28.7793C34.6533 28.7793 34.9803 29.1063 34.9803 29.5097V44.8532C34.9803 45.2566 34.6533 45.5836 34.2499 45.5836Z" fill="black"/>
<path d="M40.0444 33.6536C39.641 33.6536 39.314 33.3266 39.314 32.9232V26.6763L25.6595 18.7929C25.4334 18.6625 25.294 18.4213 25.2939 18.1602C25.2939 17.8991 25.4331 17.6578 25.6591 17.5272C25.8852 17.3966 26.1638 17.3966 26.3899 17.527L40.4096 25.6211C40.6354 25.7514 40.7746 25.9923 40.7748 26.2531V31.6398L43.3663 30.0965L43.131 24.4517L29.4589 16.5508C29.1094 16.3491 28.9895 15.9023 29.1912 15.5527C29.3929 15.2031 29.8398 15.0832 30.1893 15.2849L44.209 23.379C44.4259 23.5039 44.5637 23.7311 44.5742 23.9812L44.8411 30.4704C44.8531 30.7376 44.7184 30.99 44.4899 31.1288L40.4219 33.5518C40.3076 33.6194 40.1771 33.6546 40.0444 33.6536Z" fill="black"/>
<path d="M20.9624 47.1412C16.9337 47.1426 13.3011 44.7166 11.7589 40.9948C10.2166 37.273 11.0688 32.9886 13.9177 30.1401C16.7667 27.2917 21.0512 26.4403 24.7728 27.9832C28.4943 29.526 30.9197 33.1591 30.9176 37.1878C30.9079 42.6816 26.4562 47.1325 20.9624 47.1412ZM20.9624 28.683C16.2682 28.68 12.4605 32.4831 12.4576 37.1773C12.4547 41.8715 16.2577 45.6792 20.9519 45.6822C25.6461 45.6851 29.4539 41.882 29.4568 37.1878C29.4548 32.4956 25.6546 28.6907 20.9624 28.683Z" fill="black"/>
<path d="M25.0236 38.8398H20.2304C19.827 38.8398 19.5 38.5128 19.5 38.1094V32.3769C19.5 31.9735 19.827 31.6465 20.2304 31.6465C20.6338 31.6465 20.9608 31.9735 20.9608 32.3769V37.3808H25.0236C25.2845 37.3808 25.5257 37.52 25.6561 37.746C25.7866 37.972 25.7866 38.2504 25.6561 38.4764C25.5257 38.7023 25.2845 38.8416 25.0236 38.8416V38.8398Z" fill="black"/>
</svg>
