<svg width="254" height="33" viewBox="0 0 254 33" fill="none" xmlns="http://www.w3.org/2000/svg">
<path d="M245.166 22.5026C243.537 22.5026 243.227 22.0112 243.227 21.5327C243.227 20.8731 244.39 19.942 246.279 19.3471C246.486 19.2824 246.68 19.2048 246.705 19.179V19.166C246.705 19.1402 246.486 19.0108 246.188 18.8944C244.804 18.3383 244.429 17.9762 244.429 17.3555C244.429 15.8424 247.145 13.6826 249.007 13.6826C249.926 13.6826 250.663 14.2258 250.663 14.8465C250.663 15.1569 250.456 15.4673 250.197 15.4673C250.055 15.4673 249.939 15.3768 249.576 15.3768C248.762 15.3768 246.175 17.64 246.175 17.8469V17.8598C246.188 17.8728 247.145 18.2219 248.063 18.8168C249.99 18.4159 252.072 18.1573 252.874 18.1573C253.042 18.1573 253.107 18.1832 253.146 18.2219C253.185 18.2607 253.198 18.2737 253.198 18.2995C253.198 18.403 248.387 18.9074 248.387 19.2048C248.387 19.4893 248.619 19.3341 248.619 20.1618C248.619 21.1059 247.598 22.5026 245.166 22.5026ZM244.365 21.7396C245.322 21.7396 246.511 21.1835 246.925 20.3688C247.003 20.2136 247.055 19.9032 247.055 19.7092C247.055 19.6316 247.042 19.5799 247.029 19.554H247.003C246.628 19.554 244.235 20.5498 243.873 21.2611C243.809 21.3904 243.77 21.4422 243.77 21.4939C243.783 21.5844 243.925 21.7396 244.365 21.7396Z" fill="#FFC65B"/>
<path d="M239.67 22.5026C239.295 22.5026 238.855 22.4768 238.674 22.4121C237.562 22.0629 236.773 21.2094 236.54 20.136C236.514 19.9937 236.501 19.7609 236.501 19.5023C236.501 18.5453 236.592 18.6229 236.592 18.4677C236.592 18.4547 236.592 18.4418 236.579 18.4418C236.514 18.4418 236.256 18.6875 235.777 19.179C234.135 20.8343 232.557 22.0241 231.212 22.0241C229.608 22.0241 228.975 20.8343 228.975 19.4376C228.975 17.1874 231.315 14.769 233.902 14.2775C234.303 14.1999 234.691 14.1611 235.053 14.1611C236.592 14.1611 237.239 14.6396 238.157 15.6354C238.894 14.9242 239.308 14.5103 239.928 14.5103C240.329 14.5103 240.782 14.8207 240.782 15.1569C240.782 15.3639 240.614 15.6613 240.032 16.5537C239.036 18.0926 238.532 19.36 238.532 20.2653C238.532 21.1835 239.062 21.7396 239.993 21.7396C241.299 21.7396 243.226 20.9895 245.645 19.0755C246.11 18.7134 246.511 18.403 246.55 18.403C246.589 18.403 246.653 18.4547 246.705 18.5065L246.718 18.5323C246.718 18.791 244.726 20.4722 243.524 21.1964C242.075 22.0759 240.834 22.5026 239.67 22.5026ZM231.38 21.3258C232.208 21.3258 233.604 20.4852 235.557 18.6746C236.669 17.6529 236.98 17.3037 237.433 16.6054L237.73 16.1398C236.98 15.7906 236.385 15.4932 235.609 15.4932C233.76 15.4932 231.923 16.8252 230.902 18.9333C230.617 19.5281 230.604 19.5799 230.604 20.2394V20.9249C230.863 21.1577 231.005 21.3258 231.38 21.3258Z" fill="#FFC65B"/>
<path d="M213.739 22.5026C213.455 22.5026 213.17 22.4638 213.054 22.3991C212.472 22.0887 212.188 21.5456 212.188 20.8343C212.188 18.972 214.541 15.6225 216.119 15.6225C216.636 15.6225 217.115 15.9846 217.115 16.3725C217.115 16.8252 215.33 18.8944 214.593 20.2652C214.347 20.7567 214.089 21.4162 214.089 21.5585C214.089 21.5844 214.089 21.5973 214.114 21.5973C214.296 21.5973 215.188 21.0929 215.653 20.7567C216.494 20.1101 217.865 18.778 218.175 18.2866C218.55 17.7046 218.796 17.4977 219.145 17.4977C219.533 17.4977 219.831 17.821 219.831 18.1702C219.831 18.7133 219.404 19.6962 219.404 20.6015C219.404 21.0283 219.494 21.1188 219.831 21.1188C221.37 21.1188 224.124 17.7822 224.124 17.0709C224.124 17.0192 224.111 16.9933 224.085 16.9545C223.827 16.6053 223.542 15.894 223.542 15.4931C223.542 14.8724 223.814 14.5103 224.318 14.5103C224.939 14.5103 225.353 14.9758 225.353 15.8552C225.353 16.3467 225.236 16.7088 225.094 17.252C226.025 18.0279 226.853 18.5064 228.521 18.5064C229.608 18.5064 230.629 18.1572 230.914 18.1572H230.953C230.991 18.1702 231.017 18.196 231.017 18.2219C231.017 18.4806 229.207 18.8815 228.107 18.8815C226.62 18.8815 226.129 18.5323 224.848 17.7693C223.516 20.4463 221.615 22.3215 219.65 22.3215C218.744 22.3215 217.645 21.856 217.555 20.4463C217.529 20.1618 217.516 19.929 217.503 19.929C217.503 19.929 217.167 20.2523 216.779 20.6403C215.421 21.9594 214.541 22.5026 213.739 22.5026ZM224.448 16.3855C224.473 16.3855 224.512 16.1786 224.564 15.9328C224.59 15.7518 224.603 15.6225 224.603 15.519C224.603 15.2086 224.486 15.0017 224.37 15.0017C224.267 15.0017 224.163 15.2086 224.163 15.5061C224.163 15.8423 224.37 16.3855 224.448 16.3855Z" fill="#FFC65B"/>
<path d="M205.774 22.5026C204.144 22.5026 203.834 22.0112 203.834 21.5327C203.834 20.8731 204.998 19.942 206.886 19.3471C207.093 19.2824 207.287 19.2048 207.313 19.179V19.166C207.313 19.1402 207.093 19.0108 206.796 18.8944C205.412 18.3383 205.037 17.9762 205.037 17.3555C205.037 15.8424 207.753 13.6826 209.615 13.6826C210.533 13.6826 211.27 14.2258 211.27 14.8465C211.27 15.1569 211.063 15.4673 210.805 15.4673C210.662 15.4673 210.546 15.3768 210.184 15.3768C209.369 15.3768 206.783 17.64 206.783 17.8469V17.8598C206.796 17.8728 207.753 18.2219 208.671 18.8168C210.598 18.4159 212.68 18.1573 213.482 18.1573C213.65 18.1573 213.714 18.1832 213.753 18.2219C213.792 18.2607 213.805 18.2737 213.805 18.2995C213.805 18.403 208.994 18.9074 208.994 19.2048C208.994 19.4893 209.227 19.3341 209.227 20.1618C209.227 21.1059 208.205 22.5026 205.774 22.5026ZM204.972 21.7396C205.929 21.7396 207.119 21.1835 207.533 20.3688C207.61 20.2136 207.662 19.9032 207.662 19.7092C207.662 19.6316 207.649 19.5799 207.636 19.554H207.61C207.235 19.554 204.843 20.5498 204.481 21.2611C204.416 21.3904 204.377 21.4422 204.377 21.4939C204.39 21.5844 204.532 21.7396 204.972 21.7396Z" fill="#FFC65B"/>
<path d="M201.26 22.5025C200.975 22.5025 200.704 22.4637 200.432 22.3732C199.785 22.1663 199.294 21.7395 198.996 21.1187C198.828 20.7825 198.815 20.6661 198.815 19.9419C198.815 17.4847 200.872 15.0145 201.816 15.0145C202.217 15.0145 202.605 15.2344 202.605 15.5448C202.605 15.7517 202.501 15.9586 201.945 16.7992C200.742 18.6357 200.393 19.8125 200.393 20.7566C200.393 21.4291 200.678 21.8688 201.557 21.8688C203.704 21.8688 207.079 18.0278 207.467 18.0278C207.519 18.0278 207.545 18.0796 207.545 18.1572C207.545 18.2736 205.592 20.1876 204.907 20.7437C203.445 21.9335 202.281 22.5025 201.26 22.5025ZM203.316 13.8894C203.135 13.8894 202.915 13.8377 202.825 13.786C202.721 13.7084 202.656 13.592 202.656 13.4497C202.656 12.8289 203.665 11.6133 204.247 11.6133C204.57 11.6133 204.945 11.8202 204.945 12.1306C204.945 12.6091 203.963 13.8894 203.316 13.8894Z" fill="#FFC65B"/>
<path d="M183.801 32.4349C183.426 32.4349 183.089 32.4219 182.779 32.3961C179.947 32.1245 177.309 31.4003 175.123 30.2881C172.937 29.15 171.347 27.5334 171.347 27.042C171.347 26.9256 171.45 26.8868 171.567 26.8868C171.683 26.8868 171.748 26.9256 171.812 27.0678C171.955 27.3394 172.963 28.2706 173.493 28.6198C175.175 29.7449 179.016 31.0511 182.65 31.0511C189.465 31.0511 193.487 27.1842 193.487 24.5977C193.487 22.4251 191.108 20.4593 186.077 19.179C185.016 18.9203 184.538 18.8169 183.982 18.8169C183.348 18.8169 183.258 18.8945 180.839 19.0238C177.541 24.2485 176.054 27.1713 176.054 28.1412C176.054 28.4516 176.429 28.2706 176.429 28.4646C176.429 28.5551 176.339 28.6844 175.951 28.6844C175.291 28.6844 174.929 27.9602 174.929 27.2877C174.929 25.8263 176.106 22.9553 178.11 19.7868C178.369 19.36 178.576 18.9979 178.576 18.9462C178.498 18.8686 177.528 18.7781 177.528 18.3513C177.528 18.0021 178.227 17.8987 179.339 17.8987C180.128 16.6183 183.232 12.2471 183.232 12.0143C183.232 11.885 182.96 11.9755 182.96 11.704C182.96 11.4324 183.646 10.7728 185.65 8.76826C186.258 8.84586 186.659 8.96225 186.659 9.47955C186.659 10.2814 184.396 13.6956 181.589 17.9245C182.068 17.8728 182.482 17.834 183.633 17.6141C191.703 16.114 198.583 12.0661 198.583 9.07864C198.583 6.90597 194.418 5.62565 188.922 5.62565C186.038 5.62565 182.883 5.98776 179.999 6.72492C176.985 7.50087 175.291 8.43202 175.291 9.11744C175.291 9.60888 175.86 9.69941 175.86 9.93219C175.86 10.0615 175.705 10.1908 175.511 10.1908C175.02 10.1908 174.295 9.50542 174.295 8.91052C174.295 6.84131 181.175 4.55225 188.896 4.55225C196.695 4.55225 200.38 6.60852 200.38 9.68647C200.38 9.98392 200.341 10.2038 200.277 10.4236C199.656 12.5834 196.953 14.9112 193.216 16.5149C190.746 17.5624 188.702 18.0668 185.805 18.5582C188.65 19.1531 189.879 19.554 191.017 20.1231C193.785 21.481 195.285 23.2915 195.285 25.2444C195.285 29.2405 189.582 32.4349 183.801 32.4349Z" fill="#FFC65B"/>
<path d="M156.59 22.5027C156.345 22.5027 156.112 22.4639 155.905 22.3992C155.672 22.3216 155.426 22.1535 155.168 21.8948C154.676 21.4034 154.521 21.0154 154.521 20.1619C154.521 18.6488 155.931 15.8295 155.931 15.6226C155.931 15.6096 155.918 15.5967 155.918 15.5838C155.905 15.5708 155.879 15.5708 155.853 15.5708C155.323 15.5708 153.978 16.1657 152.568 17.3038C150.603 18.8686 148.132 22.1018 147.68 22.1018C147.408 22.1018 147.085 21.9078 147.085 21.5457C147.085 20.524 148.068 18.7781 149.671 16.7089C150.37 15.8036 151.404 14.6785 151.741 14.4586C151.973 14.3034 152.232 14.2388 152.465 14.2388C152.969 14.2388 153.396 14.5233 153.396 14.9242C153.396 15.4544 151.663 17.3426 151.663 17.4331C151.689 17.4331 151.948 17.2391 152.232 17.0193C153.694 15.8553 155.375 15.0018 156.241 15.0018C156.965 15.0018 157.47 15.545 157.47 16.3338C157.47 17.5624 156.151 19.7998 156.151 21.106C156.151 21.4681 156.177 21.5586 156.332 21.7138C156.487 21.869 156.577 21.8948 156.94 21.8948C158.065 21.8948 159.526 21.093 161.66 19.3213C162.397 18.7005 162.824 18.4031 162.966 18.4031C163.005 18.4031 163.018 18.416 163.018 18.4548C163.018 18.5712 161.479 20.0714 160.25 20.9637C158.905 21.9595 157.586 22.5027 156.59 22.5027Z" fill="#FFC65B"/>
<path d="M142.908 22.5025C142.624 22.5025 142.352 22.4637 142.08 22.3732C141.434 22.1663 140.942 21.7395 140.645 21.1187C140.477 20.7825 140.464 20.6661 140.464 19.9419C140.464 17.4847 142.52 15.0145 143.464 15.0145C143.865 15.0145 144.253 15.2344 144.253 15.5448C144.253 15.7517 144.15 15.9586 143.594 16.7992C142.391 18.6357 142.042 19.8125 142.042 20.7566C142.042 21.4291 142.326 21.8688 143.206 21.8688C145.352 21.8688 148.728 18.0278 149.116 18.0278C149.167 18.0278 149.193 18.0796 149.193 18.1572C149.193 18.2736 147.241 20.1876 146.555 20.7437C145.094 21.9335 143.93 22.5025 142.908 22.5025ZM144.964 13.8894C144.783 13.8894 144.563 13.8377 144.473 13.786C144.37 13.7084 144.305 13.592 144.305 13.4497C144.305 12.8289 145.314 11.6133 145.896 11.6133C146.219 11.6133 146.594 11.8202 146.594 12.1306C146.594 12.6091 145.611 13.8894 144.964 13.8894Z" fill="#FFC65B"/>
<path d="M134.269 22.5026C133.894 22.5026 133.455 22.4768 133.274 22.4121C132.161 22.0629 131.373 21.2094 131.14 20.136C131.114 19.9937 131.101 19.7609 131.101 19.5023C131.101 18.5453 131.192 18.6229 131.192 18.4677C131.192 18.4547 131.192 18.4418 131.179 18.4418C131.114 18.4418 130.855 18.6875 130.377 19.179C128.734 20.8343 127.157 22.0241 125.812 22.0241C124.208 22.0241 123.574 20.8343 123.574 19.4376C123.574 17.1874 125.915 14.769 128.502 14.2775C128.902 14.1999 129.29 14.1611 129.653 14.1611C131.192 14.1611 131.838 14.6396 132.756 15.6354C133.493 14.9242 133.907 14.5103 134.528 14.5103C134.929 14.5103 135.382 14.8207 135.382 15.1569C135.382 15.3639 135.214 15.6613 134.632 16.5537C133.636 18.0926 133.131 19.36 133.131 20.2653C133.131 21.1835 133.662 21.7396 134.593 21.7396C135.899 21.7396 137.826 20.9895 140.244 19.0755C140.71 18.7134 141.111 18.403 141.15 18.403C141.188 18.403 141.253 18.4547 141.305 18.5065L141.318 18.5323C141.318 18.791 139.326 20.4722 138.123 21.1964C136.675 22.0759 135.433 22.5026 134.269 22.5026ZM125.98 21.3258C126.807 21.3258 128.204 20.4852 130.157 18.6746C131.269 17.6529 131.579 17.3037 132.032 16.6054L132.33 16.1398C131.579 15.7906 130.985 15.4932 130.209 15.4932C128.359 15.4932 126.523 16.8252 125.501 18.9333C125.217 19.5281 125.204 19.5799 125.204 20.2394V20.9249C125.462 21.1577 125.605 21.3258 125.98 21.3258Z" fill="#FFC65B"/>
<path d="M116.565 22.5026C114.935 22.5026 114.625 22.0112 114.625 21.5327C114.625 20.8731 115.789 19.942 117.677 19.3471C117.884 19.2824 118.078 19.2048 118.104 19.179V19.166C118.104 19.1402 117.884 19.0108 117.587 18.8944C116.203 18.3383 115.828 17.9762 115.828 17.3555C115.828 15.8424 118.544 13.6826 120.406 13.6826C121.324 13.6826 122.061 14.2258 122.061 14.8465C122.061 15.1569 121.854 15.4673 121.596 15.4673C121.453 15.4673 121.337 15.3768 120.975 15.3768C120.16 15.3768 117.574 17.64 117.574 17.8469V17.8598C117.587 17.8728 118.544 18.2219 119.462 18.8168C121.389 18.4159 123.471 18.1573 124.273 18.1573C124.441 18.1573 124.505 18.1832 124.544 18.2219C124.583 18.2607 124.596 18.2737 124.596 18.2995C124.596 18.403 119.785 18.9074 119.785 19.2048C119.785 19.4893 120.018 19.3341 120.018 20.1618C120.018 21.1059 118.996 22.5026 116.565 22.5026ZM115.763 21.7396C116.72 21.7396 117.91 21.1835 118.324 20.3688C118.401 20.2136 118.453 19.9032 118.453 19.7092C118.453 19.6316 118.44 19.5799 118.427 19.554H118.401C118.026 19.554 115.634 20.5498 115.272 21.2611C115.207 21.3904 115.168 21.4422 115.168 21.4939C115.181 21.5844 115.323 21.7396 115.763 21.7396Z" fill="#FFC65B"/>
<path d="M110.331 22.5026C108.702 22.5026 108.392 22.0112 108.392 21.5327C108.392 20.8731 109.556 19.942 111.444 19.3471C111.651 19.2824 111.845 19.2048 111.87 19.179V19.166C111.87 19.1402 111.651 19.0108 111.353 18.8944C109.969 18.3383 109.594 17.9762 109.594 17.3555C109.594 15.8424 112.31 13.6826 114.172 13.6826C115.091 13.6826 115.828 14.2258 115.828 14.8465C115.828 15.1569 115.621 15.4673 115.362 15.4673C115.22 15.4673 115.104 15.3768 114.741 15.3768C113.927 15.3768 111.34 17.64 111.34 17.8469V17.8598C111.353 17.8728 112.31 18.2219 113.228 18.8168C115.155 18.4159 117.237 18.1573 118.039 18.1573C118.207 18.1573 118.272 18.1832 118.311 18.2219C118.35 18.2607 118.363 18.2737 118.363 18.2995C118.363 18.403 113.552 18.9074 113.552 19.2048C113.552 19.4893 113.784 19.3341 113.784 20.1618C113.784 21.1059 112.763 22.5026 110.331 22.5026ZM109.53 21.7396C110.487 21.7396 111.676 21.1835 112.09 20.3688C112.168 20.2136 112.22 19.9032 112.22 19.7092C112.22 19.6316 112.207 19.5799 112.194 19.554H112.168C111.793 19.554 109.4 20.5498 109.038 21.2611C108.974 21.3904 108.935 21.4422 108.935 21.4939C108.948 21.5844 109.09 21.7396 109.53 21.7396Z" fill="#FFC65B"/>
<path d="M103.321 22.5026H103.127C102.804 22.5026 102.571 22.4767 102.429 22.425C101.511 22.0888 100.709 21.1835 100.709 20.2523C100.709 19.1013 101.006 17.8857 102.468 16.5019C103.308 15.713 104.214 15.2086 104.99 15.1052C105.623 15.0146 105.856 14.5361 106.697 14.5361C107.628 14.5361 108.456 15.2474 108.456 16.4372C108.456 16.9287 108.326 17.5624 108.042 18.4288L108.029 18.4676C108.029 18.597 108.365 18.6487 109.193 18.6487C109.956 18.6487 110.473 18.6487 111.521 18.4547C112.258 18.3254 112.581 18.2607 112.723 18.2607C112.827 18.2607 112.84 18.2995 112.84 18.3512C112.84 18.597 110.357 19.0884 109.115 19.0884C108.611 19.0884 108.262 19.0237 107.925 19.0237C107.641 19.0237 107.796 19.0237 107.305 19.748C106.27 21.3387 104.731 22.4509 103.321 22.5026ZM103.386 21.649C103.89 21.649 104.692 21.4421 105.688 20.5886C106.179 20.1747 107.072 19.0108 107.072 18.8039C107.072 18.7392 105.61 18.3383 105.003 17.252L104.796 16.8769C103.464 18.1573 102.61 19.5281 102.61 20.6403C102.61 21.2352 102.959 21.649 103.386 21.649ZM107.292 18.3512C107.33 18.3512 107.434 18.196 107.512 18.0021C107.706 17.5753 107.874 16.864 107.874 16.5019C107.874 15.6871 107.343 15.0793 106.748 15.0793C106.477 15.0793 106.167 15.2345 106.167 15.325C106.167 15.3767 106.27 15.4285 106.27 15.5578C106.27 15.9329 105.507 16.1656 105.507 16.5665C105.507 16.864 105.74 17.2908 106.05 17.6012C106.296 17.8469 107.124 18.3512 107.292 18.3512Z" fill="#FFC65B"/>
<path d="M87.324 32.4349C87.1558 32.4349 87.0136 32.3703 86.8972 32.228C86.7808 32.0858 86.7161 31.9306 86.7161 31.6848C86.7161 30.1717 89.1216 24.753 91.5658 20.4464C91.8762 19.8903 92.1219 19.4248 92.1219 19.386C92.0185 19.2825 87.9835 18.8816 83.5865 18.8816C82.8881 18.8816 82.8234 18.8945 82.0863 18.9075C81.1551 20.3042 79.7584 22.6191 77.5987 26.4213C77.8444 26.6799 77.8444 26.667 77.8444 26.7317C77.8444 26.861 77.6633 27.1196 77.0814 28.012C75.1156 31.077 74.7794 32.1504 74.1715 32.1504C73.8094 32.1504 73.5508 31.9694 73.5508 31.4133C73.5508 28.4646 79.461 19.1661 79.5256 18.9851C79.5256 18.9592 79.3446 18.9592 79.0601 18.9592C77.5211 18.9592 75.0898 19.0497 75.038 19.3989C75.0122 19.5282 74.9604 19.5929 74.8311 19.5929C74.5078 19.5929 73.9646 19.386 73.9646 18.9463C73.9646 18.3643 74.5983 17.8729 78.685 17.6918C79.7713 17.6401 80.3792 17.5883 80.4309 17.5237C80.4697 17.4849 81.0775 16.5279 81.7888 15.3898C84.8409 10.5272 87.8801 6.00077 88.2034 5.43173C88.475 4.96616 88.7853 4.77217 89.1475 4.77217C89.5872 4.77217 90.0786 5.12135 90.0786 5.54813C90.0786 6.58273 82.914 17.5366 82.914 17.6013C82.914 17.6013 83.8192 17.653 84.9056 17.6918C90.7123 17.8987 91.9668 18.416 92.6522 18.416C92.7686 18.416 92.8203 18.235 93.5704 16.9546C96.0276 12.7645 98.4977 9.10458 100.813 6.19475C102.261 4.39713 102.481 4.229 102.972 4.229C103.554 4.229 104.007 4.64285 104.007 5.03082C104.007 5.21188 103.904 5.38 103.658 5.61279C102.778 6.42754 98.8081 12.1567 95.6008 17.4073C95.0059 18.4031 94.8119 18.7135 94.8119 18.8169C94.8119 18.9204 95.4973 19.0756 95.8983 19.1791C98.0063 19.8127 98.6141 20.2913 98.6141 20.7956C98.6141 20.9637 98.4848 21.0155 98.3684 21.0155C98.2649 21.0155 98.1873 20.9508 98.1227 20.7827C97.9933 20.3818 94.6697 19.7093 94.2688 19.7093C94.23 19.7093 94.2041 19.7093 94.2041 19.7222C94.0618 19.8774 91.7469 23.9124 90.9192 25.4513C90.1562 26.8869 88.1258 30.9477 88.1258 31.0899H88.1387C88.2163 31.0899 88.462 30.508 88.7077 30.508C88.8112 30.508 88.9276 30.5726 88.9276 30.702C88.9276 31.1158 87.9706 32.4349 87.324 32.4349Z" fill="#FFC65B"/>
<path d="M59.1827 22.5026C57.8765 22.5026 57.2557 21.6361 57.01 21.0154C56.8807 20.6791 56.8548 20.4722 56.8548 19.942C56.8548 19.166 56.9841 18.7263 56.9841 18.6099V18.5711C56.9324 18.5711 56.2728 19.5023 55.3417 20.4334C54.0355 21.7396 53.2595 22.0888 52.4577 22.0888C51.2033 22.0888 50.5566 21.0412 50.5566 19.929C50.5566 18.7004 51.255 17.2003 52.5224 15.9329C53.9708 14.4844 54.9278 14.381 55.9754 14.381C57.1652 14.381 57.9541 15.2087 58.2515 15.5708C58.6524 14.8724 60.7604 10.8504 64.9506 4.56516C66.7482 1.86225 66.9293 1.75879 67.3948 1.75879C67.757 1.75879 68.0673 2.00451 68.0673 2.32782C68.0673 2.66407 66.8775 4.77208 64.8083 8.08281C60.8898 14.3551 58.4584 18.6099 58.4584 20.511C58.4584 21.2352 58.6395 21.8301 59.4542 21.8301C60.7087 21.8301 62.6874 20.5498 64.4204 18.972C64.9635 18.4677 65.2351 18.2737 65.3644 18.2737C65.3644 18.2737 65.455 18.2737 65.455 18.3254C65.455 18.3901 65.054 18.8039 64.5367 19.2824C62.7391 20.9766 60.9803 22.5026 59.1827 22.5026ZM52.6517 21.3904C53.4535 21.3904 54.8373 20.3041 56.5444 18.2737C57.4238 17.2261 57.7342 16.7735 57.7342 16.5795C57.7342 16.2821 56.441 15.9199 56.1694 15.9199C54.7985 15.9199 52.1344 18.791 52.1344 20.7179C52.1344 21.1706 52.3025 21.3904 52.6517 21.3904Z" fill="#FFC65B"/>
<path d="M45.3964 22.5025C45.1119 22.5025 44.8403 22.4637 44.5687 22.3732C43.9221 22.1663 43.4307 21.7395 43.1332 21.1187C42.9651 20.7825 42.9521 20.6661 42.9521 19.9419C42.9521 17.4847 45.0084 15.0145 45.9525 15.0145C46.3534 15.0145 46.7414 15.2344 46.7414 15.5448C46.7414 15.7517 46.6379 15.9586 46.0818 16.7992C44.8791 18.6357 44.5299 19.8125 44.5299 20.7566C44.5299 21.4291 44.8144 21.8688 45.6939 21.8688C47.8407 21.8688 51.2161 18.0278 51.604 18.0278C51.6558 18.0278 51.6816 18.0796 51.6816 18.1572C51.6816 18.2736 49.7288 20.1876 49.0434 20.7437C47.582 21.9335 46.4181 22.5025 45.3964 22.5025ZM47.4527 13.8894C47.2716 13.8894 47.0518 13.8377 46.9612 13.786C46.8578 13.7084 46.7931 13.592 46.7931 13.4497C46.7931 12.8289 47.8019 11.6133 48.3838 11.6133C48.7071 11.6133 49.0822 11.8202 49.0822 12.1306C49.0822 12.6091 48.0993 13.8894 47.4527 13.8894Z" fill="#FFC65B"/>
<path d="M34.5076 22.5156C32.8264 22.5156 32.1797 21.9078 31.8176 20.718C31.1839 21.7267 30.7313 22.1794 30.3433 22.1794C30.1364 22.1794 29.9941 22.05 29.9941 21.7914C29.9941 20.8732 31.6236 17.8211 34.5335 13.0231C36.0466 10.5271 39.2409 5.48341 40.2497 3.9703C41.3619 2.28906 42.9526 0.193989 43.1595 0.090528C43.3018 0.0258651 43.444 0 43.5992 0C44.0648 0 44.5821 0.297449 44.5821 0.750089C44.5821 0.982875 44.1812 1.64244 42.3189 4.46174C42.3189 4.46174 34.0162 17.0839 34.0162 17.2908C34.042 17.2908 34.4171 16.9546 34.8956 16.489C36.6544 14.7819 37.9218 13.9284 39.2539 13.9284C40.6118 13.9284 41.2455 14.7561 41.4653 15.6484C41.4912 15.7907 41.5171 16.0364 41.5171 16.2821C41.5171 17.2003 41.4265 17.0969 41.4265 17.2262C41.4265 17.2908 41.5817 17.3296 42.1637 17.3943C43.9613 17.5883 44.4269 17.7952 44.4269 17.9633C44.4269 18.028 44.3752 18.0797 44.2976 18.0797C44.2458 18.0797 44.2329 18.0151 41.2455 17.7305C40.2109 20.4205 37.1458 22.5156 34.5076 22.5156ZM33.9256 21.4939C35.0896 21.4939 36.4863 20.8473 37.7407 19.5928C38.3744 18.9591 39.1633 17.9375 39.1633 17.7564C39.1633 17.7176 39.0599 17.7047 38.8917 17.7047C38.3227 17.7047 37.0165 17.8728 36.1888 18.0668C34.1067 18.5582 32.697 19.6187 32.697 20.5757C32.697 21.0542 33.0204 21.4939 33.9256 21.4939ZM33.9515 18.222C34.5464 17.9245 36.0207 17.265 39.4349 17.265L39.5384 17.0193C39.6936 16.6442 39.8358 15.9588 39.8358 15.6096C39.8358 14.7819 39.1892 14.6914 38.9823 14.6914C38.1675 14.6914 37.0553 15.157 35.3353 16.7477C34.6369 17.3814 33.9256 18.1315 33.9256 18.222H33.9515Z" fill="#FFC65B"/>
<path d="M26.7478 32.435C24.6139 32.435 23.3078 30.7926 22.7387 29.2924C22.2732 28.0767 22.0533 26.874 22.0533 25.3221C22.0533 22.464 22.7775 19.7611 22.7775 19.4507V19.4378C22.5965 19.2567 18.4839 18.9593 15.393 18.8429C11.9142 23.0848 10.8408 24.3522 8.47411 26.7576C4.1805 31.1288 2.9131 31.6591 1.43879 31.6591C0.727501 31.6591 0.197266 31.4392 0.197266 31.0383C0.197266 30.7667 0.326591 30.715 1.10255 30.6891C2.34407 30.6245 2.93897 30.2365 5.86173 27.5336C8.06027 25.5032 10.4011 22.8391 13.6989 18.9076C13.3626 18.8946 13.2592 18.8817 12.897 18.8817C11.6814 18.8817 9.31472 19.1403 7.98267 19.4249C6.61182 19.7223 5.33149 20.2267 5.33149 20.6017C5.33149 20.8216 5.74534 21.0026 5.74534 21.0932C5.74534 21.1449 5.60308 21.2096 5.48668 21.2096C5.02111 21.2096 4.46501 20.7181 4.46501 20.2138C4.46501 18.8688 8.24132 17.7436 12.9488 17.6402L14.7464 17.5884C22.0145 8.57444 25.6744 4.41016 27.7436 4.41016C28.3903 4.41016 28.9981 4.7852 28.9981 5.79394C28.9981 6.90614 28.9464 7.35878 26.8513 13.5147C26.2305 15.364 25.2476 18.5972 25.2476 18.817C25.2476 18.9852 27.0065 19.4378 28.0023 20.2525C28.5842 20.7181 29.024 21.4165 29.024 21.7527C29.024 21.8691 28.9722 21.9338 28.8558 21.9338C28.6618 21.9338 28.6101 21.119 26.8901 20.4336C26.321 20.2008 25.17 19.8646 25.0019 19.8646C24.9502 19.8646 24.8985 20.2138 24.7562 20.8216C24.2906 22.9943 24.0708 24.6367 24.0708 26.1886C24.0708 28.607 24.4717 29.9778 25.4934 30.9995C26.0107 31.5168 26.2822 31.6332 27.0194 31.6332C27.6014 31.6332 27.6919 31.6203 28.1833 31.3746C29.9422 30.5598 31.326 28.6846 33.2788 25.2445C33.7055 24.4944 33.8349 24.3134 33.9383 24.3134H33.9642C34.0547 24.3263 34.1065 24.3651 34.1065 24.4556C34.1065 24.6367 33.0072 26.7964 32.1148 28.2061C30.6405 30.5986 29.2955 31.866 27.7566 32.3186C27.4979 32.3962 27.1229 32.435 26.7478 32.435ZM23.0362 18.3644C23.062 18.3644 23.1138 18.2351 23.1655 18.0799C24.2648 13.9027 26.2176 9.54438 26.8513 7.59157C27.1487 6.69922 27.3815 5.80687 27.3815 5.57409C27.3815 5.52236 27.3557 5.50942 27.3298 5.50942C27.097 5.50942 26.0753 6.35004 24.9114 7.51397C22.5318 9.9065 21.0575 11.7817 16.4018 17.5755C17.3846 17.7436 20.0876 17.8083 23.0362 18.3644Z" fill="#FFC65B"/>
</svg>
