<svg width="60" height="60" viewBox="0 0 60 60" fill="none" xmlns="http://www.w3.org/2000/svg">
<rect width="60" height="60" rx="10" fill="#F9F9F9"/>
<path d="M29.6706 13.3457C28.3279 13.3457 27.2076 14.3424 27.0084 15.6318C21.2348 16.7239 16.7046 21.2428 15.601 27.015C14.3267 27.2279 13.3457 28.3431 13.3457 29.675C13.3457 31.0034 14.3217 32.113 15.5911 32.3294C16.6713 38.1373 21.2152 42.6932 27.0216 43.7852C27.2501 45.0401 28.3526 45.9998 29.6706 45.9998C30.9886 45.9998 32.0958 45.0401 32.3251 43.7852C38.1308 42.6931 42.6739 38.1377 43.7545 32.3305C45.0243 32.1145 45.9999 31.0037 45.9999 29.675C45.9999 28.3425 45.0185 27.2273 43.7435 27.015C42.6396 21.2431 38.1108 16.7238 32.3371 15.6318C32.1374 14.3424 31.0133 13.3457 29.6706 13.3457ZM29.6299 14.4728C29.6435 14.4725 29.6569 14.4728 29.6706 14.4728C30.54 14.4728 31.2349 15.162 31.2419 16.0299C31.2358 16.0714 31.2343 16.1134 31.2375 16.1552C31.1808 16.9759 30.5067 17.6144 29.6706 17.6144C28.8372 17.6144 28.1692 16.9788 28.1091 16.1618C28.1131 16.1152 28.1113 16.0683 28.1036 16.0222C28.1144 15.1716 28.7824 14.4939 29.6299 14.4728ZM27.0766 16.7666C27.3939 17.9015 28.4382 18.7404 29.6706 18.7404C30.903 18.7404 31.9506 17.9015 32.269 16.7666C37.4736 17.8089 41.5482 21.8691 42.6064 27.07C41.458 27.3792 40.6051 28.4329 40.6051 29.675C40.6051 30.9223 41.465 31.9778 42.6207 32.2811C41.5834 37.503 37.5055 41.5917 32.2866 42.6438C31.9904 41.4764 30.9261 40.6051 29.6706 40.6051C28.4151 40.6051 27.3554 41.4765 27.0601 42.6438C21.8406 41.592 17.7623 37.5033 16.7248 32.2811C17.8806 31.9778 18.7404 30.9223 18.7404 29.675C18.7404 28.4329 17.8876 27.3792 16.7391 27.07C17.7969 21.8684 21.8717 17.8091 27.0766 16.7666ZM29.6706 19.9456C25.9954 19.9456 22.7854 21.9588 21.0826 24.94C21.0768 24.9498 21.0713 24.9597 21.0661 24.9697C20.2526 26.4054 19.7884 28.0634 19.7884 29.8289C19.7884 35.2805 24.2173 39.7122 29.6706 39.7122C33.3557 39.7122 36.5758 37.6882 38.2762 34.6936C38.2765 34.6921 38.2769 34.6906 38.2773 34.6891C39.0918 33.2532 39.5583 31.5949 39.5583 29.8288C39.5583 28.0679 39.0951 26.4137 38.285 24.9806C38.2685 24.9426 38.2478 24.9064 38.2234 24.8729C36.5098 21.9285 33.3181 19.9456 29.6706 19.9456ZM29.6706 21.0727C30.0561 21.0727 30.4474 21.2454 30.8593 21.6456C31.2712 22.0458 31.6808 22.6669 32.0271 23.4622C32.1837 23.822 32.3279 24.2178 32.457 24.642H26.8897C27.0188 24.2178 27.1619 23.822 27.3185 23.4622C27.6647 22.6669 28.0744 22.0458 28.4863 21.6456C28.8982 21.2454 29.2851 21.0727 29.6706 21.0727ZM27.1833 21.429C26.8464 21.8792 26.5496 22.413 26.2882 23.0135C26.0715 23.5112 25.8804 24.0571 25.7164 24.642H22.6111C23.729 23.1214 25.3263 21.9762 27.1833 21.429ZM32.1645 21.4311C34.0194 21.9791 35.6159 23.123 36.7334 24.642H33.6303C33.4662 24.057 33.2752 23.5111 33.0585 23.0134C32.7975 22.4139 32.5007 21.8809 32.1645 21.4311ZM21.9084 25.768H25.4448C25.2252 26.8451 25.0921 28.0231 25.061 29.2636H20.9331C21.0128 28.0076 21.3559 26.824 21.9084 25.768ZM26.5972 25.768H32.7484C32.9787 26.8247 33.1237 28.0087 33.1575 29.2636H26.1881C26.2219 28.0088 26.3669 26.8247 26.5972 25.768ZM33.9008 25.768H37.4372C37.9901 26.824 38.3327 28.0076 38.4125 29.2636H34.2846C34.2535 28.0231 34.1204 26.8451 33.9008 25.768ZM16.0024 28.1047C16.0159 28.1043 16.0294 28.1047 16.0431 28.1047C16.9171 28.1047 17.6144 28.8011 17.6144 29.6749C17.6144 30.5487 16.9171 31.2419 16.0431 31.2419C15.169 31.2419 14.4728 30.5487 14.4728 29.6749C14.4728 28.8147 15.1476 28.126 16.0024 28.1047ZM43.2618 28.1047C43.2754 28.1043 43.2889 28.1047 43.3025 28.1047C44.1766 28.1047 44.8738 28.8011 44.8738 29.6749C44.8738 30.5487 44.1766 31.2419 43.3025 31.2419C42.4285 31.2419 41.7312 30.5487 41.7312 29.6749C41.7312 28.8269 42.389 28.1453 43.2266 28.1058C43.2384 28.1058 43.2501 28.1054 43.2618 28.1047ZM20.9319 30.3897H25.061C25.0919 31.6307 25.2253 32.8086 25.4448 33.8854H21.9062C21.3544 32.8291 21.011 31.6458 20.9319 30.3897ZM26.1881 30.3897H33.1575C33.1239 31.6453 32.9788 32.8289 32.7484 33.8854H26.5972C26.3668 32.8289 26.2217 31.6453 26.1881 30.3897ZM34.2846 30.3897H38.4136C38.3345 31.6457 37.9916 32.8292 37.4394 33.8854H33.9019C34.1214 32.8086 34.2537 31.6306 34.2846 30.3897ZM22.6078 35.0114H25.7164C25.8805 35.5961 26.0714 36.1432 26.2882 36.641C26.5507 37.2441 26.8491 37.7786 27.1876 38.23C25.327 37.6827 23.7267 36.5355 22.6078 35.0114ZM26.8897 35.0114H32.457C32.3278 35.4357 32.1838 35.8312 32.0271 36.1913C31.6808 36.9865 31.2712 37.6121 30.8593 38.0123C30.4474 38.4124 30.0561 38.5863 29.6706 38.5863C29.2851 38.5863 28.8982 38.4124 28.4863 38.0123C28.0744 37.6121 27.6647 36.9865 27.3185 36.1913C27.1617 35.8312 27.0189 35.4357 26.8897 35.0114ZM33.6303 35.0114H36.7367C35.6182 36.5338 34.0186 37.6798 32.1601 38.2278C32.4981 37.7768 32.7963 37.2432 33.0585 36.641C33.2752 36.1432 33.4662 35.5961 33.6303 35.0114ZM29.6299 41.7322C29.6435 41.7319 29.6569 41.7322 29.6706 41.7322C30.5444 41.7322 31.2419 42.4284 31.2419 43.3025C31.2419 44.1765 30.5444 44.8738 29.6706 44.8738C28.7968 44.8738 28.1036 44.1765 28.1036 43.3025C28.1036 42.4421 28.7754 41.7536 29.6299 41.7322Z" fill="black"/>
</svg>
