<svg width="60" height="60" viewBox="0 0 60 60" fill="none" xmlns="http://www.w3.org/2000/svg">
<rect width="60" height="60" rx="10" fill="#F9F9F9"/>
<path fill-rule="evenodd" clip-rule="evenodd" d="M28.3158 30.5692C26.8657 29.11 24.8627 28.2076 22.6499 28.2076C20.4371 28.2076 18.4342 29.11 16.9845 30.5692C15.5345 32.0284 14.6377 34.0439 14.6377 36.2706C14.6377 38.4973 15.5345 40.5129 16.9845 41.9721C18.4346 43.4312 20.4376 44.3336 22.6499 44.3336C24.8623 44.3336 26.8657 43.4312 28.3158 41.9721C29.7659 40.5129 30.6626 38.4973 30.6626 36.2706C30.6626 34.0439 29.7659 32.0284 28.3158 30.5692ZM22.6499 26.9978C25.1943 26.9978 27.4984 28.0355 29.1658 29.7138C30.8332 31.3917 31.8649 33.7103 31.8649 36.2706C31.8649 38.831 30.8337 41.1495 29.1658 42.8274C27.4984 44.5053 25.1947 45.5435 22.6499 45.5435C20.1051 45.5435 17.8015 44.5053 16.1341 42.8274C14.4666 41.1495 13.435 38.8314 13.435 36.2706C13.435 33.7099 14.4662 31.3917 16.1341 29.7138C17.8015 28.0359 20.1051 26.9978 22.6499 26.9978ZM23.2513 41.8048C23.2513 42.1389 22.9819 42.4099 22.6499 42.4099C22.3179 42.4099 22.0486 42.1389 22.0486 41.8048V41.2174C21.5191 41.1003 21.046 40.8323 20.6761 40.4601C20.1708 39.9516 19.8587 39.2493 19.8587 38.4738C19.8587 38.1398 20.1281 37.8687 20.46 37.8687C20.792 37.8687 21.0614 38.1398 21.0614 38.4738C21.0614 38.9153 21.2391 39.315 21.5266 39.6043C21.7889 39.8682 22.1429 40.0404 22.5366 40.0683C22.5732 40.0612 22.6111 40.0577 22.6499 40.0577C22.6887 40.0577 22.7267 40.0612 22.7632 40.0683C23.157 40.0404 23.511 39.8682 23.7733 39.6043C24.0608 39.315 24.2385 38.9153 24.2385 38.4738C24.2385 38.0621 24.0762 37.7134 23.8139 37.4494C23.5105 37.1442 23.0776 36.9428 22.5979 36.8718C22.5816 36.8705 22.5653 36.8682 22.549 36.8656C21.7699 36.7289 21.0932 36.4117 20.613 35.9286C20.1382 35.4508 19.8587 34.8252 19.8587 34.0661C19.8587 33.2906 20.1713 32.5883 20.6761 32.0799C21.046 31.7076 21.5191 31.4397 22.0486 31.3225V30.7351C22.0486 30.4011 22.3179 30.13 22.6499 30.13C22.9819 30.13 23.2513 30.4011 23.2513 30.7351V31.3225C23.7808 31.4397 24.2539 31.7076 24.6238 32.0799C25.129 32.5883 25.4412 33.2906 25.4412 34.0661C25.4412 34.4002 25.1718 34.6713 24.8398 34.6713C24.5078 34.6713 24.2385 34.4002 24.2385 34.0661C24.2385 33.6247 24.0608 33.2249 23.7733 32.9357C23.511 32.6717 23.157 32.4996 22.7632 32.4716C22.7267 32.4787 22.6887 32.4823 22.6499 32.4823C22.6111 32.4823 22.5732 32.4787 22.5366 32.4716C22.1429 32.4996 21.7893 32.6717 21.5266 32.9357C21.2391 33.2249 21.0614 33.6247 21.0614 34.0661C21.0614 34.4805 21.2104 34.8181 21.4635 35.0732C21.7655 35.3771 22.2161 35.5807 22.7513 35.6744L22.7659 35.677C23.5026 35.7848 24.1789 36.1047 24.6648 36.5941C25.1449 37.0772 25.4416 37.7165 25.4416 38.4738C25.4416 39.2493 25.129 39.9516 24.6242 40.4601C24.2543 40.8323 23.7813 41.1003 23.2517 41.2174L23.2513 41.8048ZM38.1101 16.7209C37.9739 16.5839 37.7856 16.4991 37.5775 16.4991C37.3694 16.4991 37.1811 16.5839 37.0449 16.7209C36.9087 16.858 36.8245 17.0475 36.8245 17.2569C36.8245 17.4663 36.9087 17.6557 37.0449 17.7928C37.1811 17.9299 37.3694 18.0146 37.5775 18.0146C37.7856 18.0146 37.9739 17.9299 38.1101 17.7928C38.2463 17.6557 38.3305 17.4663 38.3305 17.2569C38.3305 17.0475 38.2463 16.858 38.1101 16.7209ZM37.5775 15.2888C38.1176 15.2888 38.6065 15.5093 38.9606 15.8651C39.3146 16.2214 39.5333 16.7134 39.5333 17.2569C39.5333 17.8004 39.3142 18.2924 38.9606 18.6486C38.6065 19.0049 38.1176 19.2249 37.5775 19.2249C37.0374 19.2249 36.5485 19.0044 36.1944 18.6486C35.8404 18.2924 35.6217 17.8004 35.6217 17.2569C35.6217 16.7134 35.8408 16.2214 36.1944 15.8651C36.5485 15.5089 37.0374 15.2888 37.5775 15.2888ZM43.2134 22.0608C43.0771 21.9237 42.8889 21.839 42.6808 21.839C42.4727 21.839 42.2844 21.9237 42.1482 22.0608C42.0119 22.1979 41.9277 22.3873 41.9277 22.5967C41.9277 22.8061 42.0119 22.9956 42.1482 23.1327C42.2844 23.2697 42.4727 23.3545 42.6808 23.3545C42.8889 23.3545 43.0771 23.2697 43.2134 23.1327C43.3496 22.9956 43.4338 22.8061 43.4338 22.5967C43.4338 22.3873 43.3496 22.1979 43.2134 22.0608ZM42.6808 20.6287C43.2209 20.6287 43.7098 20.8492 44.0638 21.205C44.4179 21.5612 44.6365 22.0532 44.6365 22.5967C44.6365 23.1402 44.4174 23.6322 44.0638 23.9885C43.7098 24.3447 43.2209 24.5648 42.6808 24.5648C42.1407 24.5648 41.6517 24.3443 41.2977 23.9885C40.9437 23.6322 40.725 23.1402 40.725 22.5967C40.725 22.0532 40.9441 21.5612 41.2977 21.205C41.6517 20.8487 42.1407 20.6287 42.6808 20.6287ZM38.2066 24.3882C38.0382 24.6752 37.6701 24.7706 37.3848 24.6007C37.0996 24.4312 37.0048 24.0608 37.1736 23.7737L42.0521 15.4654C42.2205 15.1783 42.5886 15.083 42.8739 15.2529C43.1591 15.4224 43.2539 15.7928 43.0851 16.0799L38.2066 24.3882ZM45.5518 14.4703C46.9397 15.8669 47.7977 17.7959 47.7977 19.9268C47.7977 22.0577 46.9393 23.9871 45.5518 25.3833C44.1639 26.7799 42.2469 27.6433 40.1293 27.6433C38.0118 27.6433 36.0944 26.7795 34.7069 25.3833C33.319 23.9867 32.461 22.0577 32.461 19.9268C32.461 17.7959 33.3194 15.8665 34.7069 14.4703C36.0948 13.0736 38.0118 12.2103 40.1293 12.2103C42.2469 12.2103 44.1644 13.0741 45.5518 14.4703ZM40.1293 11C37.6798 11 35.4621 11.9991 33.8564 13.6145C32.2511 15.2298 31.2583 17.4614 31.2583 19.9264C31.2583 22.3913 32.2511 24.6229 33.8564 26.2387C35.4617 27.8545 37.6793 28.8532 40.1293 28.8532C42.5794 28.8532 44.7966 27.854 46.4019 26.2387C48.0071 24.6233 49 22.3917 49 19.9264C49 17.461 48.0071 15.2298 46.4019 13.6145C44.7966 11.9991 42.5789 11 40.1293 11ZM30.7459 28.1238C32.8177 30.2085 34.0989 33.0887 34.0989 36.2697C34.0989 39.4508 32.8177 42.331 30.7459 44.4157C28.6742 46.5004 25.812 47.7897 22.6508 47.7897C19.4897 47.7897 16.6274 46.5004 14.5557 44.4157C12.484 42.331 11.2027 39.4508 11.2027 36.2697C11.2027 33.0887 12.484 30.2085 14.5557 28.1238C16.6274 26.039 19.4897 24.7498 22.6508 24.7498C25.812 24.7498 28.6742 26.039 30.7459 28.1238ZM22.6508 23.5395C26.144 23.5395 29.3069 24.9645 31.5964 27.268C33.8859 29.5719 35.3016 32.7542 35.3016 36.2697C35.3016 39.7853 33.8855 42.9676 31.5964 45.2715C29.3069 47.5754 26.1444 49 22.6508 49C19.1572 49 15.9947 47.575 13.7052 45.2715C11.4157 42.9676 10 39.7853 10 36.2697C10 32.7542 11.4161 29.5719 13.7052 27.268C15.9947 24.9641 19.1572 23.5395 22.6508 23.5395Z" fill="black"/>
</svg>
