<svg width="87" height="20" viewBox="0 0 87 20" fill="none" xmlns="http://www.w3.org/2000/svg">
<g clip-path="url(#clip0_344_16656)">
<path d="M84.0649 12.1121C84.0114 12.3819 83.9192 12.6172 83.7892 12.8194C83.6593 13.0212 83.4837 13.1897 83.2766 13.3111C83.066 13.4372 82.8035 13.5002 82.4891 13.5002C82.1836 13.5002 81.9232 13.4372 81.7077 13.3111C81.498 13.191 81.3201 13.0224 81.1889 12.8194C81.0595 12.6172 80.9645 12.3819 80.9061 12.1121C80.8477 11.8424 80.8184 11.5671 80.8187 11.2911C80.8187 11.0026 80.8462 10.7242 80.8997 10.4555C80.9537 10.1861 81.0457 9.94777 81.1758 9.74038C81.3052 9.53503 81.4804 9.36245 81.6877 9.23617C81.8983 9.10553 82.1609 9.04009 82.4756 9.03987C82.7808 9.03987 83.0388 9.10575 83.2496 9.23601C83.4594 9.36446 83.6369 9.53944 83.7684 9.74743C83.9036 9.95886 84.0003 10.1992 84.0583 10.4684C84.1169 10.7387 84.1462 11.0146 84.1459 11.2911C84.1459 11.5686 84.1187 11.8431 84.0649 12.1121ZM85.8699 9.92256C85.7441 9.46934 85.5509 9.07192 85.2904 8.73029C85.0299 8.38911 84.7029 8.11483 84.3076 7.90861C83.9122 7.70189 83.4404 7.59864 82.8924 7.59886C82.4622 7.59886 82.0667 7.68374 81.7077 7.85449C81.3486 8.02536 81.0523 8.29942 80.8187 8.67668H80.7924V7.78693H78.9736V17.192H80.8859V13.8911H80.9131C81.1466 14.2326 81.4457 14.4906 81.8089 14.6652C82.1723 14.8404 82.5703 14.9284 83.0013 14.9284C83.5126 14.9284 83.9593 14.8289 84.3415 14.6318C84.7225 14.4345 85.042 14.1691 85.2975 13.8365C85.5539 13.5041 85.744 13.1227 85.8699 12.6916C85.9963 12.2602 86.0587 11.8113 86.0587 11.3442C86.0587 10.8501 85.9963 10.3767 85.8699 9.92256ZM76.4418 12.1121C76.3874 12.3819 76.2951 12.6172 76.1654 12.8194C76.0357 13.0215 75.8601 13.19 75.6528 13.3111C75.4424 13.4372 75.1793 13.5002 74.8652 13.5002C74.5595 13.5002 74.3002 13.437 74.0845 13.3111C73.8746 13.1913 73.6966 13.0226 73.5657 12.8194C73.4355 12.6172 73.3413 12.3819 73.2829 12.1121C73.2246 11.8424 73.1953 11.5671 73.1956 11.2911C73.1954 11.0027 73.2221 10.7242 73.2756 10.4555C73.3303 10.1859 73.4218 9.94794 73.5524 9.74038C73.6817 9.53481 73.857 9.36218 74.0645 9.23617C74.2748 9.10553 74.5373 9.04009 74.8519 9.03987C75.157 9.03987 75.416 9.10575 75.6264 9.23601C75.8362 9.36443 76.0137 9.53943 76.145 9.74743C76.2795 9.95886 76.376 10.1992 76.4345 10.4684C76.4933 10.738 76.5217 11.0123 76.5217 11.2911C76.5221 11.5668 76.4953 11.8418 76.4418 12.1121ZM77.6671 8.73029C77.4068 8.38889 77.079 8.115 76.6837 7.90861C76.2884 7.70189 75.8171 7.59864 75.2697 7.59886C74.8384 7.59875 74.4433 7.68396 74.0845 7.85449C73.7244 8.02542 73.4291 8.29937 73.1956 8.67668H73.1682V7.78693H71.3492V17.192H73.2632V13.8911H73.2891C73.5223 14.2326 73.8218 14.4906 74.1857 14.6652C74.5487 14.8405 74.9459 14.9282 75.3773 14.9284C75.8894 14.9284 76.3358 14.8289 76.7173 14.6318C77.099 14.4344 77.4179 14.1693 77.6738 13.8365C77.9301 13.5041 78.12 13.1227 78.2467 12.6916C78.3728 12.2537 78.4362 11.8 78.435 11.3442C78.435 10.8501 78.3714 10.3767 78.2467 9.92256C78.12 9.46945 77.9276 9.0718 77.6671 8.73029ZM65.0867 11.0345L66.3393 7.50424H66.3661L67.5785 11.0345H65.0867ZM65.2884 5.13281L61.6519 14.753H63.7802L64.5339 12.6105H68.1308L68.8575 14.7528H71.0536L67.4578 5.13281H65.2884ZM61.4901 11.7014C61.366 11.4831 61.1959 11.2944 60.9916 11.1484C60.7852 11.0009 60.5489 10.8816 60.2845 10.7913C60.0169 10.7013 59.7449 10.6251 59.4694 10.5631C59.2054 10.5011 58.9406 10.4425 58.6751 10.3874C58.4145 10.3333 58.1831 10.2728 57.981 10.2059C57.779 10.1384 57.6158 10.0513 57.4899 9.94256C57.3641 9.83511 57.3013 9.69601 57.3015 9.52525C57.3015 9.38138 57.3365 9.2671 57.4087 9.18155C57.4802 9.09708 57.5701 9.03015 57.6716 8.98592C57.7811 8.93987 57.8968 8.91041 58.015 8.89853C58.1312 8.88589 58.2481 8.87932 58.365 8.87886C58.7064 8.87886 59.003 8.94385 59.2548 9.07382C59.5055 9.20424 59.645 9.45365 59.6716 9.82155H61.4901C61.4542 9.39085 61.3442 9.03371 61.16 8.75012C60.9759 8.46743 60.7447 8.24082 60.4664 8.07029C60.1885 7.89965 59.8719 7.77836 59.5165 7.70643C59.1554 7.63391 58.7879 7.59788 58.4197 7.59886C58.0417 7.59886 57.6736 7.63231 57.3151 7.6992C56.9553 7.7671 56.632 7.88402 56.3452 8.04995C56.0597 8.21391 55.8207 8.44809 55.6511 8.73029C55.4756 9.01769 55.3882 9.38643 55.3882 9.83517C55.3883 10.1407 55.4514 10.399 55.5775 10.61C55.7018 10.8201 55.8718 10.9997 56.0748 11.1353C56.2818 11.2745 56.5178 11.3873 56.7825 11.472C57.0474 11.5582 57.319 11.6316 57.597 11.6948C58.2802 11.8387 58.8124 11.9819 59.1936 12.1263C59.5752 12.2697 59.766 12.4852 59.766 12.7728C59.766 12.9434 59.726 13.0841 59.645 13.1967C59.5654 13.3081 59.4619 13.4002 59.342 13.4663C59.2156 13.5357 59.0793 13.5855 58.938 13.6142C58.7896 13.6461 58.6481 13.662 58.5133 13.6619C58.3247 13.6619 58.1431 13.6394 57.9684 13.5943C57.7928 13.5494 57.6378 13.4798 57.5034 13.3854C57.3675 13.2903 57.2546 13.166 57.1731 13.0216C57.0884 12.8731 57.0447 12.6965 57.0447 12.4894H55.2267C55.2452 12.9565 55.3503 13.3452 55.5439 13.655C55.7296 13.9581 55.9831 14.2141 56.2844 14.4029C56.5851 14.5914 56.9287 14.7261 57.3153 14.8073C57.7008 14.8879 58.0961 14.9283 58.4995 14.9283C58.8909 14.9285 59.2813 14.8902 59.6652 14.8142C60.0468 14.7377 60.3858 14.605 60.6822 14.416C60.9792 14.2278 61.2183 13.9785 61.403 13.6684C61.5867 13.3583 61.6785 12.9742 61.6787 12.5162C61.6787 12.1923 61.6158 11.9212 61.4901 11.7014ZM53.5839 5.69886H51.6708V7.78693H50.5129V9.06676H51.6709V13.1765C51.6711 13.5272 51.7296 13.8101 51.8462 14.0252C51.963 14.2405 52.1222 14.4078 52.324 14.5242C52.5263 14.6409 52.7599 14.7194 53.0249 14.7597C53.3035 14.801 53.5849 14.8212 53.8666 14.8202C54.0558 14.8202 54.2482 14.8155 54.4462 14.8073C54.6266 14.7998 54.8064 14.7817 54.9847 14.7528V13.2706C54.8946 13.2889 54.8005 13.3029 54.7013 13.311C54.6029 13.3203 54.4997 13.325 54.3918 13.3251C54.0687 13.3249 53.8532 13.2708 53.745 13.1629C53.6377 13.0553 53.5839 12.8398 53.5837 12.5162V9.06676H54.9847V7.78693H53.5839V5.69886ZM48.1017 12.0577C48.1018 12.1664 48.0906 12.3103 48.0681 12.4894C48.0457 12.6696 47.985 12.8463 47.8864 13.0216C47.7874 13.1967 47.6343 13.3476 47.4284 13.4728C47.222 13.5989 46.93 13.6619 46.5524 13.6619C46.4003 13.6619 46.2518 13.6484 46.1082 13.6209C45.9642 13.5943 45.839 13.5469 45.7311 13.4797C45.6233 13.4125 45.5379 13.3204 45.475 13.2034C45.4124 13.0868 45.3811 12.9432 45.3808 12.7728C45.3808 12.5933 45.4126 12.4441 45.475 12.3279C45.5357 12.2141 45.621 12.1152 45.7245 12.0382C45.8275 11.962 45.9487 11.9013 46.0881 11.856C46.227 11.8112 46.3685 11.7753 46.5124 11.7484C46.6643 11.7218 46.8169 11.6993 46.9701 11.681C47.1168 11.6641 47.2629 11.6417 47.4079 11.6138C47.5472 11.5868 47.6775 11.553 47.7988 11.5123C47.92 11.472 48.0207 11.4165 48.1017 11.3442V12.0577ZM50.0143 13.2034V9.57937C50.0145 9.15673 49.9202 8.81769 49.7313 8.56222C49.5429 8.30598 49.3007 8.10609 49.0045 7.96256C48.7076 7.81881 48.3797 7.72222 48.0207 7.67281C47.6682 7.6237 47.3127 7.599 46.9568 7.59886C46.5707 7.59864 46.1869 7.63679 45.8055 7.71332C45.423 7.78962 45.0803 7.91785 44.7748 8.09718C44.472 8.27417 44.2141 8.51846 44.0208 8.81113C43.8225 9.1076 43.7106 9.48038 43.6837 9.92962H45.5963C45.6323 9.55203 45.7581 9.2825 45.9739 9.12105C46.1891 8.95937 46.4854 8.87864 46.8629 8.87886C47.0331 8.87886 47.1924 8.89007 47.3408 8.91248C47.4887 8.935 47.619 8.97937 47.7314 9.04693C47.8439 9.11416 47.9337 9.20855 48.0007 9.33012C48.0679 9.45113 48.1017 9.6155 48.1017 9.82155C48.1106 10.0199 48.0521 10.1695 47.9269 10.2728C47.8009 10.3768 47.6302 10.4554 47.4148 10.5086C47.1993 10.5632 46.9523 10.6035 46.6736 10.6296C46.39 10.658 46.1072 10.6942 45.8255 10.738C45.5374 10.7832 45.252 10.844 44.9704 10.92C44.6877 10.9958 44.4355 11.111 44.2158 11.2631C43.9956 11.4165 43.8161 11.6205 43.6765 11.8767C43.5375 12.1329 43.4681 12.4585 43.4681 12.8535C43.4681 13.2127 43.5287 13.5224 43.6499 13.7827C43.7709 14.0439 43.9393 14.2587 44.1551 14.4295C44.3707 14.6003 44.6221 14.7263 44.9094 14.8073C45.1965 14.8879 45.5063 14.9283 45.8388 14.9283C46.2701 14.9282 46.6919 14.8654 47.1044 14.74C47.5145 14.6159 47.8858 14.3884 48.1827 14.0794C48.1917 14.1962 48.2072 14.3108 48.2294 14.4231C48.2519 14.5348 48.2815 14.6456 48.3173 14.7528H50.2571C50.1672 14.6098 50.1043 14.3943 50.0686 14.1063C50.0316 13.8067 50.0135 13.5052 50.0143 13.2034ZM42.1346 8.38659C41.9464 8.13937 41.6881 7.94659 41.3608 7.80693C41.0325 7.66833 40.6127 7.59897 40.1012 7.59886C39.7421 7.59864 39.3738 7.69074 38.9963 7.87516C38.6193 8.05892 38.3096 8.35309 38.0672 8.75769H38.0267V5.13281H36.1141V14.753H38.0267V11.1014C38.0267 10.3921 38.1435 9.88234 38.377 9.57197C38.6102 9.26239 38.9874 9.10755 39.5084 9.10743C39.9662 9.10732 40.285 9.24889 40.4647 9.53214C40.6444 9.81494 40.7342 10.2437 40.7341 10.8185V14.7526H42.6469V10.4684C42.6468 10.0376 42.6086 9.64458 42.5323 9.28928C42.4561 8.93489 42.3235 8.63393 42.1346 8.38643M32.0328 11.7617H32.006L30.3629 5.13281H28.383L26.7124 11.681H26.6857L25.1637 5.13281H23.0491L25.5948 14.753H27.7366L29.3392 8.20475H29.366L30.996 14.7528H33.0973L35.6835 5.13281H33.6092L32.0328 11.7617Z" fill="white"/>
<path d="M0.430418 9.86893C0.428412 11.5405 0.867133 13.183 1.70235 14.6309L0.350586 19.5666L5.40168 18.2422C6.7988 19.0025 8.36402 19.401 9.95462 19.4014H9.95882C15.2097 19.4014 19.4844 15.1284 19.4866 9.87649C19.4876 7.33145 18.4973 4.93851 16.6983 3.138C14.8997 1.33767 12.5074 0.345735 9.95849 0.344727C4.70672 0.344727 0.432603 4.61716 0.430418 9.86893Z" fill="url(#paint0_linear_344_16656)"/>
<path d="M0.0906697 9.86605C0.0886141 11.5975 0.543043 13.2988 1.40815 14.7987L0.0078125 19.9113L5.23991 18.5393C6.68709 19.3273 8.30859 19.7403 9.95639 19.7405H9.96059C15.3999 19.7405 19.8278 15.3138 19.8303 9.87395C19.8312 7.23748 18.8053 4.75849 16.9421 2.89345C15.0786 1.02874 12.6008 0.0010084 9.96059 0C4.52025 0 0.0928545 4.42588 0.0906697 9.86605ZM3.20664 14.541L3.01117 14.2309C2.18961 12.9237 1.75482 11.4106 1.75706 9.86656C1.75874 5.34504 5.43874 1.66655 9.96378 1.66655C12.1549 1.6674 14.2142 2.52151 15.7633 4.07143C17.3122 5.62151 18.1645 7.68185 18.1638 9.87328C18.1618 14.395 14.4819 18.0741 9.96042 18.0741H9.95739C8.48826 18.0742 7.04612 17.6794 5.78193 16.9309L5.48227 16.7531L2.37756 17.5672L3.20664 14.541Z" fill="url(#paint1_linear_344_16656)"/>
<path d="M7.49355 5.74134C7.30867 5.33076 7.11439 5.32252 6.93876 5.31529C6.79489 5.30908 6.63035 5.30958 6.46615 5.30958C6.30145 5.30958 6.03439 5.37143 5.80851 5.61815C5.58246 5.86487 4.94531 6.46135 4.94531 7.67479C4.94531 8.88824 5.82901 10.0605 5.9522 10.2252C6.07556 10.3896 7.65825 12.9592 10.1648 13.9476C12.2482 14.7691 12.672 14.6057 13.1241 14.5645C13.5762 14.5235 14.5833 13.9682 14.7887 13.3923C14.9942 12.8165 14.9942 12.3229 14.9325 12.2198C14.871 12.1171 14.7065 12.0553 14.4599 11.9321C14.2132 11.8087 13.0008 11.2121 12.7749 11.1297C12.5487 11.0476 12.3843 11.0066 12.2198 11.2534C12.0554 11.5 11.5831 12.0553 11.4393 12.2198C11.2954 12.3844 11.1514 12.4052 10.9048 12.282C10.6581 12.1582 9.8638 11.898 8.92161 11.058C8.1885 10.4042 7.69355 9.59714 7.54968 9.35025C7.40582 9.10336 7.53439 8.97008 7.65792 8.84706C7.76884 8.73664 7.90464 8.55916 8.028 8.41513C8.15103 8.27109 8.1922 8.1684 8.27439 8.00387C8.35674 7.83916 8.3154 7.69529 8.25388 7.57193C8.1922 7.44857 7.71288 6.22908 7.49355 5.74134Z" fill="white"/>
</g>
<defs>
<linearGradient id="paint0_linear_344_16656" x1="957.149" y1="1922.53" x2="957.149" y2="0.344727" gradientUnits="userSpaceOnUse">
<stop stop-color="#1FAF38"/>
<stop offset="1" stop-color="#60D669"/>
</linearGradient>
<linearGradient id="paint1_linear_344_16656" x1="991.134" y1="1991.13" x2="991.134" y2="0" gradientUnits="userSpaceOnUse">
<stop stop-color="#F9F9F9"/>
<stop offset="1" stop-color="white"/>
</linearGradient>
<clipPath id="clip0_344_16656">
<rect width="86.0667" height="20" fill="white"/>
</clipPath>
</defs>
</svg>
