<svg width="112" height="26" viewBox="0 0 112 26" fill="none" xmlns="http://www.w3.org/2000/svg">
<g clip-path="url(#clip0_228_10001)">
<path d="M109.341 15.7455C109.272 16.0962 109.152 16.402 108.983 16.6649C108.814 16.9273 108.586 17.1463 108.316 17.3042C108.043 17.468 107.701 17.55 107.293 17.55C106.895 17.55 106.557 17.468 106.277 17.3042C106.004 17.148 105.773 16.9288 105.602 16.6649C105.434 16.402 105.311 16.0962 105.235 15.7455C105.159 15.3948 105.121 15.037 105.121 14.6782C105.121 14.303 105.157 13.9412 105.226 13.5919C105.296 13.2417 105.416 12.9318 105.585 12.6622C105.753 12.3952 105.981 12.1709 106.251 12.0067C106.524 11.8369 106.866 11.7518 107.275 11.7515C107.672 11.7515 108.007 11.8372 108.281 12.0065C108.554 12.1735 108.785 12.401 108.956 12.6714C109.131 12.9462 109.257 13.2587 109.333 13.6087C109.409 13.9601 109.447 14.3186 109.446 14.6782C109.446 15.0389 109.411 15.3957 109.341 15.7455ZM111.688 12.899C111.524 12.3098 111.273 11.7932 110.934 11.3491C110.596 10.9056 110.17 10.549 109.657 10.2809C109.143 10.0122 108.529 9.87794 107.817 9.87823C107.258 9.87823 106.743 9.98856 106.277 10.2105C105.81 10.4327 105.425 10.789 105.121 11.2794H105.087V10.1227H102.722V22.3493H105.208V18.0582H105.244C105.547 18.5021 105.936 18.8375 106.408 19.0645C106.881 19.2922 107.398 19.4067 107.958 19.4067C108.623 19.4067 109.204 19.2773 109.701 19.0211C110.196 18.7645 110.611 18.4196 110.943 17.9872C111.277 17.555 111.524 17.0593 111.688 16.4988C111.852 15.938 111.933 15.3544 111.933 14.7472C111.933 14.1049 111.852 13.4894 111.688 12.899ZM99.4311 15.7455C99.3603 16.0962 99.2404 16.402 99.0717 16.6649C98.9031 16.9276 98.6748 17.1467 98.4053 17.3042C98.1318 17.468 97.7898 17.55 97.3815 17.55C96.984 17.55 96.6469 17.4678 96.3666 17.3042C96.0937 17.1484 95.8623 16.9291 95.6921 16.6649C95.5228 16.402 95.4005 16.0962 95.3244 15.7455C95.2486 15.3948 95.2106 15.037 95.211 14.6782C95.2107 14.3033 95.2454 13.9411 95.315 13.5919C95.386 13.2414 95.5051 12.932 95.6749 12.6622C95.8429 12.395 96.0708 12.1705 96.3406 12.0067C96.614 11.8369 96.9552 11.7518 97.3642 11.7515C97.7608 11.7515 98.0975 11.8372 98.371 12.0065C98.6438 12.1735 98.8745 12.401 99.0453 12.6714C99.2201 12.9462 99.3455 13.2587 99.4215 13.6087C99.498 13.9591 99.5349 14.3157 99.5349 14.6782C99.5354 15.0365 99.5006 15.394 99.4311 15.7455ZM101.024 11.3491C100.686 10.9053 100.259 10.5492 99.7455 10.2809C99.2316 10.0122 98.6189 9.87794 97.9074 9.87823C97.3466 9.87808 96.833 9.98886 96.3666 10.2105C95.8984 10.4327 95.5145 10.7889 95.211 11.2794H95.1754V10.1227H92.8107V22.3493H95.2989V18.0582H95.3325C95.6358 18.5021 96.0251 18.8375 96.4981 19.0645C96.9701 19.2923 97.4864 19.4064 98.0472 19.4067C98.713 19.4067 99.2932 19.2773 99.7892 19.0211C100.285 18.7644 100.7 18.4198 101.033 17.9872C101.366 17.555 101.613 17.0593 101.777 16.4988C101.941 15.9295 102.024 15.3397 102.022 14.7472C102.022 14.1049 101.94 13.4894 101.777 12.899C101.613 12.31 101.363 11.7931 101.024 11.3491ZM84.6695 14.3445L86.2978 9.75522H86.3326L87.9087 14.3445H84.6695ZM84.9316 6.67236L80.2042 19.1786H82.9709L83.9508 16.3933H88.6267L89.5714 19.1784H92.4264L87.7519 6.67236H84.9316ZM79.9938 15.2115C79.8325 14.9277 79.6114 14.6825 79.3458 14.4927C79.0775 14.3008 78.7703 14.1457 78.4266 14.0284C78.0787 13.9114 77.725 13.8124 77.3669 13.7317C77.0238 13.6511 76.6795 13.575 76.3344 13.5034C75.9956 13.433 75.6948 13.3544 75.432 13.2674C75.1694 13.1796 74.9572 13.0664 74.7936 12.925C74.63 12.7853 74.5484 12.6045 74.5487 12.3825C74.5487 12.1955 74.5941 12.0469 74.6881 11.9357C74.781 11.8259 74.8979 11.7389 75.0298 11.6814C75.1721 11.6215 75.3225 11.5832 75.4762 11.5678C75.6273 11.5514 75.7792 11.5428 75.9313 11.5422C76.3751 11.5422 76.7606 11.6267 77.0879 11.7957C77.4139 11.9652 77.5953 12.2895 77.6298 12.7677H79.9938C79.9472 12.2078 79.8042 11.7435 79.5647 11.3749C79.3254 11.0074 79.0248 10.7128 78.663 10.4911C78.3018 10.2692 77.8902 10.1116 77.4281 10.0181C76.9587 9.92379 76.481 9.87695 76.0023 9.87823C75.511 9.87823 75.0323 9.92171 74.5664 10.0087C74.0987 10.0969 73.6784 10.2489 73.3055 10.4646C72.9343 10.6778 72.6237 10.9822 72.4031 11.3491C72.175 11.7227 72.0614 12.2021 72.0614 12.7854C72.0616 13.1826 72.1436 13.5184 72.3074 13.7926C72.4691 14.0659 72.69 14.2993 72.9539 14.4756C73.2231 14.6565 73.5299 14.8032 73.874 14.9133C74.2183 15.0254 74.5714 15.1208 74.9328 15.203C75.8209 15.39 76.5129 15.5762 77.0084 15.7638C77.5045 15.9503 77.7526 16.2305 77.7526 16.6044C77.7526 16.8261 77.7006 17.009 77.5953 17.1554C77.4918 17.3002 77.3572 17.4199 77.2013 17.5058C77.037 17.5961 76.8599 17.6609 76.6761 17.6981C76.4832 17.7396 76.2992 17.7603 76.124 17.7602C75.8788 17.7602 75.6427 17.7309 75.4156 17.6723C75.1874 17.6139 74.9859 17.5234 74.8111 17.4007C74.6344 17.2772 74.4877 17.1155 74.3818 16.9277C74.2716 16.7348 74.2148 16.5052 74.2148 16.236H71.8514C71.8755 16.8432 72.012 17.3485 72.2637 17.7512C72.5053 18.1453 72.8347 18.478 73.2264 18.7235C73.6173 18.9685 74.0641 19.1437 74.5666 19.2492C75.0678 19.354 75.5817 19.4065 76.1061 19.4065C76.6148 19.4067 77.1224 19.357 77.6215 19.2581C78.1176 19.1588 78.5583 18.9862 78.9436 18.7405C79.3296 18.4958 79.6405 18.1718 79.8806 17.7687C80.1194 17.3655 80.2388 16.8662 80.239 16.2707C80.239 15.8497 80.1572 15.4973 79.9938 15.2115ZM69.7157 7.40823H67.2287V10.1227H65.7235V11.7865H67.2289V17.1292C67.2292 17.5851 67.3052 17.9529 67.4568 18.2325C67.6086 18.5124 67.8155 18.7298 68.0779 18.8812C68.3409 19.0328 68.6446 19.1349 68.989 19.1873C69.3513 19.241 69.717 19.2672 70.0832 19.266C70.3292 19.266 70.5794 19.2599 70.8368 19.2492C71.0713 19.2395 71.3051 19.2159 71.5368 19.1784V17.2515C71.4197 17.2753 71.2974 17.2935 71.1685 17.304C71.0404 17.316 70.9063 17.3222 70.766 17.3223C70.3461 17.322 70.0658 17.2517 69.9253 17.1115C69.7857 16.9716 69.7158 16.6914 69.7155 16.2707V11.7865H71.5368V10.1227H69.7157V7.40823ZM62.5889 15.6747C62.589 15.816 62.5745 16.0031 62.5452 16.236C62.5161 16.4702 62.4373 16.6998 62.309 16.9277C62.1803 17.1554 61.9813 17.3516 61.7136 17.5144C61.4453 17.6782 61.0657 17.7602 60.5749 17.7602C60.3771 17.7602 60.184 17.7427 59.9974 17.7068C59.8102 17.6723 59.6474 17.6107 59.5071 17.5233C59.367 17.4359 59.256 17.3162 59.1742 17.1641C59.0929 17.0125 59.0521 16.8259 59.0518 16.6044C59.0518 16.371 59.0931 16.177 59.1742 16.026C59.2532 15.8781 59.364 15.7494 59.4986 15.6494C59.6325 15.5503 59.79 15.4714 59.9712 15.4125C60.1518 15.3542 60.3357 15.3076 60.5229 15.2727C60.7204 15.238 60.9187 15.2088 61.1178 15.1851C61.3086 15.1631 61.4984 15.1339 61.687 15.0977C61.868 15.0626 62.0374 15.0186 62.1952 14.9657C62.3527 14.9133 62.4836 14.8412 62.5889 14.7472V15.6747ZM65.0753 17.1641V12.4529C65.0756 11.9035 64.9529 11.4627 64.7073 11.1306C64.4625 10.7975 64.1476 10.5376 63.7626 10.351C63.3766 10.1642 62.9503 10.0386 62.4836 9.97436C62.0253 9.91052 61.5632 9.8784 61.1006 9.87823C60.5986 9.87794 60.0997 9.92753 59.6039 10.027C59.1066 10.1262 58.6611 10.2929 58.2639 10.526C57.8703 10.7561 57.535 11.0737 57.2838 11.4542C57.026 11.8396 56.8805 12.3242 56.8455 12.9082H59.3319C59.3787 12.4173 59.5423 12.067 59.8228 11.8571C60.1025 11.6469 60.4877 11.5419 60.9784 11.5422C61.1997 11.5422 61.4068 11.5568 61.5998 11.5859C61.7921 11.6152 61.9614 11.6729 62.1076 11.7607C62.2538 11.8481 62.3705 11.9708 62.4576 12.1289C62.545 12.2862 62.5889 12.4999 62.5889 12.7677C62.6005 13.0255 62.5244 13.22 62.3617 13.3544C62.1979 13.4895 61.976 13.5917 61.6959 13.6609C61.4158 13.7318 61.0947 13.7843 60.7324 13.8182C60.3637 13.8551 59.9961 13.9021 59.6299 13.9591C59.2554 14.0179 58.8843 14.0968 58.5183 14.1958C58.1508 14.2943 57.8228 14.444 57.5372 14.6417C57.251 14.8412 57.0177 15.1064 56.8361 15.4394C56.6555 15.7725 56.5652 16.1958 56.5652 16.7092C56.5652 17.1762 56.644 17.5789 56.8016 17.9173C56.9589 18.2568 57.1778 18.536 57.4584 18.758C57.7386 18.9801 58.0655 19.1438 58.4389 19.2492C58.8121 19.354 59.2149 19.4065 59.6472 19.4065C60.2078 19.4063 60.7562 19.3247 61.2924 19.1618C61.8256 19.0004 62.3083 18.7046 62.6942 18.3029C62.7059 18.4548 62.7261 18.6037 62.7549 18.7497C62.7842 18.895 62.8227 19.039 62.8692 19.1784H65.391C65.274 18.9925 65.1923 18.7123 65.1459 18.3378C65.0978 17.9485 65.0743 17.5565 65.0753 17.1641ZM54.8317 10.9023C54.587 10.5809 54.2512 10.3303 53.8258 10.1487C53.399 9.96854 52.8532 9.87837 52.1882 9.87823C51.7214 9.87794 51.2426 9.99767 50.7519 10.2374C50.2618 10.4763 49.8592 10.8587 49.5441 11.3847H49.4914V6.67236H47.0051V19.1786H49.4914V14.4315C49.4914 13.5095 49.6432 12.8467 49.9468 12.4433C50.25 12.0408 50.7403 11.8395 51.4176 11.8394C52.0128 11.8392 52.4272 12.0233 52.6608 12.3915C52.8945 12.7591 53.0112 13.3166 53.0111 14.0638V19.1781H55.4977V13.6087C55.4975 13.0486 55.4479 12.5377 55.3487 12.0758C55.2496 11.6151 55.0773 11.2238 54.8317 10.9021M41.6993 15.2899H41.6646L39.5284 6.67236H36.9546L34.7829 15.1851H34.7481L32.7695 6.67236H30.0205L33.3299 19.1786H36.1143L38.1976 10.6659H38.2326L40.3515 19.1784H43.0832L46.4453 6.67236H43.7487L41.6993 15.2899Z" fill="#60D568"/>
<path d="M0.617453 12.8297C0.614845 15.0027 1.18518 17.138 2.27097 19.0203L0.513672 25.4366L7.08009 23.715C8.89635 24.7034 10.9311 25.2214 12.9989 25.2219H13.0044C19.8306 25.2219 25.3876 19.667 25.3904 12.8395C25.3917 9.53098 24.1044 6.42016 21.7657 4.0795C19.4275 1.73907 16.3175 0.449553 13.0039 0.448242C6.17665 0.448242 0.620294 6.00241 0.617453 12.8297Z" fill="url(#paint0_linear_228_10001)"/>
<path d="M0.175097 12.8259C0.172425 15.0767 0.763183 17.2885 1.88782 19.2383L0.0673828 25.8846L6.86911 24.1011C8.75044 25.1255 10.8584 25.6624 13.0005 25.6627H13.006C20.0771 25.6627 25.8334 19.9079 25.8367 12.8361C25.8378 9.40872 24.5041 6.18603 22.082 3.76148C19.6594 1.33736 16.4382 0.00131092 13.006 0C5.93355 0 0.177937 5.75365 0.175097 12.8259ZM4.22585 18.9033L3.97175 18.5002C2.90372 16.8007 2.33849 14.8337 2.3414 12.8265C2.34358 6.94855 7.12758 2.16652 13.0101 2.16652C15.8586 2.16761 18.5357 3.27797 20.5495 5.29286C22.5631 7.30797 23.671 9.9864 23.6701 12.8353C23.6675 18.7134 18.8837 23.4964 13.0058 23.4964H13.0018C11.092 23.4965 9.21718 22.9832 7.57374 22.0102L7.18417 21.779L3.14806 22.8374L4.22585 18.9033Z" fill="url(#paint1_linear_228_10001)"/>
<path d="M9.79806 7.46365C9.55772 6.92989 9.30515 6.91918 9.07683 6.90979C8.88981 6.9017 8.67591 6.90236 8.46244 6.90236C8.24833 6.90236 7.90115 6.98276 7.6075 7.3035C7.31364 7.62424 6.48535 8.39965 6.48535 9.97713C6.48535 11.5546 7.63416 13.0786 7.79431 13.2927C7.95468 13.5064 10.0122 16.8468 13.2707 18.1317C15.9791 19.1997 16.5301 18.9873 17.1178 18.9338C17.7056 18.8805 19.0147 18.1586 19.2817 17.4099C19.5489 16.6613 19.5489 16.0196 19.4687 15.8857C19.3888 15.7522 19.1749 15.6718 18.8544 15.5116C18.5336 15.3513 16.9575 14.5756 16.6638 14.4686C16.3697 14.3617 16.156 14.3084 15.9421 14.6294C15.7285 14.9499 15.1145 15.6718 14.9275 15.8857C14.7405 16.0996 14.5532 16.1267 14.2327 15.9665C13.912 15.8055 12.8794 15.4673 11.6545 14.3753C10.7015 13.5254 10.0581 12.4762 9.87103 12.1552C9.68401 11.8343 9.85115 11.661 10.0117 11.5011C10.1559 11.3575 10.3325 11.1268 10.4928 10.9396C10.6528 10.7523 10.7063 10.6188 10.8131 10.4049C10.9202 10.1908 10.8665 10.0038 10.7865 9.84342C10.7063 9.68305 10.0832 8.0977 9.79806 7.46365Z" fill="white"/>
</g>
<defs>
<linearGradient id="paint0_linear_228_10001" x1="1244.35" y1="2499.29" x2="1244.35" y2="0.448242" gradientUnits="userSpaceOnUse">
<stop stop-color="#1FAF38"/>
<stop offset="1" stop-color="#60D669"/>
</linearGradient>
<linearGradient id="paint1_linear_228_10001" x1="1288.53" y1="2588.46" x2="1288.53" y2="0" gradientUnits="userSpaceOnUse">
<stop stop-color="#F9F9F9"/>
<stop offset="1" stop-color="white"/>
</linearGradient>
<clipPath id="clip0_228_10001">
<rect width="111.887" height="26" fill="white" transform="translate(0.0566406)"/>
</clipPath>
</defs>
</svg>
