<svg width="20" height="20" viewBox="0 0 20 20" fill="none" xmlns="http://www.w3.org/2000/svg">
<g clip-path="url(#clip0_344_921)">
<path d="M19.3753 17.8125C20.2014 14.319 20.2014 10.681 19.3753 7.18752L19.6878 6.01252C19.7039 5.94738 19.6987 5.87879 19.6728 5.81688C19.6469 5.75497 19.6018 5.70304 19.5441 5.66877L18.4878 5.04377C18.4403 5.01634 18.3864 5.0019 18.3316 5.0019C18.2767 5.0019 18.2228 5.01634 18.1753 5.04377L17.2784 5.57502L16.3816 5.04377C16.3341 5.01634 16.2802 5.0019 16.2253 5.0019C16.1705 5.0019 16.1166 5.01634 16.0691 5.04377L15.1722 5.57502L14.2753 5.04377C14.2278 5.01634 14.1739 5.0019 14.1191 5.0019C14.0642 5.0019 14.0103 5.01634 13.9628 5.04377L13.0659 5.57502L12.9784 5.5219C12.8472 4.4719 12.6972 3.45627 12.5003 2.50002L12.8128 1.00002C12.8258 0.933761 12.817 0.865067 12.7877 0.804226C12.7585 0.743384 12.7102 0.693668 12.6503 0.662521L11.4659 0.0375212C11.4207 0.0134462 11.3703 0.000854492 11.3191 0.000854492C11.2678 0.000854492 11.2174 0.0134462 11.1722 0.0375212L10.1253 0.584396L9.0847 0.0375212C9.03988 0.0139804 8.99001 0.00168082 8.93939 0.00168082C8.88876 0.00168082 8.83889 0.0139804 8.79407 0.0375212L7.75032 0.584396L6.7097 0.0375212C6.66488 0.0139804 6.61501 0.00168082 6.56438 0.00168082C6.51376 0.00168082 6.46389 0.0139804 6.41907 0.0375212L5.37532 0.584396L4.3347 0.0375212C4.28988 0.0139804 4.24001 0.00168082 4.18939 0.00168082C4.13876 0.00168082 4.08889 0.0139804 4.04407 0.0375212L3.00345 0.584396L1.9597 0.0375212C1.91488 0.0139804 1.86501 0.00168082 1.81439 0.00168082C1.76376 0.00168082 1.71389 0.0139804 1.66907 0.0375212L0.481573 0.662521C0.420506 0.692698 0.370971 0.742002 0.340509 0.802927C0.310046 0.863852 0.300324 0.933061 0.312823 1.00002L0.625323 2.50002C-0.203233 6.83579 -0.203233 11.2893 0.625323 15.625L0.312823 17.125C0.299543 17.1909 0.307879 17.2594 0.33659 17.3202C0.365302 17.381 0.412859 17.4309 0.472198 17.4625L1.6597 18.0875C1.70452 18.1111 1.75438 18.1234 1.80501 18.1234C1.85564 18.1234 1.9055 18.1111 1.95032 18.0875L2.99407 17.5406L4.0347 18.0875C4.07952 18.1111 4.12938 18.1234 4.18001 18.1234C4.23064 18.1234 4.2805 18.1111 4.32532 18.0875L5.36595 17.5406L6.4097 18.0875C6.45452 18.1111 6.50438 18.1234 6.55501 18.1234C6.60564 18.1234 6.6555 18.1111 6.70032 18.0875L7.74095 17.5406L8.75032 18.0625L8.51907 19C8.50295 19.0652 8.50823 19.1338 8.53411 19.1957C8.56 19.2576 8.60513 19.3095 8.66282 19.3438L9.71907 19.9688C9.76658 19.9962 9.82047 20.0106 9.87532 20.0106C9.93018 20.0106 9.98407 19.9962 10.0316 19.9688L10.9378 19.425L11.8347 19.9563C11.8822 19.9837 11.9361 19.9981 11.9909 19.9981C12.0458 19.9981 12.0997 19.9837 12.1472 19.9563L13.0441 19.425L13.9409 19.9563C13.9885 19.9837 14.0423 19.9981 14.0972 19.9981C14.1521 19.9981 14.2059 19.9837 14.2534 19.9563L15.1503 19.425L16.0472 19.9563C16.0947 19.9837 16.1486 19.9981 16.2034 19.9981C16.2583 19.9981 16.3122 19.9837 16.3597 19.9563L17.2566 19.425L18.1534 19.9563C18.201 19.9837 18.2548 19.9981 18.3097 19.9981C18.3646 19.9981 18.4184 19.9837 18.4659 19.9563L19.5222 19.3313C19.5799 19.297 19.625 19.2451 19.6509 19.1832C19.6768 19.1213 19.6821 19.0527 19.6659 18.9875L19.3753 17.8125ZM12.8784 6.20627C12.926 6.2337 12.9798 6.24814 13.0347 6.24814C13.0896 6.24814 13.1434 6.2337 13.1909 6.20627L14.0878 5.67502L15.0003 6.20627C15.0478 6.2337 15.1017 6.24814 15.1566 6.24814C15.2114 6.24814 15.2653 6.2337 15.3128 6.20627L16.2097 5.67502L17.1066 6.20627C17.1541 6.2337 17.208 6.24814 17.2628 6.24814C17.3177 6.24814 17.3716 6.2337 17.4191 6.20627L18.3159 5.67502L19.0128 6.08752L18.8159 6.87502H9.37532L9.17845 6.08752L9.87532 5.67502L10.7722 6.20627C10.8197 6.2337 10.8736 6.24814 10.9284 6.24814C10.9833 6.24814 11.0372 6.2337 11.0847 6.20627L11.9816 5.67502L12.8784 6.20627ZM1.81595 0.665646L2.85657 1.21252C2.90139 1.23606 2.95126 1.24836 3.00189 1.24836C3.05251 1.24836 3.10238 1.23606 3.1472 1.21252L4.19095 0.665646L5.23157 1.21252C5.27639 1.23606 5.32626 1.24836 5.37689 1.24836C5.42751 1.24836 5.47738 1.23606 5.5222 1.21252L6.56282 0.665646L7.60657 1.21252C7.65139 1.23606 7.70126 1.24836 7.75189 1.24836C7.80251 1.24836 7.85238 1.23606 7.8972 1.21252L8.93782 0.665646L9.97845 1.21252C10.0237 1.2366 10.0741 1.24919 10.1253 1.24919C10.1765 1.24919 10.227 1.2366 10.2722 1.21252L11.3128 0.665646L12.1472 1.10627L11.9316 2.18752H1.1972L0.981573 1.10627L1.81595 0.665646ZM1.20032 2.81252H11.9284C12.0722 3.55419 12.1899 4.32502 12.2816 5.12502L12.1409 5.04377C12.0934 5.01634 12.0396 5.0019 11.9847 5.0019C11.9298 5.0019 11.876 5.01634 11.8284 5.04377L10.9378 5.57502L10.0409 5.04377C9.99344 5.01634 9.93955 5.0019 9.8847 5.0019C9.82984 5.0019 9.77595 5.01634 9.72845 5.04377L9.5597 5.14377L8.37532 4.04065C8.29109 3.96105 8.1864 3.90644 8.07292 3.88291C7.95945 3.85939 7.84167 3.86787 7.73274 3.90743C7.62381 3.94698 7.52802 4.01604 7.45607 4.10689C7.38413 4.19774 7.33886 4.3068 7.32532 4.4219L6.90657 8.05315C6.8943 8.159 6.90929 8.26623 6.95013 8.36465C6.99097 8.46308 7.05629 8.54942 7.1399 8.61549C7.2235 8.68156 7.32261 8.72516 7.42781 8.74214C7.53301 8.75912 7.6408 8.74893 7.74095 8.71252L8.47532 8.43752C8.29047 9.48473 8.17874 10.5435 8.14095 11.6063L7.4347 10.1938C7.38166 10.0914 7.30134 10.0057 7.20262 9.94612C7.1039 9.88655 6.99062 9.85546 6.87532 9.85627C6.75937 9.85604 6.64565 9.88807 6.54686 9.94878C6.44808 10.0095 6.36812 10.0965 6.31595 10.2L4.68782 13.4719C4.64071 13.5667 4.61845 13.6719 4.62312 13.7776C4.62779 13.8834 4.65925 13.9862 4.71453 14.0765C4.76982 14.1668 4.84712 14.2415 4.9392 14.2937C5.03127 14.3459 5.1351 14.3739 5.24095 14.375H8.1972C8.2222 14.6917 8.25345 15.0042 8.29095 15.3125H1.20032C0.434682 11.181 0.434682 6.94402 1.20032 2.81252ZM8.15657 13.75H5.24095L6.87532 10.4813L8.12532 12.9813C8.12532 13.2438 8.14407 13.4969 8.15657 13.75ZM7.8972 16.9125C7.85238 16.889 7.80251 16.8767 7.75189 16.8767C7.70126 16.8767 7.65139 16.889 7.60657 16.9125L6.56282 17.4594L5.5222 16.9125C5.47738 16.889 5.42751 16.8767 5.37689 16.8767C5.32626 16.8767 5.27639 16.889 5.23157 16.9125L4.19095 17.4594L3.1472 16.9125C3.10238 16.889 3.05251 16.8767 3.00189 16.8767C2.95126 16.8767 2.90139 16.889 2.85657 16.9125L1.81595 17.4594L0.981573 17.0188L1.1972 15.9375H8.3847C8.45345 16.3969 8.53782 16.85 8.6347 17.2938L7.8972 16.9125ZM8.61595 7.72815L7.52845 8.12502L7.94407 4.49377L8.98157 5.47502L8.66907 5.66877C8.61138 5.70304 8.56625 5.75497 8.54036 5.81688C8.51448 5.87879 8.5092 5.94738 8.52532 6.01252L8.79095 7.07502C8.72532 7.27815 8.66282 7.5219 8.61595 7.72815ZM18.3034 19.325L17.4066 18.7938C17.3591 18.7663 17.3052 18.7519 17.2503 18.7519C17.1955 18.7519 17.1416 18.7663 17.0941 18.7938L16.1972 19.325L15.3128 18.7938C15.2642 18.766 15.2094 18.7509 15.1534 18.75C15.0974 18.75 15.0423 18.7652 14.9941 18.7938L14.0972 19.325L13.2003 18.7938C13.1528 18.7663 13.0989 18.7519 13.0441 18.7519C12.9892 18.7519 12.9353 18.7663 12.8878 18.7938L11.9909 19.325L11.0941 18.7938C11.0466 18.7663 10.9927 18.7519 10.9378 18.7519C10.883 18.7519 10.8291 18.7663 10.7816 18.7938L9.8847 19.325L9.18782 18.9125L9.37532 18.125H18.8159L19.0128 18.9125L18.3034 19.325ZM18.8159 17.5H9.3097C8.55958 14.2089 8.55958 10.7912 9.3097 7.50002H18.8159C19.5661 10.7912 19.5661 14.2089 18.8159 17.5Z" fill="black"/>
<path d="M15.3125 9.6875C14.7758 9.68824 14.2505 9.84251 13.7987 10.1321C13.3469 10.4217 12.9873 10.8345 12.7625 11.3219C12.5743 11.2755 12.3813 11.2514 12.1875 11.25C11.6284 11.2306 11.0844 11.4334 10.6744 11.814C10.2645 12.1947 10.022 12.7222 10 13.2812C10.022 13.8403 10.2645 14.3678 10.6744 14.7485C11.0844 15.1291 11.6284 15.3319 12.1875 15.3125H15.3125C16.0584 15.3125 16.7738 15.0162 17.3012 14.4887C17.8287 13.9613 18.125 13.2459 18.125 12.5C18.125 11.7541 17.8287 11.0387 17.3012 10.5113C16.7738 9.98382 16.0584 9.6875 15.3125 9.6875ZM12.1875 14.6875C11.7941 14.7071 11.4089 14.5702 11.1162 14.3067C10.8234 14.0432 10.6468 13.6745 10.625 13.2812C10.6468 12.888 10.8234 12.5193 11.1162 12.2558C11.4089 11.9923 11.7941 11.8554 12.1875 11.875C12.5809 11.8554 12.9661 11.9923 13.2588 12.2558C13.5516 12.5193 13.7282 12.888 13.75 13.2812C13.7527 13.8098 13.9651 14.3156 14.3406 14.6875H12.1875ZM15.375 14.6875C15.15 14.575 14.375 14.125 14.375 13.2844C14.3698 12.932 14.2717 12.5873 14.0906 12.285C13.9095 11.9826 13.6519 11.7334 13.3438 11.5625C13.5106 11.211 13.7682 10.9104 14.09 10.6916C14.4118 10.4729 14.7861 10.3439 15.1744 10.318C15.5626 10.2922 15.9507 10.3703 16.2987 10.5444C16.6467 10.7185 16.9419 10.9823 17.1539 11.3085C17.366 11.6348 17.4872 12.0117 17.505 12.4004C17.5229 12.789 17.4367 13.1755 17.2555 13.5198C17.0742 13.8641 16.8044 14.1538 16.4738 14.359C16.1433 14.5643 15.764 14.6777 15.375 14.6875Z" fill="black"/>
<path d="M1.9933 8.35932L5.45893 9.51245C5.56905 9.54917 5.68722 9.5545 5.8002 9.52784C5.91319 9.50118 6.01651 9.44358 6.09859 9.36149C6.18068 9.27941 6.23828 9.17608 6.26494 9.0631C6.2916 8.95012 6.28628 8.83195 6.24955 8.72182L5.0933 5.2562C5.06072 5.15488 5.00282 5.06357 4.92507 4.9909C4.84732 4.91823 4.7523 4.86662 4.64902 4.84096C4.54574 4.81529 4.43761 4.81643 4.33489 4.84425C4.23217 4.87207 4.13826 4.92567 4.06205 4.99995L1.74955 7.30932C1.67052 7.38429 1.61245 7.47862 1.58111 7.58295C1.54977 7.68727 1.54624 7.79798 1.57088 7.90409C1.59551 8.01021 1.64745 8.10804 1.72155 8.18789C1.79564 8.26774 1.88932 8.32684 1.9933 8.35932ZM4.4933 5.45307L5.64955 8.92182L2.18705 7.76557L4.4933 5.45307Z" fill="black"/>
</g>
<defs>
<clipPath id="clip0_344_921">
<rect width="20" height="20" fill="white"/>
</clipPath>
</defs>
</svg>
