<svg width="20" height="20" viewBox="0 0 20 20" fill="none" xmlns="http://www.w3.org/2000/svg">
<g clip-path="url(#clip0_344_832)">
<path d="M6.5625 13.4375C6.5625 16.8837 9.36625 19.6875 12.8125 19.6875C16.2587 19.6875 19.0625 16.8837 19.0625 13.4375C19.0625 9.99125 16.2587 7.1875 12.8125 7.1875C9.36625 7.1875 6.5625 9.99125 6.5625 13.4375ZM18.4216 13.125H17.1875V13.75H18.4216C18.3488 15.065 17.8247 16.2587 16.9984 17.1816L16.1584 16.3416L15.7166 16.7834L16.5566 17.6234C15.6337 18.4497 14.44 18.9738 13.125 19.0466V17.8125H12.5V19.0466C11.185 18.9738 9.99125 18.4497 9.06844 17.6234L9.90844 16.7834L9.46656 16.3416L8.62656 17.1816C7.80031 16.2587 7.27625 15.065 7.20344 13.75H8.4375V13.125H7.20344C7.27625 11.81 7.80031 10.6162 8.62656 9.69344L9.46656 10.5334L9.90844 10.0916L9.06844 9.25156C9.99125 8.42531 11.185 7.90125 12.5 7.82844V9.0625H13.125V7.82844C14.44 7.90125 15.6337 8.42531 16.5566 9.25156L15.7166 10.0916L16.1584 10.5334L16.9984 9.69344C17.8247 10.6162 18.3488 11.81 18.4216 13.125Z" fill="black"/>
<path d="M12.8125 9.6875C10.7447 9.6875 9.0625 11.3697 9.0625 13.4375C9.0625 15.5053 10.7447 17.1875 12.8125 17.1875C14.8803 17.1875 16.5625 15.5053 16.5625 13.4375C16.5625 11.3697 14.8803 9.6875 12.8125 9.6875ZM15.9375 13.4375C15.9375 13.7234 15.8956 13.9991 15.8234 14.2625L14.38 13.4375L15.8234 12.6125C15.8956 12.8759 15.9375 13.1516 15.9375 13.4375ZM9.6875 13.4375C9.6875 13.1516 9.72937 12.8759 9.80156 12.6125L11.245 13.4375L9.80156 14.2625C9.72937 13.9991 9.6875 13.7234 9.6875 13.4375ZM13.4375 13.4375C13.4375 13.7822 13.1572 14.0625 12.8125 14.0625C12.4678 14.0625 12.1875 13.7822 12.1875 13.4375C12.1875 13.0928 12.4678 12.8125 12.8125 12.8125C13.1572 12.8125 13.4375 13.0928 13.4375 13.4375ZM13.4434 12.3647C13.3953 12.3363 13.3475 12.3069 13.2953 12.285L14.2269 10.6547C14.4272 10.7569 14.6163 10.8781 14.7888 11.0194L13.4434 12.3647ZM12.1816 12.3647L10.8362 11.0194C11.0087 10.8781 11.1978 10.7569 11.3981 10.6547L12.3297 12.285C12.2775 12.3069 12.2297 12.3359 12.1816 12.3647ZM11.7397 12.8066C11.7113 12.8547 11.6819 12.9025 11.66 12.9547L10.0297 12.0231C10.1319 11.8228 10.2531 11.6337 10.3944 11.4612L11.7397 12.8066ZM11.6597 13.9203C11.6816 13.9725 11.7109 14.0203 11.7394 14.0684L10.3941 15.4138C10.2528 15.2413 10.1316 15.0522 10.0294 14.8519L11.6597 13.9203ZM12.1816 14.5103C12.2297 14.5387 12.2775 14.5681 12.3297 14.59L11.3981 16.2203C11.1978 16.1181 11.0087 15.9969 10.8362 15.8556L12.1816 14.5103ZM13.4434 14.5103L14.7888 15.8556C14.6163 15.9969 14.4272 16.1181 14.2269 16.2203L13.2953 14.59C13.3475 14.5681 13.3953 14.5391 13.4434 14.5103ZM13.8853 14.0684C13.9137 14.0203 13.9431 13.9725 13.965 13.9203L15.5953 14.8519C15.4931 15.0522 15.3719 15.2413 15.2306 15.4138L13.8853 14.0684ZM13.9653 12.9547C13.9434 12.9025 13.9141 12.8547 13.8856 12.8066L15.2309 11.4612C15.3722 11.6337 15.4934 11.8228 15.5956 12.0231L13.9653 12.9547ZM13.6375 10.4266L12.8125 11.87L11.9875 10.4266C12.2509 10.3544 12.5266 10.3125 12.8125 10.3125C13.0984 10.3125 13.3741 10.3544 13.6375 10.4266ZM11.9875 16.4484L12.8125 15.005L13.6375 16.4484C13.3741 16.5206 13.0984 16.5625 12.8125 16.5625C12.5266 16.5625 12.2509 16.5206 11.9875 16.4484Z" fill="black"/>
<path d="M0.3125 16.9334C0.3125 18.2268 1.17969 19.3553 2.42156 19.6775C2.515 19.7012 2.61438 19.6812 2.69125 19.6222C2.7675 19.5631 2.8125 19.4718 2.8125 19.375L2.81219 17.7987C2.81219 17.4618 3.08656 17.1875 3.44687 17.1875C3.61219 17.1875 3.7675 17.2512 3.88344 17.3665C3.99906 17.4815 4.0625 17.635 4.0625 17.7981V19.375C4.0625 19.4718 4.1075 19.5631 4.18375 19.6222C4.23906 19.665 4.30656 19.6875 4.375 19.6875C4.40125 19.6875 4.4275 19.684 4.45344 19.6775C5.69531 19.3553 6.5625 18.2265 6.5625 16.9334C6.5625 15.8462 5.95594 14.8725 5 14.3959V8.32652C5.95594 7.84996 6.5625 6.8759 6.5625 5.78902C6.5625 4.49559 5.69531 3.36715 4.45344 3.04496C4.35969 3.02027 4.26062 3.0409 4.18375 3.10027C4.1075 3.15902 4.0625 3.25027 4.0625 3.34715V4.99996C4.0625 5.34465 3.78219 5.62496 3.4375 5.62496C3.09281 5.62496 2.8125 5.34465 2.8125 4.99996V3.34715C2.8125 3.25027 2.7675 3.15902 2.69125 3.09996C2.61438 3.04059 2.515 3.01996 2.42156 3.04465C1.17969 3.36684 0.3125 4.49559 0.3125 5.78871C0.3125 6.8759 0.919062 7.84965 1.875 8.32621V14.3956C0.919062 14.8725 0.3125 15.8462 0.3125 16.9334ZM2.30562 7.83559C1.47469 7.4959 0.9375 6.69277 0.9375 5.78871C0.9375 4.92277 1.43531 4.15152 2.1875 3.79184V4.99996C2.1875 5.68934 2.74813 6.24996 3.4375 6.24996C4.12687 6.24996 4.6875 5.68934 4.6875 4.99996V3.79215C5.43969 4.15152 5.9375 4.92277 5.9375 5.78902C5.9375 6.69309 5.40031 7.49621 4.56938 7.8359C4.45187 7.88371 4.375 7.99809 4.375 8.12496V14.5971C4.375 14.724 4.45187 14.8384 4.56938 14.8865C5.40031 15.2262 5.9375 16.0293 5.9375 16.9334C5.9375 17.7993 5.43969 18.5706 4.6875 18.9303V17.7987C4.68781 17.4678 4.55875 17.1575 4.32469 16.924C4.09062 16.6909 3.77906 16.5625 3.42344 16.5625C2.74156 16.5625 2.18719 17.1168 2.18719 17.7987L2.1875 18.93C1.435 18.5706 0.9375 17.7993 0.9375 16.9331C0.9375 16.029 1.47469 15.2259 2.30562 14.8862C2.42313 14.8384 2.5 14.724 2.5 14.5971V8.12496C2.5 7.99809 2.42313 7.88371 2.30562 7.83559Z" fill="black"/>
<path d="M10.625 4.0625H11.25C11.3331 4.0625 11.4125 4.02969 11.4709 3.97094L12.0959 3.34594C12.1547 3.2875 12.1875 3.20812 12.1875 3.125V2.5C12.1875 2.41688 12.1547 2.3375 12.0959 2.27906L11.4709 1.65406C11.4125 1.59531 11.3331 1.5625 11.25 1.5625H10.625C10.5419 1.5625 10.4625 1.59531 10.4041 1.65406L9.77906 2.27906C9.72031 2.3375 9.6875 2.41688 9.6875 2.5V3.125C9.6875 3.20812 9.72031 3.2875 9.77906 3.34594L10.4041 3.97094C10.4625 4.02969 10.5419 4.0625 10.625 4.0625ZM10.3125 2.62937L10.7544 2.1875H11.1206L11.5625 2.62937V2.99563L11.1206 3.4375H10.7544L10.3125 2.99563V2.62937Z" fill="black"/>
<path d="M10 5.3125H11.875C11.9581 5.3125 12.0375 5.27969 12.0959 5.22094L13.3459 3.97094C13.4047 3.9125 13.4375 3.83313 13.4375 3.75V1.875C13.4375 1.79188 13.4047 1.7125 13.3459 1.65406L12.0959 0.404062C12.0375 0.345312 11.9581 0.3125 11.875 0.3125H10C9.91688 0.3125 9.8375 0.345312 9.77906 0.404062L8.52906 1.65406C8.47031 1.7125 8.4375 1.79188 8.4375 1.875V3.75C8.4375 3.83313 8.47031 3.9125 8.52906 3.97094L9.77906 5.22094C9.8375 5.27969 9.91688 5.3125 10 5.3125ZM9.0625 2.00437L10.1294 0.9375H11.7456L12.8125 2.00437V3.62063L11.7456 4.6875H10.1294L9.0625 3.62063V2.00437Z" fill="black"/>
<path d="M17.5 3.4375H16.875C16.7919 3.4375 16.7125 3.47031 16.6541 3.52906L16.0291 4.15406C15.9703 4.2125 15.9375 4.29188 15.9375 4.375V5C15.9375 5.08312 15.9703 5.1625 16.0291 5.22094L16.6541 5.84594C16.7125 5.90469 16.7919 5.9375 16.875 5.9375H17.5C17.5831 5.9375 17.6625 5.90469 17.7209 5.84594L18.3459 5.22094C18.4047 5.1625 18.4375 5.08312 18.4375 5V4.375C18.4375 4.29188 18.4047 4.2125 18.3459 4.15406L17.7209 3.52906C17.6625 3.47031 17.5831 3.4375 17.5 3.4375ZM17.8125 4.87063L17.3706 5.3125H17.0044L16.5625 4.87063V4.50437L17.0044 4.0625H17.3706L17.8125 4.50437V4.87063Z" fill="black"/>
<path d="M18.3459 2.27906C18.2875 2.22031 18.2081 2.1875 18.125 2.1875H16.25C16.1669 2.1875 16.0875 2.22031 16.0291 2.27906L14.7791 3.52906C14.7203 3.5875 14.6875 3.66688 14.6875 3.75V5.625C14.6875 5.70813 14.7203 5.7875 14.7791 5.84594L16.0291 7.09594C16.0875 7.15469 16.1669 7.1875 16.25 7.1875H18.125C18.2081 7.1875 18.2875 7.15469 18.3459 7.09594L19.5959 5.84594C19.6547 5.7875 19.6875 5.70813 19.6875 5.625V3.75C19.6875 3.66688 19.6547 3.5875 19.5959 3.52906L18.3459 2.27906ZM19.0625 5.49563L17.9956 6.5625H16.3794L15.3125 5.49563V3.87937L16.3794 2.8125H17.9956L19.0625 3.87937V5.49563Z" fill="black"/>
</g>
<defs>
<clipPath id="clip0_344_832">
<rect width="20" height="20" fill="white"/>
</clipPath>
</defs>
</svg>
