<svg width="20" height="20" viewBox="0 0 20 20" fill="none" xmlns="http://www.w3.org/2000/svg">
<path fill-rule="evenodd" clip-rule="evenodd" d="M18.0588 12.1254C17.7362 12.1254 17.5213 12.1605 17.1729 12.1367C16.6782 12.103 16.3324 11.8178 16.1533 11.368C15.9476 10.8512 15.9864 9.96621 15.7061 9.31389C15.3818 8.55933 14.9359 8.08161 14.202 7.69841L14.1431 7.66929L12.631 8.12209C12.1991 8.25709 10.7238 8.70693 10.3421 8.76841C10.2889 8.77673 10.2357 8.78761 10.1823 8.79893C10.2942 8.79533 10.6128 8.91905 10.7361 8.96221C10.9278 9.02929 11.1507 9.15637 11.3177 9.28065L11.4664 9.38957C11.5654 9.44329 11.6362 9.54153 11.6993 9.58221L11.9432 9.83033C12.0326 9.92605 12.2286 10.2548 12.2864 10.3659C12.5267 10.8278 12.5912 11.3337 12.5727 11.8442C12.5604 12.0574 12.5244 12.27 12.4672 12.4762C12.4888 12.5391 12.5112 12.6018 12.5359 12.6631C12.6575 12.961 12.7942 13.2299 12.9982 13.4771C13.4401 14.0124 13.8545 14.1754 14.5256 14.19L14.9968 14.1882C15.0644 14.184 15.1319 14.1805 15.1994 14.1884C15.2151 14.1902 15.2336 14.19 15.25 14.1884L15.7662 14.1794L17.0478 13.0216L18.0588 12.1254ZM15.7986 14.8104C15.685 14.5587 14.905 14.6667 14.6347 14.6638C14.4189 14.6602 14.1148 14.6426 13.8913 14.5833L13.6808 14.5204C13.6438 14.5105 13.6084 14.4964 13.5747 14.4807L12.2776 14.551L10.7729 14.6049L10.3467 14.6081C10.3206 14.6151 10.2947 14.6213 10.2686 14.6259C9.95156 14.6845 9.9048 14.7071 9.5968 14.717C9.43884 14.7222 9.2834 14.7201 9.1262 14.7016C8.99092 14.6849 8.85612 14.6581 8.72408 14.6227C8.6272 14.6266 8.53168 14.6296 8.4348 14.622C8.41144 14.6202 8.38416 14.6204 8.36012 14.622C8.16656 14.6336 7.97048 14.6259 7.77528 14.6292L6.58876 14.6375L4.80192 14.6534L4.43168 14.6539C4.4 14.6588 4.36856 14.6627 4.3364 14.6671C4.09004 14.6978 3.80152 14.6817 3.55248 14.6551C3.50828 14.652 3.16552 14.6541 3.10064 14.6662L2.92164 14.7034C2.58244 14.7986 2.28232 15.067 2.15184 15.3904C2.08024 15.5679 2.04824 15.8328 2.07828 16.0229C2.12864 16.3415 2.32788 16.6636 2.6016 16.8376C2.75996 16.9383 2.93972 17.0019 3.12536 17.0242C3.27312 17.042 3.9266 17.0237 4.11324 17.0237L8.03404 16.9932L10.9938 16.9881L12.84 16.9997C13.0452 17.0011 13.2512 16.9994 13.4554 17.0085C13.4797 17.0096 13.5051 17.0092 13.5303 17.0092L15.1224 17.02C15.2972 17.023 15.4244 17.0366 15.5708 16.9C15.8818 16.61 15.6624 16.0854 15.2566 16.0594V16.0583C14.772 16.098 13.8663 16.0535 13.2963 16.0692L13.0586 16.075C12.9718 16.0852 12.9592 16.0696 12.9328 16.0743L12.3359 16.09L11.7338 16.106L10.6291 16.1115C10.5452 16.1203 10.4603 16.1171 10.3763 16.1192L10.1354 16.1312L9.50732 16.1384C9.46684 16.1388 9.4264 16.1444 9.38616 16.1444L8.61172 16.1628L7.79148 16.1765L7.0672 16.18L6.23796 16.1596L5.9186 16.1578C5.7346 16.1532 5.16084 16.1295 5.03224 16.0914C4.9156 16.0568 4.77144 16.0562 4.62616 16.019C4.46084 15.9768 4.42288 15.9858 4.25084 15.9148C4.22696 15.9049 4.2468 15.891 4.17384 15.8535C4.15784 15.8452 4.15804 15.8248 4.09428 15.7994C4.1968 15.7663 4.14636 15.7617 4.19488 15.7603C4.26272 15.7583 4.23308 15.7289 4.3156 15.7235C4.51824 15.7104 4.42944 15.658 4.69532 15.6694C4.80388 15.674 4.91932 15.6419 5.0572 15.6428L5.3546 15.6276C5.42348 15.6035 5.48032 15.6254 5.53336 15.6065C5.5366 15.6054 5.54028 15.6049 5.54352 15.6049C5.6106 15.6107 5.67372 15.5922 5.73824 15.5818L5.90428 15.5783C5.97296 15.5707 6.04212 15.5691 6.1108 15.563L6.86488 15.558C6.9088 15.5598 6.95252 15.5554 6.99668 15.555L8.11684 15.5517C8.19756 15.551 8.27872 15.5459 8.35944 15.5452L9.2398 15.5457C9.34132 15.5564 9.44144 15.5397 9.54252 15.5439C9.66028 15.5483 9.78972 15.5364 9.90648 15.5351C10.6 15.5344 11.2838 15.5622 11.9762 15.5802L12.5984 15.5852L13.6212 15.6042C13.6816 15.6061 13.7342 15.5888 13.7891 15.6176C13.811 15.6291 14.3416 15.6419 14.4732 15.6636C14.5743 15.6803 14.74 15.6334 14.7724 15.6664C14.805 15.6998 15.0301 15.6688 15.1278 15.6925C15.175 15.6611 15.2069 15.6597 15.2566 15.6574V15.6558C15.7291 15.6602 15.9792 15.1987 15.7986 14.8104ZM5.72408 14.1278L7.73132 14.1361C7.30988 13.8163 7.0018 13.4388 6.78112 12.9576C6.77164 12.9354 6.76192 12.9132 6.75176 12.8915C6.5364 13.3731 6.19164 13.7913 5.7634 14.0993C5.75024 14.1088 5.73704 14.1183 5.72408 14.1278ZM6.66552 10.3175L6.74668 10.4868C6.83468 10.2776 6.929 10.1168 7.05772 9.92881C6.88424 9.94569 6.59356 9.94773 6.4204 9.92997C6.51196 10.0525 6.59404 10.1818 6.66552 10.3175ZM6.37204 9.32037C6.59844 9.35209 6.8672 9.36269 7.08936 9.32361C7.29304 9.28781 7.43152 9.26357 7.63188 9.18441C8.26024 8.93613 8.79232 8.39813 9.03368 7.76549C9.22692 7.25901 9.26588 6.66069 9.10212 6.13937L9.04984 5.97033C8.85292 5.47693 8.52956 5.07861 8.11004 4.75837C7.944 4.63165 8.013 4.65701 7.78584 4.52921C7.59784 4.42341 7.356 4.31065 7.14944 4.24569C7.11012 4.23297 7.07288 4.21517 7.03472 4.20061C6.95796 4.21333 6.88188 4.23045 6.8044 4.23809C6.69256 4.24889 6.52784 4.33725 6.48644 4.31417C6.43564 4.28585 6.11068 4.42685 5.95364 4.36689C5.97004 4.34645 6.03624 4.32325 6.06348 4.31161C6.01928 4.30337 6.04404 4.30701 6.05328 4.28109C5.56948 4.47685 5.18128 4.79185 4.85312 5.19265C4.63024 5.46485 4.52748 5.64989 4.40332 5.96409L4.32284 6.21729C4.29992 6.37657 4.27588 6.42269 4.259 6.61873C4.18276 7.50617 4.59056 8.39941 5.32136 8.91129C5.54428 9.06745 5.79736 9.18941 6.06228 9.25309C6.2196 9.29085 6.18804 9.29349 6.37204 9.32037ZM11.8766 13.6072C12.0663 13.3767 12.2037 13.149 12.325 12.879C12.3442 12.9301 12.3646 12.9805 12.3854 13.0312C12.5383 13.406 12.6482 13.6508 12.9138 13.9605L13.1751 14.2133C13.0928 14.2147 13.0102 14.2154 12.9316 14.211C12.7189 14.1994 12.5033 14.1978 12.2894 14.1918C12.0753 14.185 11.8596 14.183 11.6445 14.18C11.5601 14.1786 11.4734 14.183 11.3906 14.1793C11.3489 14.1774 11.3075 14.176 11.2659 14.1754C11.518 14.0018 11.6824 13.8414 11.8766 13.6072ZM11.949 11.4305C11.9782 11.8101 11.9219 12.187 11.786 12.5421C11.5436 13.1755 11.0158 13.7108 10.3846 13.961C10.1846 14.0403 10.0456 14.0647 9.84192 14.1004C9.62544 14.1384 9.34648 14.1285 9.12484 14.0974C8.95128 14.0731 8.96544 14.0666 8.81496 14.0297C8.5492 13.9646 8.29744 13.845 8.0738 13.6879C7.34872 13.1784 6.93144 12.2772 7.01144 11.3953C7.02864 11.2058 7.05024 11.1573 7.07528 10.9939L7.15596 10.7407C7.256 10.4854 7.34792 10.3068 7.51948 10.0758L7.78124 9.77153C7.7928 9.76737 7.8046 9.76321 7.8164 9.75929C8.17996 9.63289 8.55896 9.40009 8.84012 9.13769C8.94868 9.03637 8.894 9.06185 8.98488 9.04749L9.6844 8.91497C9.70916 8.92701 9.73136 8.94041 9.74452 8.95869L9.902 9.02229C10.1026 9.08501 10.3562 9.20273 10.5386 9.30581C10.7648 9.43365 10.6968 9.40825 10.8628 9.53497C11.1702 9.76961 11.4289 10.0492 11.6236 10.3834C11.6752 10.472 11.7858 10.6849 11.8144 10.7795C11.8848 11.0127 11.9362 11.1856 11.949 11.4305ZM7.68876 4.08077C7.70008 4.07753 7.7112 4.07385 7.723 4.07129L9.68512 3.61525L11.2576 3.26769L11.8727 3.10653L12.3708 2.97773C12.4613 2.97277 12.6531 3.02301 12.735 3.05705C13.2538 3.27261 13.5322 3.79793 13.719 4.30393C13.7811 4.46985 13.7868 4.51833 13.8356 4.68597C13.883 4.85017 13.9086 5.02037 13.9496 5.18821C14.0964 5.78749 13.9352 6.42533 13.7072 6.83917C13.579 7.07201 13.6385 7.16681 13.2086 7.30829C12.8923 7.41281 12.5711 7.50253 12.2573 7.61469C12.1266 7.66165 11.9941 7.70489 11.8646 7.75345C11.7716 7.78809 11.645 7.81697 11.5467 7.85681C11.4257 7.90561 11.3101 7.96157 11.1795 7.99601C11.1732 7.99785 11.1663 8.00085 11.161 8.00341C11.0552 8.05589 10.934 8.07289 10.8226 8.13105C10.7642 8.16153 10.3081 8.30837 10.2566 8.32437C10.0131 8.39989 9.7908 8.50357 9.56792 8.56809L9.24556 8.67261C9.60264 8.17761 9.82092 7.56445 9.82276 6.95421C9.82336 6.74817 9.82708 6.61545 9.78992 6.39989C9.72576 6.02757 9.63708 5.75825 9.44908 5.43373C9.41616 5.37689 9.23776 5.10349 9.19076 5.05333L8.9468 4.80521C8.87392 4.75553 8.81472 4.66797 8.7144 4.61281L8.56504 4.50389C8.22984 4.25905 8.04996 4.20909 7.68876 4.08077ZM19.0511 11.8671C19.0497 11.9598 19.0071 12.0433 18.9419 12.0992C18.0511 12.864 17.1604 13.622 16.2775 14.3962C16.2304 14.4376 16.0321 14.6228 15.9711 14.652C16.1038 14.8389 16.1931 15.1215 16.141 15.3522C16.0959 15.5422 15.987 15.7145 15.8348 15.8387C15.8342 15.8392 15.833 15.8399 15.8323 15.8406C16.1603 16.091 16.2816 16.5187 16.1519 16.9032C16.1018 17.0514 16.0593 17.1494 15.941 17.2685C15.6337 17.578 15.3462 17.5618 14.9386 17.5862C14.7833 17.5956 14.5979 17.5838 14.4458 17.5895C14.242 17.5971 14.0364 17.599 13.8325 17.6045C13.342 17.6179 12.8508 17.6078 12.3599 17.6128C12.1044 17.6154 11.8493 17.6135 11.5943 17.6098C11.4643 17.608 11.3339 17.6126 11.2037 17.6126L7.88024 17.6161L5.08608 17.6237C4.90616 17.6232 4.7244 17.6286 4.54704 17.6223C4.2462 17.6117 3.94856 17.6281 3.64936 17.6242C3.20316 17.6184 2.882 17.6606 2.44688 17.4378C1.59744 17.0028 1.25444 15.9933 1.6442 15.1338C1.81344 14.7606 2.10448 14.463 2.47252 14.284C1.75088 13.887 1.23088 13.1765 1.02956 12.382C0.948081 12.0605 0.932281 11.7023 0.962481 11.3735C0.981961 11.1616 1.07132 10.752 1.16528 10.5642C1.17152 10.5514 1.1766 10.5376 1.18192 10.5242C1.33148 10.1492 1.5146 9.87449 1.7952 9.58529C1.96748 9.40773 2.28668 9.15381 2.51508 9.07285C2.73644 8.99441 2.9066 8.90285 3.16028 8.86725C3.38412 8.83585 3.55 8.81505 3.77192 8.85477C3.77932 8.85593 3.78836 8.85777 3.79112 8.86101C3.81908 8.89137 3.8742 8.89317 3.91392 8.91629C3.96412 8.94545 3.96388 8.94545 4.01912 8.95861C3.88012 8.99101 3.94788 8.99301 3.86928 9.00185C3.76796 9.01325 3.81448 9.03397 3.69376 9.05505C3.48964 9.09065 3.45748 9.14633 3.38436 9.16489C3.2574 9.19709 3.0856 9.25761 2.97068 9.32353C2.76684 9.44041 2.60356 9.53753 2.42584 9.68821C2.38404 9.72365 2.35332 9.77293 2.2968 9.82809C2.25664 9.86733 2.23908 9.87717 2.20824 9.92845C2.20572 9.93237 2.20268 9.93633 2.19948 9.93953C2.09872 10.0365 2.0712 10.1286 1.99692 10.23C1.8084 10.4873 1.63812 10.9733 1.5994 11.2701C1.57288 11.4733 1.55788 11.6097 1.57468 11.8064C1.63592 12.6335 2.06548 13.3304 2.7818 13.753C3.08416 13.9314 3.15416 13.9291 3.42628 14.0204C3.58424 14.0733 3.94944 14.104 4.14916 14.084C5.0278 13.9958 5.72004 13.6031 6.18112 12.8359C6.416 12.4451 6.53104 11.91 6.49192 11.4676C6.47488 11.2749 6.47168 11.2213 6.42856 11.0343C6.36556 10.761 6.23292 10.4642 6.07152 10.2348C6.02696 10.1715 6.01704 10.1432 5.95912 10.0804C5.85816 9.97093 5.88428 9.96349 5.84352 9.91641L5.69088 9.75709C5.50936 9.68633 5.33476 9.59821 5.1708 9.49393C5.0464 9.41461 4.92892 9.32537 4.81744 9.22937C4.8028 9.22149 4.7332 9.21517 4.70944 9.18637C4.6872 9.15941 4.51984 9.11945 4.4916 9.11721C4.3976 9.10981 4.10116 9.06001 4.01916 9.01409C4.04628 9.00017 4.14872 8.99309 4.1836 8.99281C4.13544 8.97025 4.14952 8.98893 4.19308 8.95117C4.17836 8.93585 4.0716 8.92969 4.14312 8.91557C4.24392 8.89565 4.39164 8.90257 4.49692 8.91001C3.70868 8.00693 3.52196 6.69977 4.03836 5.61057C4.1334 5.41009 4.24028 5.22793 4.37944 5.05625C4.44 4.98153 4.48548 4.89745 4.57116 4.84813L4.88752 4.57017C5.1914 4.34149 5.33732 4.28465 5.69064 4.13521C6.0548 3.98117 5.90008 4.06533 6.04028 4.03553L6.23684 3.99945C6.44976 3.93893 6.64104 3.97741 6.64268 3.97725L6.95624 3.84985C7.39052 3.68337 7.51608 3.65321 7.95592 3.53441L8.2066 3.46621C8.2928 3.43501 8.31468 3.44473 8.34028 3.43361L9.30596 3.16905L10.733 2.80253C10.7471 2.79905 10.7622 2.79653 10.776 2.79121C10.863 2.76069 10.9534 2.74173 11.0426 2.71745L11.2952 2.64253C11.3574 2.63189 11.417 2.61361 11.4772 2.59513L11.9598 2.47005C12.0026 2.45917 12.0442 2.44301 12.0872 2.43257C12.3365 2.37117 12.3138 2.36069 12.5675 2.39025C13.4426 2.49221 13.9995 3.24333 14.2792 4.01661C14.3618 4.24505 14.4237 4.47625 14.4732 4.71313L14.5677 5.30973C14.5967 5.52757 14.6141 6.11785 14.5573 6.32049C14.5126 6.47809 14.5161 6.59737 14.454 6.77653C14.4186 6.87853 14.3907 6.97177 14.3418 7.07045C15.0442 7.39737 15.6133 7.87145 16.0126 8.54257C16.4468 9.27249 16.4729 9.68989 16.5754 10.4644C16.5916 10.5826 16.6122 10.7012 16.626 10.812C16.6514 11.0239 16.7338 11.3255 16.9292 11.4521C17.1532 11.5972 17.5809 11.5353 17.89 11.5392L18.7447 11.5506C18.917 11.5533 19.0541 11.6953 19.0511 11.8671ZM10.9066 11.2309C10.9593 11.4375 10.975 11.5298 10.9662 11.7429C10.9405 12.2732 10.5742 12.812 10.0835 12.9981C9.9292 13.0567 9.97264 13.0438 9.8162 13.0751C9.66412 13.1056 9.707 13.0988 9.55884 13.108C9.38928 13.1185 9.2422 13.1031 9.07784 13.0497C8.77876 12.9524 8.48992 12.7166 8.32884 12.4521L8.20372 12.191C8.13976 12.0072 8.10592 11.8466 8.1082 11.6481C8.11044 11.4518 8.16396 11.2393 8.25204 11.0635C8.36832 10.8313 8.38892 10.8552 8.43796 10.7721C8.47296 10.7128 8.50576 10.7255 8.52744 10.7039L8.65808 10.5929C8.74272 10.5336 8.85364 10.468 8.9536 10.4442L9.12728 10.3652C9.16496 10.3502 9.15512 10.3788 9.19456 10.3726L9.39112 10.3427C9.4232 10.3422 9.5016 10.3711 9.52432 10.395C9.51148 10.4101 9.47256 10.4184 9.44848 10.426C9.47168 10.4376 9.46308 10.43 9.44824 10.4678C9.45576 10.4812 9.5032 10.4811 9.47228 10.4995C9.36896 10.5612 9.29092 10.5403 9.07476 10.7284C8.93336 10.8515 8.70712 11.1476 8.65804 11.3193C8.59332 11.5424 8.588 11.796 8.70428 12.0112C8.7976 12.1839 8.81888 12.2333 9.00812 12.3772L9.18524 12.4667L9.3018 12.4926C9.36068 12.5191 9.5462 12.516 9.60612 12.5112C9.6258 12.5091 9.64428 12.4996 9.66348 12.497C9.89444 12.4602 10.0875 12.2995 10.2113 12.1095C10.3596 11.8818 10.3944 11.5308 10.2774 11.2786C10.1646 11.0354 10.0112 10.9209 9.98168 10.8677C9.94428 10.8002 9.7514 10.6712 9.67296 10.6163C9.59176 10.5591 9.62628 10.5547 9.57512 10.5076C9.561 10.4946 9.56828 10.4792 9.52424 10.4508C9.54276 10.4431 9.56124 10.4394 9.57396 10.4198C9.58096 10.4094 9.60936 10.4248 9.63408 10.4001C9.66404 10.3702 9.71268 10.4019 9.81884 10.3677C9.85044 10.3576 9.93516 10.3841 9.96568 10.3973C10.0777 10.4459 10.0887 10.4053 10.2866 10.5256L10.3849 10.592C10.461 10.6368 10.4264 10.6047 10.5026 10.6706L10.5399 10.6963C10.5937 10.7696 10.625 10.7417 10.7131 10.8725C10.8042 11.0075 10.8566 11.0695 10.9066 11.2309ZM6.61948 8.33273C6.52208 8.32237 6.41856 8.30385 6.32556 8.27305C6.0252 8.17357 5.74172 7.94561 5.57632 7.67549L5.451 7.41417C5.3874 7.23265 5.35324 7.06613 5.35572 6.87121C5.3592 6.59857 5.4618 6.29865 5.61956 6.07941C5.64212 6.04809 5.65832 6.04053 5.68548 5.99525C5.72144 5.93529 5.75388 5.94885 5.77496 5.92729C5.8896 5.82033 6.049 5.70417 6.20116 5.66737C6.27304 5.64997 6.377 5.56417 6.41252 5.59153C6.4348 5.60869 6.57704 5.56657 6.63844 5.56585C6.67132 5.56549 6.74768 5.59393 6.77164 5.61789C6.75916 5.63333 6.72108 5.64113 6.69604 5.64933C6.72072 5.66037 6.70876 5.65637 6.69556 5.69121C6.70548 5.70841 6.78296 5.70309 6.66316 5.74833C6.52308 5.80121 6.43792 5.85141 6.32232 5.95157C6.17816 6.07649 5.95768 6.36757 5.90584 6.54265C5.83964 6.76373 5.83672 7.02177 5.95184 7.23453C6.04348 7.40385 6.06792 7.46037 6.25568 7.60061L6.43304 7.69009L6.54936 7.71601C6.6088 7.74213 6.79336 7.73957 6.85344 7.73449C6.87308 7.73217 6.89184 7.72249 6.91104 7.72017C7.14 7.68469 7.3354 7.52281 7.45908 7.33281C7.57232 7.15889 7.62584 6.87757 7.5784 6.67189C7.54176 6.51305 7.55236 6.55285 7.47504 6.40573C7.40456 6.27165 7.24932 6.12701 7.229 6.09101C7.18984 6.02169 7.00092 5.89613 6.92052 5.83965C6.83992 5.78233 6.87528 5.78165 6.82248 5.73073C6.80852 5.71729 6.81496 5.70149 6.7716 5.67409C6.79032 5.66597 6.80884 5.66277 6.82156 5.64309C6.82876 5.63189 6.85712 5.64861 6.88192 5.62345C6.911 5.59393 6.9588 5.62473 7.06644 5.59105C7.09908 5.58085 7.18184 5.60705 7.21304 5.62041C7.33156 5.67113 7.33412 5.62753 7.534 5.74897L7.63228 5.81509C7.71256 5.86117 7.67404 5.82965 7.7502 5.89373L7.7872 5.91965C7.83968 5.99033 7.87372 5.96669 7.96064 6.09561C8.0178 6.18041 8.08136 6.26285 8.11904 6.35925C8.3936 7.06141 8.06524 7.88157 7.39244 8.19325C7.2056 8.27981 7.18876 8.27089 7.00304 8.31025C6.88896 8.33449 6.7384 8.33929 6.61948 8.33273ZM3.1762 11.6432C3.20816 11.4324 3.17252 11.5496 3.25044 11.295C3.29144 11.161 3.3184 11.1581 3.3272 11.1315C3.33296 11.1162 3.33528 11.0982 3.34244 11.0827C3.35876 11.0477 3.37256 11.0452 3.37388 11.0381C3.37808 11.0157 3.38664 11.012 3.4014 10.9985C3.43248 10.9703 3.40744 10.9423 3.54132 10.8582C3.65016 10.7898 3.62644 10.7676 3.78252 10.7259C3.81028 10.7185 3.80148 10.6789 3.894 10.6524C3.93996 10.6392 3.92204 10.6135 3.96016 10.6098C3.99096 10.6068 3.9536 10.6062 4.01912 10.5675C3.97908 10.5441 3.98252 10.527 3.96848 10.5161C3.91372 10.4736 3.93168 10.468 3.91392 10.4578C3.81016 10.3982 3.59648 10.3949 3.48772 10.4229L3.27636 10.478C3.054 10.5714 2.87792 10.7532 2.75372 10.9569L2.66956 11.1382C2.60136 11.2576 2.55644 11.5264 2.55648 11.661C2.55652 11.9192 2.61004 12.1378 2.744 12.3665C2.9472 12.7135 3.20828 12.8956 3.5848 13.0163C3.7566 13.0714 3.9968 13.088 4.16776 13.0665L4.3812 13.0214C4.42476 13.0148 4.59916 12.9309 4.649 12.9056L4.82916 12.7886C5.14792 12.5477 5.34756 12.2306 5.386 11.8335C5.40012 11.6878 5.38956 11.5146 5.35684 11.3717L5.3268 11.2811C5.32888 11.2414 5.30332 11.2118 5.2854 11.165C5.22796 11.0152 5.0846 10.8004 4.95424 10.7011C4.79472 10.5796 4.5656 10.4956 4.36916 10.4937C4.31264 10.4931 4.18092 10.4932 4.1296 10.5046C4.0032 10.5326 4.08996 10.5462 4.0896 10.558C4.08888 10.5818 4.05748 10.577 4.08428 10.5998C4.0672 10.6038 4.02992 10.6092 4.01908 10.6234C4.0526 10.6688 4.14292 10.7067 4.19668 10.6995C4.20104 10.699 4.27092 10.7163 4.27556 10.7368C4.28076 10.7598 4.31736 10.7578 4.36736 10.7698C4.42256 10.7831 4.49252 10.8469 4.53688 10.885C4.75508 11.0722 4.64604 11.0362 4.70916 11.0938L4.74756 11.1498C4.88964 11.361 4.91996 11.6157 4.85856 11.8597C4.84332 11.9202 4.80324 12.0177 4.76952 12.0632C4.61064 12.278 4.51976 12.3441 4.26864 12.4334L4.12572 12.4654C4.01052 12.4905 4.00116 12.478 3.88616 12.4735C3.8186 12.4708 3.83628 12.4579 3.77748 12.4446C3.64504 12.4146 3.46612 12.2864 3.37536 12.1876C3.26828 12.071 3.18864 11.8584 3.18136 11.7055C3.18084 11.6848 3.17344 11.664 3.1762 11.6432Z" fill="black"/>
</svg>
