<svg width="20" height="20" viewBox="0 0 20 20" fill="none" xmlns="http://www.w3.org/2000/svg">
<g clip-path="url(#clip0_344_878)">
<path d="M4.0625 5H2.1875C1.32594 5 0.625 5.70094 0.625 6.5625V17.8125C0.625 18.6741 1.32594 19.375 2.1875 19.375H4.0625C4.92406 19.375 5.625 18.6741 5.625 17.8125V6.5625C5.625 5.70094 4.92406 5 4.0625 5ZM2.1875 5.625H4.0625C4.57938 5.625 5 6.04562 5 6.5625V7.5H3.75C3.66719 7.5 3.5875 7.53281 3.52906 7.59156L1.25 9.87063V6.5625C1.25 6.04562 1.67062 5.625 2.1875 5.625ZM4.0625 18.75H2.1875C1.67062 18.75 1.25 18.3294 1.25 17.8125V10.7544L3.87937 8.125H5V17.8125C5 18.3294 4.57938 18.75 4.0625 18.75Z" fill="black"/>
<path d="M0.9375 4.375H10.3125C10.485 4.375 10.625 4.23531 10.625 4.0625V0.9375C10.625 0.764688 10.485 0.625 10.3125 0.625H0.9375C0.765 0.625 0.625 0.764688 0.625 0.9375V4.0625C0.625 4.23531 0.765 4.375 0.9375 4.375ZM4.375 3.75V1.25H6.875V3.75H4.375ZM10 3.75H8.75V1.25H10V3.75ZM8.125 1.25V3.75H7.5V1.25H8.125ZM3.75 1.25V3.75H3.125V1.25H3.75ZM1.25 1.25H2.5V3.75H1.25V1.25Z" fill="black"/>
<path d="M18.4375 0.625H12.1875C11.6706 0.625 11.25 1.04562 11.25 1.5625V3.75C11.25 3.92281 11.39 4.0625 11.5625 4.0625V6.5625C11.5625 7.07937 11.9831 7.5 12.5 7.5H18.125C18.6419 7.5 19.0625 7.07937 19.0625 6.5625V4.0625C19.235 4.0625 19.375 3.92281 19.375 3.75V1.5625C19.375 1.04562 18.9544 0.625 18.4375 0.625ZM11.875 1.5625C11.875 1.39 12.0153 1.25 12.1875 1.25H18.4375C18.6097 1.25 18.75 1.39 18.75 1.5625V3.4375H11.875V1.5625ZM13.75 4.0625H16.875V5C16.875 5.1725 16.7347 5.3125 16.5625 5.3125H14.0625C13.8903 5.3125 13.75 5.1725 13.75 5V4.0625ZM18.4375 6.5625C18.4375 6.735 18.2972 6.875 18.125 6.875H12.5C12.3278 6.875 12.1875 6.735 12.1875 6.5625V4.0625H13.125V5C13.125 5.51687 13.5456 5.9375 14.0625 5.9375H16.5625C17.0794 5.9375 17.5 5.51687 17.5 5V4.0625H18.4375V6.5625Z" fill="black"/>
<path d="M17.6573 8.125H7.96853C7.52291 8.125 7.09728 8.31594 6.80103 8.64937C6.50478 8.98281 6.36478 9.4275 6.41697 9.87031L7.37291 17.9953C7.46509 18.7819 8.13228 19.375 8.92447 19.375H16.7013C17.4935 19.375 18.1607 18.7819 18.2532 17.9953L19.2092 9.87031C19.2613 9.4275 19.1213 8.9825 18.8251 8.64937C18.5288 8.31625 18.1029 8.125 17.6573 8.125ZM18.3579 9.06469C18.5357 9.26469 18.6198 9.53156 18.5885 9.79719L18.3148 12.1228L17.1879 12.7653V12.1875C17.1879 12.0147 17.0479 11.875 16.8754 11.875H15.6254C15.4529 11.875 15.3129 12.0147 15.3129 12.1875V12.8062L14.0629 12.5563V10.4419L15.7548 8.75H17.6573C17.9248 8.75 18.1801 8.86469 18.3579 9.06469ZM9.06291 13.75V12.5H9.68791V13.75H9.06291ZM9.68791 14.375H10.0004C10.1729 14.375 10.3129 14.2353 10.3129 14.0625V13.4375C10.3335 13.4375 10.3538 13.4353 10.3742 13.4312L11.9063 13.125H13.7195L15.2517 13.4312C15.272 13.4353 15.2923 13.4375 15.3129 13.4375V14.0625C15.3129 14.2353 15.4529 14.375 15.6254 14.375H15.9379V15.9375C15.9379 16.4544 15.5173 16.875 15.0004 16.875H10.6254C10.1085 16.875 9.68791 16.4544 9.68791 15.9375V14.375ZM13.5295 10.0916C13.4707 10.15 13.4379 10.2294 13.4379 10.3125V12.5H12.1879V10.3125C12.1879 10.2294 12.1551 10.15 12.0963 10.0916L10.7548 8.75H14.871L13.5295 10.0916ZM15.9379 13.75V12.5H16.5629V13.75H15.9379ZM7.26791 9.06469C7.44572 8.86469 7.70103 8.75 7.96853 8.75H9.87103L11.5629 10.4419V12.5563L10.3129 12.8062V12.1875C10.3129 12.0147 10.1729 11.875 10.0004 11.875H8.75041C8.57791 11.875 8.43791 12.0147 8.43791 12.1875V12.7653L7.31103 12.1225L7.03728 9.79688C7.00603 9.53156 7.0901 9.26437 7.26791 9.06469ZM17.6323 17.9222C17.577 18.3941 17.1767 18.75 16.7013 18.75H8.92447C8.44916 18.75 8.04884 18.3941 7.99353 17.9222L7.40166 12.8937L8.28291 13.3966C8.33009 13.4234 8.38353 13.4375 8.43791 13.4375V14.0625C8.43791 14.2353 8.57791 14.375 8.75041 14.375H9.06291V15.9375C9.06291 16.7991 9.76384 17.5 10.6254 17.5H15.0004C15.862 17.5 16.5629 16.7991 16.5629 15.9375V14.375H16.8754C17.0479 14.375 17.1879 14.2353 17.1879 14.0625V13.4375C17.2423 13.4375 17.2957 13.4234 17.3429 13.3962L18.2242 12.8934L17.6323 17.9222Z" fill="black"/>
</g>
<defs>
<clipPath id="clip0_344_878">
<rect width="20" height="20" fill="white"/>
</clipPath>
</defs>
</svg>
