<svg width="27" height="26" viewBox="0 0 27 26" fill="none" xmlns="http://www.w3.org/2000/svg">
<path d="M1.15281 12.8874C1.1502 15.0604 1.72111 17.1957 2.80799 19.078L1.04892 25.4943L7.62199 23.7726C9.44009 24.761 11.4769 25.2791 13.5468 25.2796H13.5523C20.3854 25.2796 25.948 19.7247 25.9509 12.8972C25.9522 9.58866 24.6636 6.47784 22.3225 4.13718C19.9819 1.79674 16.8688 0.507231 13.5518 0.50592C6.71763 0.50592 1.15565 6.06009 1.15281 12.8874Z" fill="url(#paint0_linear_344_8356)"/>
<path d="M0.710118 12.8835C0.707443 15.1344 1.2988 17.3462 2.42458 19.2959L0.602295 25.9423L7.41092 24.1588C9.29415 25.1832 11.4042 25.72 13.5485 25.7203H13.554C20.6323 25.7203 26.3944 19.9656 26.3977 12.8938C26.3988 9.4664 25.0638 6.24371 22.6392 3.81916C20.2141 1.39504 16.9897 0.0589891 13.554 0.0576782C6.47441 0.0576782 0.712962 5.81133 0.710118 12.8835ZM4.76498 18.961L4.51062 18.5579C3.44151 16.8584 2.8757 14.8914 2.87862 12.8842C2.8808 7.00623 7.66965 2.2242 13.5582 2.2242C16.4095 2.22529 19.0893 3.33564 21.1051 5.35054C23.1208 7.36564 24.2298 10.0441 24.229 12.8929C24.2263 18.7711 19.4377 23.554 13.5538 23.554H13.5499C11.638 23.5542 9.76136 23.0409 8.11625 22.0679L7.72629 21.8367L3.68609 22.8951L4.76498 18.961Z" fill="url(#paint1_linear_344_8356)"/>
<path d="M10.3433 7.52133C10.1028 6.98756 9.84994 6.97686 9.62139 6.96746C9.43417 6.95938 9.22006 6.96003 9.00638 6.96003C8.79204 6.96003 8.44451 7.04044 8.15057 7.36118C7.85641 7.68192 7.02728 8.45733 7.02728 10.0348C7.02728 11.6123 8.17725 13.1362 8.33757 13.3504C8.4981 13.564 10.5577 16.9045 13.8195 18.1894C16.5306 19.2574 17.0822 19.045 17.6705 18.9915C18.2588 18.9382 19.5694 18.2163 19.8366 17.4675C20.1041 16.719 20.1041 16.0773 20.0238 15.9434C19.9438 15.8099 19.7297 15.7295 19.4088 15.5693C19.0878 15.4089 17.51 14.6333 17.216 14.5263C16.9217 14.4194 16.7078 14.3661 16.4937 14.6871C16.2798 15.0076 15.6652 15.7295 15.478 15.9434C15.2908 16.1573 15.1033 16.1844 14.7825 16.0242C14.4614 15.8632 13.4278 15.525 12.2017 14.433C11.2477 13.583 10.6036 12.5339 10.4164 12.2129C10.2292 11.892 10.3965 11.7187 10.5572 11.5588C10.7016 11.4152 10.8783 11.1845 11.0388 10.9972C11.1989 10.81 11.2525 10.6765 11.3595 10.4626C11.4666 10.2485 11.4128 10.0615 11.3328 9.90109C11.2525 9.74072 10.6288 8.15538 10.3433 7.52133Z" fill="white"/>
<defs>
<linearGradient id="paint0_linear_344_8356" x1="1246.15" y1="2499.35" x2="1246.15" y2="0.50592" gradientUnits="userSpaceOnUse">
<stop stop-color="#1FAF38"/>
<stop offset="1" stop-color="#60D669"/>
</linearGradient>
<linearGradient id="paint1_linear_344_8356" x1="1290.37" y1="2588.52" x2="1290.37" y2="0.0576782" gradientUnits="userSpaceOnUse">
<stop stop-color="#F9F9F9"/>
<stop offset="1" stop-color="white"/>
</linearGradient>
</defs>
</svg>
