<svg width="32" height="33" viewBox="0 0 32 33" fill="none" xmlns="http://www.w3.org/2000/svg">
<path d="M0.682585 15.9155C0.679347 18.6112 1.38758 21.2601 2.73589 23.5952L0.553711 31.5548L8.70779 29.419C10.9632 30.6451 13.4899 31.2878 16.0577 31.2883H16.0645C24.5411 31.2883 31.4418 24.3974 31.4453 15.9277C31.4469 11.8234 29.8483 7.9643 26.9442 5.06065C24.0406 2.15727 20.1787 0.557595 16.0639 0.555969C7.5859 0.555969 0.686112 7.44607 0.682585 15.9155Z" fill="url(#paint0_linear_579_528)"/>
<path d="M0.133758 15.9108C0.13044 18.7031 0.864033 21.4469 2.26059 23.8656L0 32.1106L8.44628 29.8981C10.7825 31.1689 13.4001 31.8349 16.0602 31.8352H16.067C24.8478 31.8352 31.9958 24.6963 31.9999 15.9236C32.0012 11.6718 30.3451 7.67395 27.3374 4.66622C24.329 1.65903 20.329 0.00162624 16.067 0C7.28452 0 0.137285 7.13756 0.133758 15.9108ZM5.16392 23.4501L4.84839 22.95C3.52212 20.8418 2.82022 18.4016 2.82384 15.9117C2.82655 8.61987 8.76725 2.68763 16.0721 2.68763C19.6092 2.68898 22.9337 4.06641 25.4344 6.56594C27.9348 9.06573 29.3106 12.3884 29.3095 15.9225C29.3063 23.2145 23.3659 29.1479 16.0667 29.1479H16.0618C13.6902 29.148 11.3621 28.5113 9.32127 27.3043L8.83752 27.0175L3.82553 28.3304L5.16392 23.4501Z" fill="url(#paint1_linear_579_528)"/>
<path d="M12.0834 9.25882C11.7849 8.59667 11.4713 8.58339 11.1878 8.57173C10.9555 8.5617 10.6899 8.56252 10.4248 8.56252C10.159 8.56252 9.72784 8.66226 9.3632 9.06015C8.99828 9.45803 7.96973 10.42 7.96973 12.3769C7.96973 14.3338 9.3963 16.2243 9.59517 16.4899C9.79431 16.755 12.3493 20.8989 16.3957 22.4929C19.7589 23.8177 20.4431 23.5543 21.173 23.4879C21.9028 23.4217 23.5285 22.5262 23.8601 21.5974C24.1919 20.6688 24.1919 19.8727 24.0923 19.7066C23.993 19.541 23.7274 19.4412 23.3294 19.2426C22.9311 19.0436 20.9738 18.0814 20.6092 17.9486C20.244 17.8161 19.9786 17.7499 19.713 18.1481C19.4477 18.5457 18.6853 19.4412 18.453 19.7066C18.2208 19.9719 17.9883 20.0055 17.5903 19.8069C17.192 19.6071 15.9097 19.1875 14.3887 17.8329C13.2053 16.7785 12.4063 15.477 12.174 15.0789C11.9418 14.6807 12.1493 14.4658 12.3487 14.2674C12.5278 14.0893 12.747 13.8031 12.9462 13.5708C13.1448 13.3385 13.2112 13.1729 13.3439 12.9076C13.4769 12.6419 13.4101 12.4099 13.3108 12.211C13.2112 12.012 12.4375 10.0454 12.0834 9.25882Z" fill="white"/>
<defs>
<linearGradient id="paint0_linear_579_528" x1="1545.13" y1="3100.44" x2="1545.13" y2="0.555969" gradientUnits="userSpaceOnUse">
<stop stop-color="#1FAF38"/>
<stop offset="1" stop-color="#60D669"/>
</linearGradient>
<linearGradient id="paint1_linear_579_528" x1="1599.99" y1="3211.06" x2="1599.99" y2="0" gradientUnits="userSpaceOnUse">
<stop stop-color="#F9F9F9"/>
<stop offset="1" stop-color="white"/>
</linearGradient>
</defs>
</svg>
