<svg width="138" height="101" viewBox="0 0 138 101" fill="none" xmlns="http://www.w3.org/2000/svg">
<g opacity="0.4">
<path d="M3.71605 62.7302L10.5107 62.7302L10.5107 56.6905L3.71605 56.6905L3.71605 62.7302Z" fill="#EFEFEF"/>
<path d="M3.71605 43.9503L10.5107 43.9503L10.5107 37.9106L3.71605 37.9106L3.71605 43.9503Z" fill="#EFEFEF"/>
<path d="M3.71605 25.1708L10.5107 25.1708L10.5107 19.1311L3.71605 19.1311L3.71605 25.1708Z" fill="#EFEFEF"/>
<path d="M3.71605 15.781L10.5107 15.781L10.5107 9.74128L3.71605 9.74128L3.71605 15.781Z" fill="#EFEFEF"/>
<path d="M3.71605 6.39111L10.5107 6.39111L10.5107 0.351415L3.71605 0.351416L3.71605 6.39111Z" fill="#EFEFEF"/>
<path d="M14.2796 53.3403L21.0742 53.3403L21.0742 47.3006L14.2796 47.3006L14.2796 53.3403Z" fill="#EFEFEF"/>
<path d="M14.2796 43.9503L21.0742 43.9503L21.0742 37.9106L14.2796 37.9106L14.2796 43.9503Z" fill="#EFEFEF"/>
<path d="M14.2796 25.1708L21.0742 25.1708L21.0742 19.1311L14.2796 19.1311L14.2796 25.1708Z" fill="#EFEFEF"/>
<path d="M24.8968 25.1708L31.6914 25.1708L31.6914 19.1311L24.8968 19.1311L24.8968 25.1708Z" fill="#EFEFEF"/>
<path d="M24.8968 15.781L31.6914 15.781L31.6914 9.74128L24.8968 9.74128L24.8968 15.781Z" fill="#EFEFEF"/>
<path d="M24.8968 6.39111L31.6914 6.39111L31.6914 0.351415L24.8968 0.351416L24.8968 6.39111Z" fill="#EFEFEF"/>
<path d="M35.4603 72.1202L42.2549 72.1202L42.2549 66.0805L35.4603 66.0805L35.4603 72.1202Z" fill="#EFEFEF"/>
<path d="M35.4603 62.7302L42.2549 62.7302L42.2549 56.6905L35.4603 56.6905L35.4603 62.7302Z" fill="#EFEFEF"/>
<path d="M35.4603 43.9503L42.2549 43.9503L42.2549 37.9106L35.4603 37.9106L35.4603 43.9503Z" fill="#EFEFEF"/>
<path d="M35.4603 34.5608L42.2549 34.5608L42.2549 28.5211L35.4603 28.5211L35.4603 34.5608Z" fill="#EFEFEF"/>
<path d="M35.4603 6.39111L42.2549 6.39111L42.2549 0.351415L35.4603 0.351416L35.4603 6.39111Z" fill="#EFEFEF"/>
<path d="M46.0237 72.1202L52.8184 72.1202L52.8184 66.0805L46.0237 66.0805L46.0237 72.1202Z" fill="#EFEFEF"/>
<path d="M46.0237 15.781L52.8184 15.781L52.8184 9.74128L46.0237 9.74128L46.0237 15.781Z" fill="#EFEFEF"/>
<path d="M46.0237 6.39111L52.8184 6.39111L52.8184 0.351415L46.0237 0.351416L46.0237 6.39111Z" fill="#EFEFEF"/>
<path d="M56.5871 53.3403L63.3818 53.3403L63.3818 47.3006L56.5871 47.3006L56.5871 53.3403Z" fill="#EFEFEF"/>
<path d="M56.5871 25.1708L63.3818 25.1708L63.3818 19.1311L56.5871 19.1311L56.5871 25.1708Z" fill="#EFEFEF"/>
<path d="M67.1506 81.5103L73.9453 81.5103L73.9453 75.4705L67.1506 75.4705L67.1506 81.5103Z" fill="#EFEFEF"/>
<path d="M67.1506 62.7302L73.9453 62.7302L73.9453 56.6905L67.1506 56.6905L67.1506 62.7302Z" fill="#EFEFEF"/>
<path d="M67.1506 34.5608L73.9453 34.5608L73.9453 28.5211L67.1506 28.5211L67.1506 34.5608Z" fill="#EFEFEF"/>
<path d="M67.1506 25.1708L73.9453 25.1708L73.9453 19.1311L67.1506 19.1311L67.1506 25.1708Z" fill="#EFEFEF"/>
<path d="M67.1506 6.39111L73.9453 6.39111L73.9453 0.351415L67.1506 0.351416L67.1506 6.39111Z" fill="#EFEFEF"/>
<path d="M77.7142 53.3403L84.5088 53.3403L84.5088 47.3006L77.7142 47.3006L77.7142 53.3403Z" fill="#EFEFEF"/>
<path d="M77.7142 43.9503L84.5088 43.9503L84.5088 37.9106L77.7142 37.9106L77.7142 43.9503Z" fill="#EFEFEF"/>
<path d="M77.7142 15.781L84.5088 15.781L84.5088 9.74128L77.7142 9.74128L77.7142 15.781Z" fill="#EFEFEF"/>
<path d="M88.2776 53.3403L95.0723 53.3403L95.0723 47.3006L88.2776 47.3006L88.2776 53.3403Z" fill="#EFEFEF"/>
<path d="M88.2776 34.5608L95.0723 34.5608L95.0723 28.5211L88.2776 28.5211L88.2776 34.5608Z" fill="#EFEFEF"/>
<path d="M88.2776 25.1708L95.0723 25.1708L95.0723 19.1311L88.2776 19.1311L88.2776 25.1708Z" fill="#EFEFEF"/>
<path d="M88.2776 15.781L95.0723 15.781L95.0723 9.74128L88.2776 9.74128L88.2776 15.781Z" fill="#EFEFEF"/>
<path d="M88.2776 6.39111L95.0723 6.39111L95.0723 0.351415L88.2776 0.351416L88.2776 6.39111Z" fill="#EFEFEF"/>
<path d="M98.842 43.9503L105.637 43.9503L105.637 37.9106L98.842 37.9106L98.842 43.9503Z" fill="#EFEFEF"/>
<path d="M98.842 34.5608L105.637 34.5608L105.637 28.5211L98.842 28.5211L98.842 34.5608Z" fill="#EFEFEF"/>
<path d="M98.842 6.39111L105.637 6.39111L105.637 0.351415L98.842 0.351416L98.842 6.39111Z" fill="#EFEFEF"/>
<path d="M109.406 100.337L116.2 100.337L116.2 94.2971L109.406 94.2971L109.406 100.337Z" fill="#EFEFEF"/>
<path d="M109.406 62.7302L116.2 62.7302L116.2 56.6905L109.406 56.6905L109.406 62.7302Z" fill="#EFEFEF"/>
<path d="M109.406 53.3403L116.2 53.3403L116.2 47.3006L109.406 47.3006L109.406 53.3403Z" fill="#EFEFEF"/>
<path d="M109.406 25.1708L116.2 25.1708L116.2 19.1311L109.406 19.1311L109.406 25.1708Z" fill="#EFEFEF"/>
<path d="M109.406 15.781L116.2 15.781L116.2 9.74128L109.406 9.74128L109.406 15.781Z" fill="#EFEFEF"/>
<path d="M119.969 90.9468L126.764 90.9468L126.764 84.9071L119.969 84.9071L119.969 90.9468Z" fill="#EFEFEF"/>
<path d="M119.969 72.1202L126.764 72.1202L126.764 66.0805L119.969 66.0805L119.969 72.1202Z" fill="#EFEFEF"/>
<path d="M119.969 62.7302L126.764 62.7302L126.764 56.6905L119.969 56.6905L119.969 62.7302Z" fill="#EFEFEF"/>
<path d="M119.969 43.9503L126.764 43.9503L126.764 37.9106L119.969 37.9106L119.969 43.9503Z" fill="#EFEFEF"/>
<path d="M119.969 25.1708L126.764 25.1708L126.764 19.1311L119.969 19.1311L119.969 25.1708Z" fill="#EFEFEF"/>
<path d="M119.969 6.39111L126.764 6.39111L126.764 0.351415L119.969 0.351416L119.969 6.39111Z" fill="#EFEFEF"/>
<path d="M130.533 72.1202L137.327 72.1202L137.327 66.0805L130.533 66.0805L130.533 72.1202Z" fill="#EFEFEF"/>
<path d="M130.533 62.7302L137.327 62.7302L137.327 56.6905L130.533 56.6905L130.533 62.7302Z" fill="#EFEFEF"/>
<path d="M130.533 53.3403L137.327 53.3403L137.327 47.3006L130.533 47.3006L130.533 53.3403Z" fill="#EFEFEF"/>
<path d="M130.533 34.5608L137.327 34.5608L137.327 28.5211L130.533 28.5211L130.533 34.5608Z" fill="#EFEFEF"/>
<path d="M130.533 15.781L137.327 15.781L137.327 9.74128L130.533 9.74128L130.533 15.781Z" fill="#EFEFEF"/>
<path d="M130.533 6.39111L137.327 6.39111L137.327 0.351415L130.533 0.351416L130.533 6.39111Z" fill="#EFEFEF"/>
<path d="M3.71605 25.2651L10.5107 25.2651L10.5107 19.2254L3.71605 19.2254L3.71605 25.2651Z" fill="url(#paint0_linear_344_950)"/>
<path d="M38.9103 -40.8888C17.4208 -40.8888 0.000154937 -25.4038 0.000156816 -6.30209C0.000158694 12.7996 17.4208 28.2847 38.9103 28.2847C60.3997 28.2847 77.8203 12.7996 77.8203 -6.3021C77.8203 -25.4038 60.3997 -40.8888 38.9103 -40.8888Z" fill="url(#paint1_radial_344_950)"/>
<path d="M38.9101 -29.4229C24.5447 -29.4229 12.8992 -19.0714 12.8992 -6.30213C12.8992 6.4671 24.5447 16.8186 38.9101 16.8186C53.2755 16.8186 64.9209 6.4671 64.9209 -6.30214C64.9209 -19.0714 53.2754 -29.4229 38.9101 -29.4229Z" fill="url(#paint2_radial_344_950)"/>
</g>
<defs>
<linearGradient id="paint0_linear_344_950" x1="17.9526" y1="-369.858" x2="8.27633" y2="74.4883" gradientUnits="userSpaceOnUse">
<stop stop-color="#393939"/>
<stop offset="0.0637863" stop-color="#4F4F4F"/>
<stop offset="0.1817" stop-color="#717171"/>
<stop offset="0.3076" stop-color="#8E8E8E"/>
<stop offset="0.4421" stop-color="#A3A3A3"/>
<stop offset="0.5893" stop-color="#B3B3B3"/>
<stop offset="0.7585" stop-color="#BCBCBC"/>
<stop offset="1" stop-color="#BFBFBF"/>
</linearGradient>
<radialGradient id="paint1_radial_344_950" cx="0" cy="0" r="1" gradientUnits="userSpaceOnUse" gradientTransform="translate(38.886 -6.31553) rotate(180) scale(38.8871 34.5663)">
<stop stop-color="white"/>
<stop offset="1" stop-color="white" stop-opacity="0"/>
</radialGradient>
<radialGradient id="paint2_radial_344_950" cx="0" cy="0" r="1" gradientUnits="userSpaceOnUse" gradientTransform="translate(38.8857 -6.31554) rotate(180) scale(26.0052 23.1157)">
<stop stop-color="white"/>
<stop offset="0.0732435" stop-color="white" stop-opacity="0.8587"/>
<stop offset="0.5182" stop-color="white" stop-opacity="0"/>
</radialGradient>
</defs>
</svg>
