<svg width="56" height="56" viewBox="0 0 56 56" fill="none" xmlns="http://www.w3.org/2000/svg">
<circle cx="28" cy="28" r="28" fill="#F9F9F9"/>
<path d="M27.612 39.9646H20.5743C18.6317 39.9646 17.0547 38.3876 17.0547 36.4451V23.7764C17.0547 22.6085 17.9983 21.6649 19.1662 21.6649H33.2429C34.4108 21.6649 35.3544 22.6085 35.3544 23.7764V25.1845C35.3544 25.579 35.6645 25.8878 36.0577 25.8878C36.4523 25.8878 36.7611 25.5777 36.7611 25.1845V23.7764C36.7611 21.8338 35.1841 20.2568 33.2416 20.2568H31.1301V19.5535C31.1301 16.8363 28.9197 14.6272 26.2039 14.6272C23.4867 14.6272 21.2776 16.8376 21.2776 19.5535V20.2568H19.1662C17.2237 20.2568 15.6467 21.8338 15.6467 23.7764V36.4451C15.6467 39.1623 17.8571 41.3714 20.5729 41.3714H27.6106C28.0052 41.3714 28.314 41.0612 28.314 40.668C28.314 40.2734 28.0039 39.9646 27.6106 39.9646H27.612ZM22.6857 19.5535C22.6857 17.6109 24.2627 16.0339 26.2052 16.0339C28.1478 16.0339 29.7248 17.6109 29.7248 19.5535V20.2568H22.6871V19.5535H22.6857Z" fill="black"/>
<path d="M19.8696 25.1845C19.8696 26.3523 20.8131 27.2959 21.981 27.2959C23.1489 27.2959 24.0925 26.3523 24.0925 25.1845C24.0925 24.0166 23.1489 23.073 21.981 23.073C20.8131 23.073 19.8696 24.0166 19.8696 25.1845ZM22.6857 25.1845C22.6857 25.579 22.3756 25.8878 21.9823 25.8878C21.5877 25.8878 21.279 25.5777 21.279 25.1845C21.279 24.7899 21.5891 24.4811 21.9823 24.4811C22.3769 24.4811 22.6857 24.7912 22.6857 25.1845Z" fill="black"/>
<path d="M28.3154 25.1845C28.3154 26.3523 29.2589 27.2959 30.4268 27.2959C31.5947 27.2959 32.5383 26.3523 32.5383 25.1845C32.5383 24.0166 31.5947 23.073 30.4268 23.073C29.2589 23.073 28.3154 24.0166 28.3154 25.1845ZM31.1315 25.1845C31.1315 25.579 30.8214 25.8878 30.4281 25.8878C30.0335 25.8878 29.7248 25.5777 29.7248 25.1845C29.7248 24.7899 30.0349 24.4811 30.4281 24.4811C30.8227 24.4811 31.1315 24.7912 31.1315 25.1845Z" fill="black"/>
<path d="M39.9151 33.2635C39.535 33.179 39.2394 32.9256 39.0982 32.5733C38.957 32.2209 38.986 31.8277 39.1827 31.503C39.535 30.954 39.4506 30.2639 38.9992 29.7993C38.5347 29.3348 37.8591 29.2649 37.3101 29.6159C36.9868 29.8271 36.5922 29.8548 36.2398 29.7004C35.8875 29.5592 35.6341 29.2504 35.5497 28.8835C35.4085 28.25 34.874 27.8132 34.2129 27.8132C33.5649 27.8132 33.0304 28.2355 32.8761 28.8835C32.7916 29.2635 32.5382 29.5591 32.1859 29.7004C31.8335 29.8416 31.4403 29.8125 31.1156 29.6159C30.5666 29.2635 29.8765 29.348 29.4119 29.7993C28.9474 30.2639 28.8775 30.9395 29.2285 31.503C29.4397 31.8263 29.4674 32.2209 29.313 32.5733C29.1718 32.9256 28.863 33.179 28.4961 33.2635C27.8627 33.4047 27.4258 33.9391 27.4258 34.6003C27.4258 35.2482 27.8481 35.7827 28.4961 35.9371C28.8762 36.0215 29.1718 36.2749 29.313 36.6273C29.4542 36.9796 29.4251 37.3729 29.2285 37.6975C28.8762 38.2465 28.9606 38.9367 29.4119 39.3867C29.8765 39.8512 30.5521 39.9211 31.1156 39.5701C31.4389 39.359 31.8335 39.3313 32.1859 39.4857C32.5382 39.6269 32.7916 39.9357 32.8761 40.3025C33.0173 40.936 33.5517 41.3728 34.2129 41.3728C34.8608 41.3728 35.3953 40.9505 35.5497 40.3025C35.6341 39.9225 35.8875 39.6269 36.2398 39.4857C36.5922 39.3445 36.9854 39.3735 37.3101 39.5701C37.8591 39.9225 38.5493 39.838 39.0138 39.3867C39.4783 38.9222 39.5482 38.2465 39.1972 37.6975C38.9861 37.3742 38.9583 36.9796 39.1127 36.6273C39.254 36.2749 39.5627 36.0215 39.9296 35.9371C40.5631 35.7959 40.9999 35.2614 40.9999 34.6003C40.9999 33.9523 40.5776 33.4033 39.9296 33.2635H39.9151ZM37.8037 36.0796C37.4803 36.8543 37.5648 37.7265 38.057 38.3877C37.3537 37.9377 36.4669 37.8664 35.6922 38.1911C34.9176 38.5144 34.3554 39.19 34.2419 40.0069C34.0585 39.19 33.4818 38.5144 32.7217 38.1911C32.4115 38.0644 32.0882 37.9944 31.7649 37.9944C31.2859 37.9944 30.8082 38.1356 30.4136 38.4444C30.8636 37.741 30.9349 36.8542 30.6102 36.0796C30.2869 35.3049 29.6113 34.7428 28.7944 34.6293C29.6113 34.4458 30.2869 33.8692 30.6102 33.109C30.9335 32.3344 30.8491 31.4621 30.3569 30.801C31.0602 31.251 31.947 31.3222 32.7217 30.9976C33.4963 30.6743 34.0585 29.9986 34.172 29.1817C34.3554 29.9986 34.9321 30.6743 35.6922 30.9976C36.4669 31.3209 37.3537 31.2364 38.0003 30.7442C37.5503 31.4476 37.479 32.3344 37.8037 33.109C38.127 33.8837 38.8026 34.4458 39.6195 34.5594C38.8026 34.7428 38.127 35.3195 37.8037 36.0796Z" fill="black"/>
<path d="M35.8189 32.6868L33.4963 35.0094L32.5818 34.0948C32.3007 33.8138 31.8639 33.8138 31.5828 34.0948C31.3017 34.3759 31.3017 34.8127 31.5828 35.0938L32.9909 36.5019C33.1321 36.6431 33.3142 36.713 33.4831 36.713C33.652 36.713 33.8487 36.6431 33.9753 36.5019L36.7901 33.6871C37.0712 33.406 37.0712 32.9692 36.7901 32.6881C36.5091 32.407 36.0723 32.407 35.7912 32.6881L35.8189 32.6868Z" fill="black"/>
</svg>
