<svg width="56" height="56" viewBox="0 0 56 56" fill="none" xmlns="http://www.w3.org/2000/svg">
<circle cx="28" cy="28" r="28" fill="#F9F9F9"/>
<path d="M23.0251 22.8629L20.976 24.9188L20.1207 24.0635H20.1195C19.8356 23.7795 19.3755 23.7795 19.0916 24.0646C18.8076 24.3486 18.8076 24.8086 19.0927 25.0926L20.1195 26.1194H20.1184C20.592 26.592 21.3587 26.592 21.8324 26.1194L24.0541 23.8965C24.3392 23.6126 24.3404 23.1514 24.0564 22.8652C23.7724 22.5801 23.3113 22.5789 23.0251 22.8629Z" fill="black"/>
<path d="M23.0251 28.388L20.976 30.4348L20.1207 29.5795H20.1196C19.9844 29.4398 19.7981 29.3592 19.6028 29.358C19.4085 29.3569 19.2211 29.433 19.0825 29.5716C18.9451 29.709 18.869 29.8964 18.8701 30.0918C18.8724 30.286 18.9519 30.4723 19.0928 30.6075L20.1196 31.6332H20.1184C20.5921 32.1068 21.3588 32.1068 21.8324 31.6332L24.0542 29.4103V29.4114C24.303 29.1218 24.2871 28.6901 24.0167 28.4209C23.7452 28.1517 23.3137 28.137 23.0251 28.388Z" fill="black"/>
<path d="M23.0249 33.8992L20.9758 35.9483L20.1205 35.0942L20.1194 35.0953C19.9853 34.9499 19.7979 34.867 19.6003 34.8636C19.4038 34.8602 19.213 34.9374 19.0732 35.076C18.9347 35.2157 18.8574 35.4065 18.8608 35.603C18.8642 35.8007 18.9483 35.9881 19.0925 36.1221L20.1182 37.1501C20.5919 37.6226 21.3586 37.6226 21.8322 37.1501L24.054 34.9272V34.9284C24.338 34.6444 24.338 34.1832 24.054 33.8993C23.77 33.6153 23.3089 33.6153 23.0249 33.8992Z" fill="black"/>
<path d="M38.365 23.0913H36.9849V21.0877C36.9837 19.8666 36.4976 18.6967 35.6343 17.8335C34.7722 16.9714 33.6011 16.4853 32.3811 16.4841H30.7079C30.3149 14.8553 28.8599 13.7069 27.1857 13.7024H24.5607C22.8842 13.7058 21.429 14.8564 21.0373 16.4864H19.3676C18.1465 16.4887 16.9766 16.9737 16.1134 17.8369C15.2513 18.7002 14.7652 19.8701 14.764 21.0911V37.693C14.7652 38.914 15.2513 40.084 16.1134 40.9471C16.9767 41.8104 18.1466 42.2954 19.3676 42.2977H32.3847C33.6058 42.2954 34.7746 41.8092 35.638 40.946C36.5001 40.0839 36.9863 38.9139 36.9874 37.6927V37.2679L38.3652 37.2691C40.3723 37.2656 41.9977 35.6402 42 33.6343V26.7259C41.9977 24.7188 40.3723 23.0934 38.3652 23.0911L38.365 23.0913ZM33.4978 24.5452H35.5333V26.0957C35.5333 26.1071 35.539 26.1173 35.5401 26.1286V26.165L34.5213 27.0873L33.5024 26.165L33.4978 24.5452ZM22.3801 17.3382C22.3824 16.1353 23.3569 15.1596 24.561 15.1573H27.1859C28.3899 15.1596 29.3657 16.1353 29.3668 17.3382V17.8232C29.3668 17.888 29.3418 17.9493 29.2964 17.9948C29.2498 18.0402 29.1885 18.0652 29.1249 18.0652H22.6221C22.4892 18.0652 22.3813 17.9573 22.3802 17.8232L22.3801 17.3382ZM35.5333 37.693C35.531 39.432 34.1214 40.8415 32.3836 40.8439H19.3676C17.6274 40.8427 16.2178 39.4331 16.2155 37.693V21.091C16.2178 19.3509 17.6274 17.9413 19.3676 17.9401H20.9385C20.9998 18.8261 21.7347 19.5145 22.6218 19.5179H29.1246C30.0117 19.5133 30.7455 18.8238 30.8045 17.9379H32.3766C34.1156 17.9401 35.5251 19.3486 35.5275 21.0876V23.0913H30.6705C28.6635 23.0936 27.0381 24.7201 27.0358 26.7261V33.6356V33.6345C27.038 35.6415 28.6635 37.2669 30.6705 37.2693H35.5333L35.5333 37.693ZM40.5481 33.6334V33.6345C40.547 34.8374 39.5713 35.8131 38.3673 35.8154H30.6706C29.4666 35.8131 28.4908 34.8374 28.4897 33.6345V26.7261C28.4908 25.5221 29.4666 24.5464 30.6706 24.5452H32.0473V26.2411H32.0461C32.0473 26.6045 32.2006 26.951 32.4698 27.1963L33.6522 28.2686C34.1429 28.7161 34.8937 28.7161 35.3844 28.2686L36.568 27.1952C36.8372 26.9499 36.9905 26.6034 36.9916 26.2399V24.5441H38.3649C39.5689 24.5452 40.5447 25.5209 40.5458 26.725L40.5481 33.6334Z" fill="black"/>
<path d="M32.9378 32.853H30.5139C30.1129 32.853 29.7869 33.1779 29.7869 33.58C29.7869 33.9809 30.1129 34.3069 30.5139 34.3069H32.9378C33.3388 34.3069 33.6648 33.9809 33.6648 33.58C33.6648 33.1779 33.3388 32.853 32.9378 32.853Z" fill="black"/>
</svg>
