<svg width="56" height="56" viewBox="0 0 56 56" fill="none" xmlns="http://www.w3.org/2000/svg">
<circle cx="28" cy="28" r="28" fill="#F9F9F9"/>
<path fill-rule="evenodd" clip-rule="evenodd" d="M18.0013 40.4999L18 25.4999C18.0013 25.1024 18.1666 24.7211 18.4619 24.4386C18.7571 24.1586 19.1574 23.9999 19.5759 23.9999H20.3633L21.291 14.4536C21.3041 14.3199 21.3737 14.1949 21.4839 14.1111C21.5941 14.0261 21.7371 13.9874 21.8775 14.0036L35.2815 15.5711C35.4258 15.5886 35.557 15.6611 35.645 15.7774L39.3767 20.7473C39.4502 20.8448 39.483 20.9623 39.4725 21.0786L39.0277 26.3086C39.5985 26.5336 40 27.0699 40 27.6949V40.5C40 40.8975 39.8347 41.28 39.5394 41.56C39.2429 41.8425 38.8426 42 38.4254 42H19.5758C18.7058 42 18.0013 41.3286 18.0013 40.4999ZM20.2662 24.9997H19.5759C19.4369 24.9997 19.303 25.0522 19.2046 25.146C19.1062 25.2397 19.0511 25.3672 19.0497 25.4997L19.0511 32.2146C19.2138 32.1608 19.3896 32.1308 19.5733 32.1296L20.2662 24.9997ZM21.8972 19.0647L20.6284 32.1309L29.0986 32.1297L30.1129 30.5834L26.9269 30.2109C26.6395 30.1772 26.4349 29.9272 26.4703 29.6534C26.5057 29.3797 26.7681 29.1847 27.0555 29.2184L30.9213 29.6697C31.3687 29.3522 31.9172 29.1734 32.492 29.1734H37.7304L38.3878 21.4758L34.5784 21.0296C34.2897 20.9958 34.085 20.7471 34.1204 20.4733L34.6322 16.5021L22.2857 15.0584L22.1886 16.0596L31.2639 17.1009C31.5512 17.1334 31.7559 17.3821 31.7218 17.6559C31.6877 17.9309 31.4253 18.1271 31.1379 18.0934L22.0929 17.0559L21.9945 18.0684L31.0025 19.1009C31.2899 19.1334 31.4959 19.3834 31.4605 19.6571C31.4264 19.9309 31.1653 20.1259 30.8766 20.0934L21.8972 19.0647ZM37.8286 20.4034L35.5756 17.4022C35.5756 17.4022 35.2279 20.0984 35.2266 20.0984L37.8286 20.4034ZM38.9506 29.2597V27.6947C38.9506 27.6385 38.9414 27.5847 38.923 27.5347L38.78 29.2123C38.8377 29.2248 38.8941 29.241 38.9506 29.2597ZM38.9506 40.4997V30.6735C38.9506 30.541 38.8954 30.4135 38.797 30.3197C38.7655 30.291 38.7301 30.2635 38.6921 30.2422C38.612 30.1985 38.5202 30.1735 38.4257 30.1735H32.492C32.0182 30.1735 31.5747 30.376 31.2769 30.7197C31.2336 30.7697 31.1942 30.8222 31.1561 30.8785L29.8348 32.8947C29.7377 33.041 29.5697 33.1297 29.3886 33.1297H19.576C19.5419 33.1297 19.5078 33.1335 19.475 33.1397C19.2335 33.1847 19.0511 33.3872 19.0511 33.631V40.4998C19.0511 40.7761 19.286 40.9998 19.576 40.9998H38.4256C38.5647 40.9998 38.6985 40.9473 38.7969 40.8523C38.8954 40.7598 38.9506 40.6323 38.9506 40.4997ZM27.8232 23.2623C27.5358 23.2285 27.3311 22.9798 27.3665 22.706C27.4019 22.431 27.6631 22.236 27.9504 22.2698L33.6809 22.9411C33.9696 22.9736 34.1743 23.2236 34.1389 23.4973C34.1035 23.7711 33.8423 23.9673 33.5536 23.9336L27.8232 23.2623ZM25.7486 27.0498L25.3654 30.0273C25.33 30.3023 25.0675 30.4973 24.7802 30.4636L21.6545 30.0973C21.3658 30.0636 21.1611 29.8148 21.1966 29.5398L21.5797 26.5623C21.6151 26.2886 21.8776 26.0936 22.1663 26.1273L25.2919 26.4923C25.5793 26.5261 25.784 26.7761 25.7486 27.0498ZM24.6424 27.4248L22.5586 27.1811L22.3027 29.1661L24.3865 29.4098L24.6424 27.4248ZM36.4231 26.2836L27.5672 25.2473C27.2799 25.2148 27.0752 24.9648 27.1106 24.6911C27.1382 24.4723 27.3114 24.3036 27.5253 24.2611C27.5804 24.2511 27.6368 24.2486 27.6945 24.2548L36.5504 25.2911C36.8391 25.3248 37.0438 25.5748 37.0084 25.8486C36.99 25.9936 36.9074 26.1161 36.7919 26.1948C36.6882 26.2648 36.5583 26.2998 36.4231 26.2836ZM27.1826 28.2261C26.8952 28.1923 26.6906 27.9423 26.726 27.6686C26.7614 27.3948 27.0238 27.1998 27.3112 27.2323L33.0417 27.9036C33.3304 27.9373 33.5338 28.1861 33.4997 28.4611C33.4642 28.7348 33.2018 28.9298 32.9131 28.8961L27.1826 28.2261ZM21.9943 24.9998C21.8788 24.8948 21.8145 24.7398 21.8355 24.5773L22.22 21.5998C22.2554 21.3261 22.5166 21.1311 22.8052 21.1648L25.9309 21.5298C26.2196 21.5636 26.4229 21.8136 26.3888 22.0873L26.0044 25.0648C25.969 25.3386 25.7078 25.5336 25.4191 25.4998L22.2935 25.1348C22.1767 25.1211 22.0744 25.0723 21.9943 24.9998ZM22.9679 23.9998L22.9417 24.2036L25.0268 24.4473L25.2826 22.4623L23.1976 22.2186C23.1976 22.2186 23.0336 23.4936 22.9679 23.9998Z" fill="black"/>
</svg>
