<svg width="56" height="56" viewBox="0 0 56 56" fill="none" xmlns="http://www.w3.org/2000/svg">
<circle cx="28" cy="28" r="28" fill="#F9F9F9"/>
<path d="M25.6 16C25.1495 16 24.7002 16.0735 24.2699 16.2193L14.5351 19.5164C13.6189 19.8276 13 20.6706 13 21.6103V34.389C13 35.33 13.6176 36.1717 14.5351 36.4817L24.2699 39.7813C25.1318 40.0729 26.0695 40.0729 26.9314 39.7813L34.1475 37.337C35.084 38.093 36.2888 38.5487 37.5998 38.5487C40.5752 38.5487 43 36.2013 43 33.3208C43 30.6376 40.8941 28.4163 38.1999 28.1261L38.1986 21.6107C38.1986 20.6697 37.5823 19.8268 36.6647 19.5168L26.9313 16.2184C26.4997 16.0726 26.0491 16.0003 25.5999 16.0003L25.6 16ZM25.6013 17.1603C25.9177 17.1603 26.2328 17.2117 26.5353 17.3146L29.9092 18.4577L19.1154 22.1958L14.7276 20.7084C14.7922 20.6717 14.8593 20.6374 14.9314 20.6129L24.6662 17.3145C24.9686 17.2116 25.2849 17.1603 25.6013 17.1603ZM31.7113 19.0679L36.2697 20.6129C36.3419 20.6374 36.4102 20.6704 36.4735 20.7084L25.5987 24.3926L20.9148 22.8059L31.7113 19.0679ZM36.9987 21.7596V28.1258C34.3043 28.4162 32.1999 30.6362 32.1999 33.3205C32.1999 34.4746 32.5896 35.543 33.249 36.4092L26.5351 38.6832C26.425 38.72 26.3124 38.7494 26.1997 38.7726V25.4193L36.9987 21.7596ZM14.1996 21.7609L19.4012 23.5227L25 25.4193V38.7727C24.8873 38.7482 24.7747 38.7212 24.6659 38.6832L14.9311 35.3862C14.4919 35.2367 14.1996 34.8397 14.1996 34.3888V21.7609ZM37.5987 29.2543C37.6139 29.2543 37.681 29.2592 37.8189 29.4148C37.9569 29.5704 38.1214 29.8559 38.2619 30.232C38.4973 30.863 38.6694 31.7476 38.7188 32.7388H36.48C36.5293 31.7464 36.7015 30.863 36.9369 30.232C37.0773 29.8559 37.2419 29.5704 37.3798 29.4148C37.5178 29.2592 37.5835 29.2543 37.5987 29.2543ZM35.9041 29.5986C35.8712 29.6758 35.8383 29.7542 35.8079 29.8363C35.5118 30.629 35.327 31.6312 35.2777 32.7388L33.4464 32.74C33.654 31.3273 34.6019 30.1536 35.9041 29.5997L35.9041 29.5986ZM39.2946 29.5998C40.5956 30.1536 41.5448 31.3273 41.7523 32.7388H39.9211C39.873 31.63 39.687 30.629 39.3908 29.8363C39.3604 29.7555 39.3275 29.677 39.2946 29.5998ZM16.0096 30.4023C15.8488 30.3999 15.6932 30.4599 15.578 30.5689C15.4628 30.6792 15.3983 30.8287 15.3996 30.9843V33.9003C15.3983 34.1478 15.5603 34.3671 15.8008 34.4492C18.2002 35.2627 20.5996 36.075 22.9994 36.8885C23.1829 36.9498 23.3866 36.9228 23.5448 36.8138C23.703 36.7047 23.7979 36.5271 23.7979 36.3396V33.4236C23.7979 33.1762 23.6359 32.9556 23.3955 32.8748C20.996 32.0612 18.5966 31.2489 16.1969 30.4354C16.1361 30.4146 16.0728 30.4035 16.0096 30.4023ZM16.5993 31.8027C18.5989 32.4803 20.5986 33.1578 22.5982 33.8353V35.5212C20.5986 34.8436 18.5989 34.1661 16.5993 33.4886V31.8027ZM33.4465 33.9015H35.279C35.3271 35.0103 35.5131 36.0101 35.8093 36.804C35.8396 36.8861 35.8713 36.9645 35.9042 37.0417C34.6019 36.4867 33.654 35.313 33.4465 33.9015ZM36.48 33.9015H38.7188C38.6695 34.8939 38.4974 35.7773 38.262 36.4082C38.1215 36.7844 37.957 37.0686 37.819 37.2242C37.6811 37.3798 37.614 37.386 37.5988 37.386C37.5836 37.386 37.5165 37.3798 37.3799 37.2242C37.2419 37.0686 37.0774 36.7844 36.9369 36.4082C36.7015 35.7773 36.5294 34.8927 36.48 33.9015ZM39.9211 33.9015H41.7523C41.5448 35.3129 40.5969 36.4866 39.2959 37.0405C39.3288 36.9633 39.3604 36.8849 39.3908 36.8028C39.687 36.0101 39.8717 35.0091 39.9211 33.9003L39.9211 33.9015Z" fill="black"/>
</svg>
