<svg width="56" height="56" viewBox="0 0 56 56" fill="none" xmlns="http://www.w3.org/2000/svg">
<circle cx="28" cy="28" r="28" fill="#F9F9F9"/>
<path fill-rule="evenodd" clip-rule="evenodd" d="M29.8377 36.2158H21.1202C20.9082 36.2158 20.7355 36.0446 20.7355 35.8311C20.7104 34.5467 19.6396 33.501 18.3552 33.501H17.7413C16.7851 33.501 16.0001 32.7238 16.0001 31.7597V29.8866C16.0001 28.9304 16.7773 28.1453 17.7413 28.1453H20.7418C21.7718 28.1453 22.7782 28.6273 23.4236 29.4375L24.945 31.3515C25.0926 31.532 25.281 31.4818 25.3376 31.4661C25.3941 31.4504 25.5668 31.3688 25.5746 31.1395L25.6155 28.5221C25.6155 28.3102 25.796 28.1375 26.0001 28.1375H29.8846C29.9914 28.1375 30.0887 28.1783 30.1625 28.2521L32.1739 30.2634C32.2477 30.3372 32.2885 30.4345 32.2885 30.5413V33.7475C32.2963 34.4023 32.0436 35.0225 31.5772 35.4809C31.1109 35.9551 30.4892 36.2173 29.836 36.2173L29.8377 36.2158ZM21.4723 35.4385H29.8377C30.2868 35.4385 30.7044 35.2674 31.0231 34.9471C31.334 34.6283 31.5052 34.2107 31.5052 33.7616V30.7109L29.7231 28.9288H26.3787L26.3457 31.1615C26.3379 31.6436 26.0349 32.0534 25.5858 32.2088C25.1368 32.3643 24.6453 32.2245 24.3344 31.8493L22.813 29.9353C22.3137 29.3135 21.538 28.9382 20.7357 28.9382H17.7352C17.2029 28.9382 16.7696 29.3716 16.7696 29.9039V31.777C16.7696 32.3093 17.2029 32.7426 17.7352 32.7426H18.3491C19.9271 32.7269 21.2601 33.9124 21.4736 35.4417L21.4723 35.4385Z" fill="black"/>
<path fill-rule="evenodd" clip-rule="evenodd" d="M31.8896 33.7128H27.776C27.564 33.7128 27.3835 33.5417 27.3835 33.3203V30.6621C27.3835 30.4501 27.5546 30.2695 27.776 30.2695H31.8896C32.1015 30.2695 32.2821 30.4407 32.2821 30.6621C32.2821 30.8834 32.111 31.0546 31.8896 31.0546H28.1606V32.9356H31.8896C32.1015 32.9356 32.2821 33.1067 32.2821 33.3281C32.2821 33.5495 32.111 33.7128 31.8896 33.7128Z" fill="black"/>
<path fill-rule="evenodd" clip-rule="evenodd" d="M22.9606 29.8942C22.8633 29.8942 22.7644 29.8534 22.6827 29.7796C22.5273 29.6242 22.5273 29.3792 22.6827 29.2316L32.1852 19.7291L29.863 17.4069L18.4545 28.8155C18.299 28.9709 18.0541 28.9709 17.9065 28.8155C17.7511 28.6601 17.7511 28.4151 17.9065 28.2675L29.5928 16.5812C29.7483 16.4257 29.9932 16.4257 30.1408 16.5812L33.0188 19.4514C33.0926 19.5252 33.1335 19.6225 33.1335 19.7293C33.1335 19.836 33.0926 19.9334 33.0188 20.0072L23.2386 29.7875C23.1569 29.8534 23.058 29.8942 22.9606 29.8942Z" fill="black"/>
<path fill-rule="evenodd" clip-rule="evenodd" d="M32.3153 19.6963C32.2085 19.6963 32.1033 19.6555 32.0295 19.566C31.8819 19.4106 31.8992 19.1656 32.0547 19.018L34.6626 16.6471C34.6783 16.6314 34.7035 16.6142 34.7192 16.6063L36.9848 15.2246L33.5997 15.0205L30.7452 17.7604C30.5897 17.908 30.3448 17.908 30.1972 17.7525C30.0496 17.5971 30.0574 17.3521 30.205 17.2045L33.182 14.35C33.2636 14.2762 33.3704 14.2354 33.4771 14.2433L37.1654 14.4647C37.4841 14.4804 37.7541 14.7017 37.8358 15.0205C37.9175 15.3392 37.7793 15.6579 37.4998 15.8306L35.1525 17.261L32.5681 19.6005C32.5021 19.6665 32.4048 19.6979 32.3153 19.6979L32.3153 19.6963Z" fill="black"/>
<path fill-rule="evenodd" clip-rule="evenodd" d="M37.9096 18.101C36.8623 18.101 35.9218 17.4792 35.4979 16.523C35.4084 16.3268 35.4979 16.0975 35.6941 16.008C35.8904 15.9185 36.1197 16.008 36.2091 16.2043C36.5043 16.8748 37.1747 17.3159 37.9096 17.3159C38.4167 17.3159 38.916 17.104 39.2677 16.735C39.6037 16.3911 39.7749 15.9421 39.7592 15.4836V15.4679C39.7592 14.4457 38.9333 13.6198 37.9111 13.6198C37.1182 13.6198 36.4148 14.127 36.1605 14.8791C36.0945 15.0832 35.8747 15.19 35.669 15.124C35.4649 15.0581 35.3581 14.8383 35.424 14.6326C35.7836 13.5617 36.79 12.8505 37.9095 12.8505C39.3572 12.8505 40.5269 14.0202 40.5348 15.4679C40.5599 16.1383 40.3055 16.7852 39.8314 17.2829C39.3321 17.7979 38.6381 18.101 37.9096 18.101Z" fill="black"/>
<path fill-rule="evenodd" clip-rule="evenodd" d="M40.1502 22.5742H35.3582C35.1462 22.5742 34.9656 22.4031 34.9656 22.1817V16.6786C34.9656 16.4666 35.1368 16.286 35.3582 16.286C35.5796 16.286 35.7507 16.4572 35.7507 16.6786V21.797H39.7655V15.6391C39.7655 15.4271 39.9366 15.2466 40.158 15.2466C40.3794 15.2466 40.5506 15.4177 40.5506 15.6391V22.1897C40.5349 22.3938 40.3622 22.5742 40.1502 22.5742Z" fill="black"/>
<path fill-rule="evenodd" clip-rule="evenodd" d="M39.0621 27.613H36.429C36.2814 27.613 36.1511 27.5314 36.0852 27.4011L34.7773 24.8826C34.7207 24.768 34.7207 24.6377 34.7773 24.523L36.0852 22.0046C36.1511 21.8742 36.2814 21.7926 36.429 21.7926H39.0621C39.2097 21.7926 39.34 21.8742 39.406 22.0046L40.7139 24.523C40.7704 24.6377 40.7704 24.768 40.7139 24.8826L39.406 27.4011C39.34 27.5314 39.2097 27.613 39.0621 27.613ZM36.674 26.8358H38.8329L39.9445 24.702L38.8329 22.5682H36.674L35.5623 24.702L36.674 26.8358Z" fill="black"/>
<path fill-rule="evenodd" clip-rule="evenodd" d="M37.7463 31.9874C36.6991 31.9874 35.8402 31.1286 35.8402 30.0813C35.8402 29.8693 36.0114 29.6887 36.2327 29.6887C36.4541 29.6887 36.6253 29.8599 36.6253 30.0813C36.6253 30.703 37.1324 31.2102 37.7542 31.2102C38.376 31.2102 38.8831 30.703 38.8831 30.0813C38.8831 29.4595 38.376 28.9523 37.7542 28.9523C37.6474 28.9523 37.5501 28.9115 37.4763 28.8377C37.4025 28.7639 37.3617 28.6666 37.3617 28.5598V27.2189C37.3617 27.007 37.5328 26.8264 37.7542 26.8264C37.9661 26.8264 38.1467 26.9976 38.1467 27.2189V28.216C39.0134 28.3966 39.6603 29.1643 39.6603 30.0797C39.6524 31.127 38.8014 31.9858 37.7463 31.9858L37.7463 31.9874Z" fill="black"/>
<path fill-rule="evenodd" clip-rule="evenodd" d="M34.0583 43.1495H18.7419C17.2283 43.1495 16.0021 41.9232 16.0021 40.4097C16.0021 38.8961 17.2283 37.6698 18.7419 37.6698H34.0583C35.5718 37.6698 36.7981 38.8961 36.7981 40.4097C36.806 41.1382 36.5202 41.8243 36.0052 42.3394C35.4902 42.8622 34.7947 43.1495 34.0583 43.1495ZM18.7419 38.4391C17.6539 38.4391 16.7793 39.323 16.7793 40.4017C16.7793 41.4898 17.6633 42.3644 18.7419 42.3644H34.0583C34.5905 42.3644 35.0804 42.1602 35.4572 41.7834C35.8247 41.416 36.0303 40.9246 36.0209 40.4017C36.0209 39.3136 35.1369 38.4312 34.0583 38.4312H18.7419V38.4391Z" fill="black"/>
<path fill-rule="evenodd" clip-rule="evenodd" d="M20.5646 41.5888C19.9098 41.5888 19.3792 41.0565 19.3792 40.4033C19.3792 39.7486 19.9114 39.2179 20.5646 39.2179C21.2193 39.2179 21.75 39.7502 21.75 40.4033C21.75 41.0581 21.2178 41.5888 20.5646 41.5888ZM20.5646 39.9935C20.3353 39.9935 20.1564 40.1741 20.1564 40.4017C20.1564 40.631 20.3369 40.8099 20.5646 40.8099C20.7938 40.8099 20.9728 40.6294 20.9728 40.4017C20.9728 40.1725 20.7844 39.9935 20.5646 39.9935Z" fill="black"/>
<path fill-rule="evenodd" clip-rule="evenodd" d="M24.4567 41.5888C23.8019 41.5888 23.2712 41.0565 23.2712 40.4033C23.2712 39.7486 23.8035 39.2179 24.4567 39.2179C25.1114 39.2179 25.6421 39.7502 25.6421 40.4033C25.6421 41.0581 25.1098 41.5888 24.4567 41.5888ZM24.4567 39.9935C24.2274 39.9935 24.0485 40.1741 24.0485 40.4017C24.0485 40.631 24.229 40.8099 24.4567 40.8099C24.6859 40.8099 24.8649 40.6294 24.8649 40.4017C24.8649 40.1725 24.6765 39.9935 24.4567 39.9935Z" fill="black"/>
<path fill-rule="evenodd" clip-rule="evenodd" d="M28.3413 41.5888C27.6866 41.5888 27.1559 41.0565 27.1559 40.4033C27.1559 39.7486 27.6881 39.2179 28.3413 39.2179C28.9961 39.2179 29.5268 39.7502 29.5268 40.4033C29.5268 41.0581 28.9945 41.5888 28.3413 41.5888ZM28.3413 39.9935C28.1121 39.9935 27.9331 40.1741 27.9331 40.4017C27.9331 40.631 28.1137 40.8099 28.3413 40.8099C28.5706 40.8099 28.7495 40.6294 28.7495 40.4017C28.7495 40.1725 28.569 39.9935 28.3413 39.9935Z" fill="black"/>
<path fill-rule="evenodd" clip-rule="evenodd" d="M32.2337 41.5888C31.5789 41.5888 31.0482 41.0565 31.0482 40.4033C31.0482 39.7486 31.5805 39.2179 32.2337 39.2179C32.8884 39.2179 33.4191 39.7502 33.4191 40.4033C33.4191 41.0581 32.8868 41.5888 32.2337 41.5888ZM32.2337 39.9935C32.0044 39.9935 31.8254 40.1741 31.8254 40.4017C31.8254 40.631 32.006 40.8099 32.2337 40.8099C32.4629 40.8099 32.6419 40.6294 32.6419 40.4017C32.6419 40.1725 32.4613 39.9935 32.2337 39.9935Z" fill="black"/>
<path fill-rule="evenodd" clip-rule="evenodd" d="M28.6755 38.439H23.1881C22.9761 38.439 22.7955 38.2679 22.7955 38.0465V35.8216C22.7955 35.6096 22.9667 35.4291 23.1881 35.4291H28.6755C28.8875 35.4291 29.068 35.6002 29.068 35.8216V38.0465C29.068 38.2679 28.8875 38.439 28.6755 38.439ZM23.5727 37.6618H28.2832V36.2141H23.5727V37.6618Z" fill="black"/>
<path fill-rule="evenodd" clip-rule="evenodd" d="M23.1897 26.8846C23.0924 26.8846 22.9934 26.8438 22.9196 26.77C22.7642 26.6224 22.7642 26.3775 22.9118 26.222L28.8406 20.1863C28.9882 20.0309 29.2331 20.0309 29.3885 20.1785C29.544 20.326 29.544 20.571 29.3964 20.7264L23.4676 26.7621C23.386 26.8438 23.2871 26.8846 23.1897 26.8846Z" fill="black"/>
</svg>
