<svg width="56" height="56" viewBox="0 0 56 56" fill="none" xmlns="http://www.w3.org/2000/svg">
<circle cx="28" cy="28" r="28" fill="#F9F9F9"/>
<path fill-rule="evenodd" clip-rule="evenodd" d="M35.7316 38.0903C35.8227 38.3414 35.6919 38.619 35.4404 38.7101C34.314 39.1155 33.1289 39.3211 31.9201 39.3211C29.9894 39.3211 28.1012 38.7806 26.472 37.7803L26.4793 37.8053C26.5617 38.0594 26.4234 38.3326 26.1676 38.4149C26.1176 38.431 26.0676 38.4384 26.0176 38.4384C25.8132 38.4384 25.6235 38.3076 25.5573 38.1035L25.0926 36.6743C25.0926 36.6728 25.0912 36.6699 25.0912 36.6684C25.0882 36.6567 25.0853 36.6464 25.0824 36.6346C25.0809 36.6302 25.0794 36.6243 25.0779 36.6185C25.075 36.6038 25.0735 36.5906 25.0721 36.5759C25.0721 36.5729 25.0706 36.57 25.0706 36.5685C25.0691 36.5524 25.0691 36.5347 25.0691 36.5186C25.0706 36.5127 25.0706 36.5083 25.0706 36.5024C25.0721 36.4907 25.0721 36.4804 25.0735 36.4687C25.0735 36.4628 25.075 36.4569 25.0765 36.451C25.0779 36.4407 25.0809 36.429 25.0838 36.4187C25.0853 36.4128 25.0868 36.407 25.0882 36.4011C25.0912 36.3908 25.0941 36.3805 25.0985 36.3688C25.1 36.3629 25.1029 36.357 25.1044 36.3526C25.1088 36.3423 25.1132 36.3321 25.1176 36.3203C25.1206 36.3144 25.1221 36.31 25.125 36.3041C25.1309 36.2939 25.1368 36.2836 25.1426 36.2748C25.1456 36.2704 25.1471 36.266 25.15 36.263C25.15 36.2615 25.1515 36.2615 25.1529 36.2601C25.1588 36.2498 25.1662 36.241 25.1735 36.2322C25.1779 36.2278 25.1809 36.2219 25.1838 36.2175H25.1853C25.1956 36.2043 25.2073 36.1925 25.2191 36.1808C25.222 36.1793 25.2235 36.1764 25.2265 36.1749C25.2368 36.1646 25.247 36.1558 25.2573 36.1484C25.2618 36.1455 25.2647 36.1426 25.2691 36.1396C25.2794 36.1323 25.2882 36.1249 25.2985 36.1191C25.3044 36.1161 25.3088 36.1132 25.3132 36.1103C25.3235 36.1044 25.3323 36.1 25.3426 36.0941C25.3485 36.0912 25.3544 36.0882 25.3603 36.0868C25.3706 36.0823 25.3794 36.0794 25.3897 36.075C25.3956 36.0735 25.4029 36.0706 25.4088 36.0691C25.4176 36.0662 25.4279 36.0633 25.4367 36.0618C25.4441 36.0603 25.4514 36.0574 25.4588 36.0574C25.4691 36.0559 25.4794 36.053 25.4897 36.0515C25.4956 36.0515 25.5 36.05 25.5058 36.0486L27.0028 35.8973C27.2689 35.8694 27.5071 36.0647 27.5351 36.3306C27.5616 36.5964 27.3689 36.8344 27.1013 36.8608L26.8602 36.8843C28.3645 37.8406 30.1217 38.3561 31.9214 38.3561C33.0183 38.3561 34.0918 38.1696 35.1137 37.8038C35.3637 37.7083 35.6404 37.8391 35.7316 38.0903ZM28.7058 19.5479C28.6308 19.2909 28.7807 19.0221 29.0381 18.9486C29.9718 18.6799 30.9408 18.5447 31.9201 18.5447C37.6548 18.5447 42.3207 23.2055 42.3207 28.9338C42.3207 29.7314 42.231 30.5142 42.0546 31.2795L42.0751 31.2648C42.2898 31.1062 42.5942 31.1503 42.753 31.3662C42.9118 31.5806 42.8677 31.8847 42.653 32.0433L41.4443 32.9378C41.4414 32.9408 41.4385 32.9422 41.4355 32.9437C41.4238 32.9525 41.4105 32.9599 41.3973 32.9672C41.3885 32.9731 41.3796 32.9775 41.3708 32.9819C41.3576 32.9878 41.3429 32.9937 41.3282 32.9995C41.3194 33.0025 41.3105 33.0069 41.3017 33.0098C41.2841 33.0157 41.2664 33.0186 41.2488 33.023C41.2414 33.0245 41.2355 33.026 41.2297 33.0274C41.2047 33.0318 41.1797 33.0333 41.1547 33.0333C41.1355 33.0333 41.1179 33.0318 41.0988 33.0289C41.0944 33.0289 41.09 33.0289 41.087 33.0274C41.0723 33.0245 41.0576 33.023 41.0429 33.0186C41.04 33.0186 41.0355 33.0186 41.0326 33.0172C41.0311 33.0172 41.0297 33.0157 41.0282 33.0157C41.0164 33.0127 41.0032 33.0083 40.9914 33.0039C40.9885 33.0025 40.9841 33.001 40.9797 32.9995H40.9782C40.962 32.9937 40.9473 32.9863 40.9326 32.979C40.9311 32.979 40.9297 32.9775 40.9282 32.976C40.9135 32.9687 40.9003 32.9613 40.887 32.9525C40.8841 32.9511 40.8797 32.9481 40.8767 32.9466C40.8664 32.9393 40.8547 32.9305 40.8459 32.9217C40.8414 32.9187 40.8385 32.9158 40.8341 32.9129C40.8253 32.9041 40.8165 32.8967 40.8076 32.8864C40.8032 32.882 40.8003 32.8791 40.7973 32.8747C40.7885 32.8659 40.7812 32.8571 40.7753 32.8482C40.7709 32.8438 40.7679 32.8394 40.7635 32.8335C40.7576 32.8247 40.7503 32.8159 40.7444 32.8056C40.7415 32.7998 40.737 32.7954 40.7341 32.791C40.7282 32.7807 40.7223 32.7689 40.7179 32.7586C40.7165 32.7557 40.7135 32.7528 40.7135 32.7484L40.093 31.378C39.9827 31.1341 40.0915 30.8477 40.3356 30.7376C40.5797 30.6274 40.8665 30.7346 40.9767 30.9799L41.0767 31.2002C41.2591 30.4629 41.3517 29.7064 41.3517 28.9353C41.3517 23.7417 37.1213 19.5156 31.9216 19.5156C31.0334 19.5156 30.1541 19.639 29.3086 19.8828C29.0483 19.9533 28.7793 19.805 28.7058 19.5479ZM31.9187 33.8412C34.6288 33.8412 36.8331 31.6395 36.8331 28.9323C36.8331 26.2252 34.6289 24.0233 31.9187 24.0233C29.2087 24.0233 27.0043 26.2251 27.0043 28.9323C27.0043 31.6393 29.2086 33.8412 31.9187 33.8412ZM31.9187 23.054C28.6734 23.054 26.0339 25.6905 26.0339 28.9308C26.0339 32.1725 28.6733 34.8091 31.9187 34.8091C35.1641 34.8091 37.8035 32.1726 37.8035 28.9308C37.8035 25.692 35.1641 23.054 31.9187 23.054ZM42.9735 39.4564L42.4545 39.9748C42.3795 40.0498 42.2515 40.0498 42.1765 39.9748L39.3974 37.1973C39.3474 37.1488 39.34 37.0901 39.34 37.0592C39.34 37.0284 39.3474 36.9696 39.3974 36.9197L39.9164 36.4012C39.9532 36.363 40.0047 36.3439 40.0547 36.3439C40.1047 36.3439 40.1561 36.363 40.1929 36.4012L42.9735 39.1787C43.0235 39.2272 43.0309 39.286 43.0309 39.3168C43.0309 39.3491 43.0235 39.4079 42.9735 39.4564ZM31.9187 35.6961C35.6522 35.6961 38.6901 32.6616 38.6901 28.9323C38.6901 25.2029 35.6521 22.1684 31.9187 22.1684C28.1837 22.1684 25.1474 25.203 25.1474 28.9323C25.1474 32.6617 28.1853 35.6961 31.9187 35.6961ZM22.1329 33.1007V24.9163H25.3061C24.59 26.0869 24.1783 27.4617 24.1783 28.9322C24.1783 30.4671 24.6282 31.8977 25.4032 33.1007H22.1329ZM17.5509 23.9469V16.4235C17.5509 16.1723 17.7553 15.9682 18.0067 15.9682H19.9771V17.9599C19.9771 18.6091 20.505 19.1364 21.155 19.1364H22.1431C22.7916 19.1364 23.3209 18.6091 23.3209 17.9599L23.3195 15.9696H25.2899C25.5413 15.9696 25.7457 16.1738 25.7457 16.4249V23.9484L17.5509 23.9469ZM12.9689 32.6864V25.3318C12.9689 25.1026 13.1557 24.9161 13.3851 24.9161H15.3952V26.9078C15.3952 27.5556 15.923 28.0844 16.573 28.0844H17.5597C18.2096 28.0844 18.7375 27.5556 18.7375 26.9078V24.9161H21.1623V33.1006H13.3851C13.1557 33.1006 12.9689 32.9155 12.9689 32.6864ZM16.3642 24.9163V26.908C16.3642 27.0197 16.4598 27.1166 16.573 27.1166H17.5597C17.6729 27.1166 17.7685 27.0211 17.7685 26.908V24.9163H16.3642ZM20.9462 15.9696V17.9614C20.9462 18.0745 21.0417 18.1699 21.155 18.1699H22.1431C22.2549 18.1699 22.3504 18.0745 22.3504 17.9614L22.349 15.9696H20.9462ZM43.6603 38.494L40.8797 35.7179C40.4533 35.292 39.7754 35.2655 39.3181 35.6386L37.7226 34.0449C38.9284 32.6818 39.6607 30.8913 39.6607 28.9333C39.6607 24.6692 36.1875 21.2016 31.9189 21.2016C29.9161 21.2016 28.0898 21.9639 26.7135 23.2139L26.715 16.4233C26.715 15.6375 26.0768 15 25.2901 15H18.0068C17.2216 15 16.5819 15.6375 16.5819 16.4233V23.9467H13.3852C12.6206 23.9467 12 24.568 12 25.3304V32.685C12 33.4473 12.6205 34.0686 13.3852 34.0686L26.1385 34.0701C27.5574 35.6623 29.622 36.6655 31.9186 36.6655C33.8787 36.6655 35.6713 35.934 37.0359 34.7296L38.6314 36.3233C38.4623 36.5304 38.3696 36.7874 38.3696 37.0591C38.3696 37.3705 38.4917 37.6628 38.7108 37.8831L41.4914 40.6592C41.7178 40.8869 42.0163 41 42.3148 41C42.6134 41 42.9118 40.8869 43.1398 40.6592L43.6588 40.1407C43.8779 39.9204 44 39.6281 44 39.3167C44.0015 39.0053 43.8794 38.7128 43.6603 38.494Z" fill="black"/>
</svg>
